<?xml version="1.0" encoding="utf-8"?>
<!-- Generator: Adobe Illustrator 15.0.0, SVG Export Plug-In . SVG Version: 6.00 Build 0)  -->
<!DOCTYPE svg PUBLIC "-//W3C//DTD SVG 1.1//EN" "http://www.w3.org/Graphics/SVG/1.1/DTD/svg11.dtd">
<svg version="1.1"
	 id="svg1306" sodipodi:docbase="C:\Documents and Settings\Rub√©n\Mis documentos\Mis im√°genes\wikipedia" sodipodi:docname="Departments of El Salvador.svg" sodipodi:version="0.32" xmlns:sodipodi="http://inkscape.sourceforge.net/DTD/sodipodi-0.dtd" inkscape:version="0.43" xmlns:svg="http://www.w3.org/2000/svg" xmlns:rdf="http://www.w3.org/1999/02/22-rdf-syntax-ns#" xmlns:dc="http://purl.org/dc/elements/1.1/" xmlns:cc="http://web.resource.org/cc/" xmlns:inkscape="http://www.inkscape.org/namespaces/inkscape"
	 xmlns="http://www.w3.org/2000/svg" xmlns:xlink="http://www.w3.org/1999/xlink" x="0px" y="0px" width="870px" height="480px"
	 viewBox="0 0 870 480" enable-background="new 0 0 870 480" xml:space="preserve">
<path id="shadow" fill="#9E9E9E" d="M174.8,43.9l-1.4,0.4l-2.1,0.7l-0.4,1.8l-2.1,2.5l-2.1,0.7h-2.8l-1.8-1.4h-2.5l-3.9,0.4
	l-2.8,1.1l-2.5,1.1l-1.8,1.4l-1.4,3.2l-1.8,0.7l-2.8,0.4l1.1-1.4l-0.7-2.1l-0.7-1.4L140,51l-3.5,0.7l-2.8,1.4l-1.8,3.2l0.4,2.5
	l1.8,1.1l1.1,1.4l1.4,1.1v1.8l-2.5,0.7l-2.8,2.5l-0.4,2.8v2.1h2.5l2.5-0.7l2.5,1.1l1.4,2.5l1.1,4.3l1.1,3.9l2.1,3.2l2.1,2.8v3.2
	l-1.8,2.1l-1.8-0.7l-1.8-0.7l-3.6,2.1l-3.5,2.8l-7.8,0.7l-8.2,2.1l-3.9,2.5l-5.3,3.2l-3.9,5l-4.3,6l-1.4,5l-1.4,6.7v2.1l0.4,2.1v0.6
	v0.5l-3.6,0.7l-7.5-1.8l-3.2-1.4l-1.4-2.1l-2.5-1.8l-2.1,1.1l-1.8,0.7H73l-1.1,1.8l-2.5,1.1h-3.5l-2.8,0.7l-2.1,2.5l-1.4,3.2
	l-2.5,1.1l-2.5,1.4v0.7l-1.1,2.1l-6,3.6l-3.2,2.5l-3.2,1.1l-2.5,1.4l-0.4,2.5l-2.5,0.4l-1.8,1.1l-1.1,3.6l-0.4,1.4v2.5l-2.8,1.8
	l-6.7,2.8l-1.8,2.1l-0.3,1.8l-2.1,1.8l-2.1,1.8l-1.8,3.2l1.1,4.3l-2.1,1.1l-0.7,3.2v2.8l2.1,1.4l2.1,1.1v1.8l1.8,1.4l-0.3,1.4
	l-1.8,1.1l-2.8,0.4h-1.8l-1.1,1.1l1.4,0.3l1.8,0.7l14.6,6l3.5,0.7l2.8,1.4l8.5,3.9l0.4,0.3l2.4,1.5l4.3,2.5l3.2,1.4l4.3,2.1l2.8,1.1
	l1.8,1.1l1.8,1.4l4.3,2.5l3.9,2.8l2.8,2.8l0.7,3.2l1.4,4.6l0.7,3.9l1.1,1.8l3.9,1.8l4.6,0.4l5-1.1h3.2l2.8,0.4l3.2-0.4l5-1.1
	l3.5,0.4l8.2,1.4l5,2.1l0.1,0l5.3,1.4h4.2l3.2,1.1l4.3,1.4l4.6,0.4l9.2-0.4l6.7,0.4h4.6h6l4.3,0.3l5.7,2.1l3.5,0.7l2.1,0.4l2.5-1.1
	h1.4h2.5l3.2,1.4l6.4,3.5l14.2,7.1l7.5,3l1.3,0.5l5.3,2.8l3.6,2.1l3.2,1.4l4.6,3.9l6.4,2.5l5.7,2.5l7.8,3.5l7.1,4.2l4.6,1.8l6.7,2.8
	h2.8l1.4,0.7l0.7,2.1l1.4,0.7l3.9,1.1l2.5,1.8l0.1,0.1l2.8,2.8l5.3,1.8l0.2,0l5.2,1l5.7,2.1l10.3,1.8l8.5,1.8l6.4,0.7l5.7,0.4
	l4.6,1.4l5.3,2.1l8.9,1.8l6.7,2.5l2.1,1.1l1.1-1.4l-1.1-1.1l-1.1-1.1l-0.3-1.1l-1.8-1.1l-8.9-2.1l-3.9-1.4l-1.1-0.7l1.4-0.7l0.3-1.4
	l-1.4-1.8l-6.4-5.7h-2.8l-4.3,0.7l-2.8,1.4l-1.8,1.4l-1.1,0.4l-1.4-0.4l-2.1-1.1l-6-0.3l-3.2-0.7l-2.1-1.8v-1.1l1.8-0.7l3.5,0.4
	l2.1-0.7l2.1,0.3l4.3,1.8l2.5-1.1l1.8-1.1v-1.8l-0.7-0.7l-0.3-1.1l1.8-0.3l4.3,1.8l7.8,0.7l5.7,2.1l2.5,2.8l1.4,2.1l-0.4,2.5
	l0.7,2.1c0,0,1.4,1.4,2.8,1.4c1.4,0,7.5,1.4,7.5,1.4h2.8l0.4-1.1l-2.1-1.8l-3.2-2.8l-1.1-2.1l0.4-2.1l1.4-1.1l2.8,0.4l3.6,3.9
	l4.3,4.6l2.1,3.5l-0.7,1.1h-0.7l-0.7,2.5v3.5l3.6,1.4h4.3l3.2-0.3l1.1-1.1l-1.4-1.1l-0.7-0.7l0.7-0.7l4.6-1l1.1-1.1l-0.7-1.1
	l-1.4-0.7V321l2.1-1.1h3.5l3.2,1.8l0.4,2.1l-1.8,1.4l-2.5,1.8l1.8,1.8l6.7,0.7l13.1,1.1l6.4,1.1h3.5l2.8-1.1l3.5-0.7l8.5,0.4
	l3.6,0.3l0.2-0.1l1.9-1l1.1-0.7h2.9h1l11,0.4l9.9,1.4l7.8,1.1l7.8,0.7l3.5-0.3l2.1-1.4l-0.7-0.7l-2.5-1.4l-0.7-1.1v-0.7l-1.1-0.7
	l-1.4-0.4l-1.4-1.8l1.1-1.1l5-1.1l2.8-1.4l5-2.1l2.1-1.8l3.6-0.7l5.3-2.8l3.2-2.8l2.8-5l2.1-3.5l-1.8-1.8l-1.4-0.7l-3.2-1.4
	l-0.4-1.1v-0.7l-1.1-1.4l-6.7-2.5l-2.1-2.1l-1.4-0.7L507,287l-1.1-4.6l2.5-7.1l1.8-3.2l2.5-0.7h2.5l-0.7,1.4v1.8l2.8,0.7h2.8
	l3.9,1.1l2.1-1.4l0.4-1.4l2.1-1.1l0.7-1.4l2.5-1.4l2.5-0.3l2.1-1.1l2.1-0.7l0.4-2.5l1.1-3.5l-1.1-2.5l-3.2-2.5l-2.1-0.7l-0.7-2.5
	l-0.7,0.4l-2.1,1.1h-2.1l-0.7-1.1l-1.4-0.4l-2.1-0.7v-1.1l2.5-1.1v-2.1l-0.7-2.5l0.3-1.8v-1.4v-2.1l2.1-1.8l0.4-1.8l1.4-1.4l1.4-2.1
	l1.1-4.6l0.7-10.7l2.1-4.6l1.8-3.9l0.3-4.6l-0.3-1.8l1.4-2.8l1.4-1.8l1.4-2.8l1.8-4.3l-0.3-2.1l-0.4-1.4l-0.7-0.7l-2.8-2.1l-2.5-2.5
	l-2.5-6l-2.1-3.2l-3.9-1.1l-1.4-2.1l-2.1-1.4l-0.3-2.5l-0.7-0.7l-5.7-0.4l-3.9,0.7l-1.8,1.8h-5l-3.2-0.7l-2.5,0.4l-1.8,1.1l-2.1,0.3
	h-1.4l-1.8,0.4l-2.5-1.1h-0.7h-4.7l-1.4,1.1l-2.5,0.7l-2.5,2.5l-2.1,1.1l-1.8-1.1l0.4-1.8l0.3-1.4l-1.1-2.1l-2.8-3.2l-2.8-2.8
	l-2.5-0.7l-1.8-2.8V155l-1.1-1.8l-1.1-3.2l0.4-2.1l-1.8-2.1l-3.5-0.3l-2.8-0.4l-3.9,1.8l-3.2,0.4l-3.2,0.4l-1.1,1.4h-1.1l-1.1-1.1
	l-2.8-0.7l-3.5-0.7l-2.5-0.7l-2.1-0.3l-2.5,1.4v3.6l1.1,2.1l1.1,1.1l2.5,1.8v1.8l-3.2,0.7l-3.9,0.3h-2.5l-1.4,1.4l-0.3,1.7l-0.4,1.9
	l-1.4,1.4l-3.2-1.1l-1.8,0.7l-0.7,0.7l-2.5,1.1l-1.1,1.8v2.1l-2.1,0.4l-1.1-0.7l-1.1,0.4h-1.4l-0.7-0.7h-1.8l-0.4,1.4v1.8l-2.5,0.7
	l-1.1-0.4l-1.1-1.4l-1.4-0.4h-2.1l-1.8,0.7l-2.5-0.7l-1.4-1.1l-3.2,1.1l-0.7,1.4l-0.7,2.5l-0.7,0.7h-1.1l-1.4-0.7l-1.4,1.1l-0.7,1.4
	h-2.1l-0.7-1.8l-1.1-0.4h-1.4l-0.6-0.6l-0.5-0.4v-2.5l-1.1-2.8l-2.1-2.8l-1.8-2.1l1.8-5v-1.8l2.5-1.4v-1.4l-0.7-1.1l-2.8-2.5
	l-3.2-3.2l-3.2,0.3l-2.5,0.4l-1.4-0.4l-2.5,1.1l-0.7-1.8l-1.8-2.1l-1.4-1.4l-0.7-0.4l-1.4-0.4h-1.8l-2.5-1.4L343,140h-3.2l-2.8-0.7
	l-1.4-0.7l-1.1,1.1l-1.1,1.1l-0.9-0.4l-0.9-0.3l-1.1-1.8l0.7-1.8l-2.8-2.1l-3.6-0.7h-2.5l-2.5-1.8l-1.4-2.1l2.8-5.7l-1.1-3.5v-1.4
	l-0.7-1.1l-2.1,1.1l-3.9,1.4h-3.2l-1.4-1.4l-1.1-1.4l-1.8,1.1h-1.8l-2.5-0.7l-2.8,1.1l-2.1-1.1l-0.7-2.1l-2.1-1.4v-3.2l-1.4-1.8
	l-0.7-2.5l-0.7-2.8l-1.8-0.7l-5-1.4l-2.1-0.3v-1.8l-1.1-1.1l-2.5-1.4l-2.8,0.7l-3.2,0.7l-3.2-1.1l-2.1-1.8L266,95l0.4-1.8l-1.1-1.1
	l-1.4-2.8l-2.1-2.5l-1.4-1.1l-2.1-1.4l-2.5-1.4l-0.4-0.7l0.4-2.5v-2.1l-0.4-1.1l-1.1-1.8v-3.2l-1.1-0.7l-0.3-0.7l-1.1-1.1l-2.1-0.4
	l-4.3-0.3l-2.5-0.4l-0.3-1.4l1.1-1.8v-2.1l-1.1-4.6l-1.4-3.2l-2.5-0.4l-2.8,0.7l-2.5,2.5l-3.5,4.6l-2.5,1.4L222,62l-3.9-0.3
	l-3.2-1.1l-0.4-2.1l-0.7-1.4l-3.2-1.4l-2.1,0.7h-2.8l-3.2-1.4l-1.8-0.7l-3.2-2.5l-3.5-1.1l-3.2-0.3l-3.5-0.4l-2.5-1.1h-1.3H183
	l-2.8-1.1l-0.7-2.1L178,46l-0.3,1.1h-1.4l-0.3-1.1L174.8,43.9z"/>
<path id="background" fill="#E8E8E8" stroke="#000000" stroke-width="3" d="M174.2,41.4l-1.4,0.4l-2.1,0.7l-0.4,1.8l-2.1,2.5
	l-2.1,0.7h-2.8l-1.8-1.4h-2.5l-3.9,0.4l-2.8,1.1l-2.5,1.1l-1.8,1.4l-1.4,3.2l-1.8,0.7l-2.8,0.4l1.1-1.4l-0.7-2.1l-0.7-1.4l-2.1-0.7
	l-3.5,0.7l-2.8,1.4l-1.8,3.2l0.4,2.5l1.8,1.1l1.1,1.4l1.4,1.1v1.8l-2.5,0.7l-2.8,2.5l-0.4,2.8v2.1h2.5l2.5-0.7l2.5,1.1l1.4,2.5
	l1.1,4.3l1.1,3.9l2.1,3.2l2.1,2.8V90l-1.8,2.1l-1.8-0.7l-1.8-0.7l-3.6,2.1l-3.5,2.8l-7.8,0.7l-8.2,2.1l-3.9,2.5l-5.3,3.2l-3.9,5
	l-4.3,6l-1.4,5l-1.4,6.7v2.1l0.4,2.1v0.6v0.5l-3.6,0.7l-7.5-1.8l-3.2-1.4l-1.4-2.1l-2.5-1.8l-2.1,1.1l-1.8,0.7h-2.8l-1.1,1.8
	l-2.5,1.1h-3.5l-2.8,0.7l-2.1,2.5l-1.4,3.2l-2.5,1.1l-2.5,1.4v0.7l-1.1,2.1l-6,3.6l-3.2,2.5l-3.2,1.1l-2.5,1.4l-0.4,2.5l-2.5,0.4
	l-1.8,1.1l-1.1,3.6l-0.4,1.4v2.5l-2.8,1.8l-6.7,2.8l-1.8,2.1l-0.3,1.8l-2.1,1.8l-2.1,1.8l-1.8,3.2l1.1,4.2l-2.1,1.1l-0.7,3.2v2.8
	l2.1,1.4l2.1,1.1v1.8l1.8,1.4l-0.3,1.4l-1.8,1.1l-2.8,0.4h-1.8l-1.1,1.1l1.4,0.3l1.8,0.7l14.6,6l3.5,0.7l2.8,1.4l8.5,3.9l0.4,0.3
	l2.4,1.5l4.3,2.5l3.2,1.4l4.3,2.1l2.8,1.1l1.8,1.1l1.8,1.4l4.3,2.5l3.9,2.8l2.8,2.8l0.7,3.2l1.4,4.6l0.7,3.9l1.1,1.8l3.9,1.8
	l4.6,0.4l5-1.1h3.2l2.8,0.4l3.2-0.4l5-1.1l3.5,0.4l8.2,1.4l5,2.1l0.1,0l5.3,1.4h4.3l3.2,1.1l4.3,1.4l4.6,0.4l9.2-0.4l6.7,0.4h4.6h6
	l4.3,0.3l5.7,2.1l3.5,0.7l2.1,0.4l2.5-1.1h1.4h2.5l3.2,1.4l6.4,3.5l14.2,7.1l7.5,3l1.3,0.5l5.3,2.8l3.6,2.1l3.2,1.4l4.6,3.9l6.4,2.5
	l5.7,2.5l7.8,3.5l7.1,4.2l4.6,1.8l6.7,2.8h2.8l1.4,0.7l0.7,2.1l1.4,0.7l3.9,1.1l2.5,1.8l0.1,0.1l2.8,2.8l5.3,1.8l0.2,0l5.2,1
	l5.7,2.1l10.3,1.8l8.5,1.8l6.4,0.7l5.7,0.4l4.6,1.4l5.3,2.1l8.9,1.8l6.7,2.5l2.1,1l1.1-1.4l-1.1-1.1l-1.1-1.1l-0.3-1.1l-1.8-1.1
	l-8.9-2.1l-3.9-1.4l-1.1-0.7l1.4-0.7l0.3-1.4l-1.4-1.8l-6.4-5.7H346l-4.3,0.7l-2.8,1.4l-1.8,1.4l-1.1,0.4l-1.4-0.4l-2.1-1.1l-6-0.3
	l-3.2-0.7l-2.1-1.8v-1.1l1.8-0.7l3.5,0.4l2.1-0.7l2.1,0.3l4.3,1.8l2.5-1.1l1.8-1.1v-1.8l-0.7-0.7l-0.3-1.1l1.8-0.3l4.3,1.8l7.8,0.7
	l5.7,2.1l2.5,2.8l1.4,2.1l-0.4,2.5l0.7,2.1c0,0,1.4,1.4,2.8,1.4c1.4,0,7.5,1.4,7.5,1.4h2.8l0.4-1.1l-2.1-1.8l-3.2-2.8l-1.1-2.1
	l0.4-2.1l1.4-1.1l2.8,0.4l3.6,3.9l4.3,4.6l2.1,3.5l-0.7,1.1h-0.7l-0.7,2.5v3.5l3.6,1.4h4.3l3.2-0.3l1.1-1.1l-1.4-1.1l-0.7-0.7
	l0.7-0.7l4.6-1.1l1.1-1.1l-0.7-1.1l-1.4-0.7v-0.7l2.1-1.1h3.5l3.2,1.8l0.4,2.1l-1.8,1.4l-2.5,1.8l1.8,1.8l6.7,0.7l13.1,1.1l6.4,1.1
	h3.5l2.8-1.1l3.5-0.7l8.5,0.4l3.6,0.3l0.2-0.1l1.9-1l1.1-0.7h2.9h1l11,0.4l9.9,1.4l7.8,1.1l7.8,0.7l3.5-0.3l2.1-1.4l-0.7-0.7
	l-2.5-1.4l-0.7-1v-0.7l-1.1-0.7l-1.4-0.4l-1.4-1.8l1.1-1.1l5-1.1l2.8-1.4l5-2.1l2.1-1.8l3.6-0.7l5.3-2.8l3.2-2.8l2.8-5l2.1-3.5
	l-1.8-1.8l-1.4-0.7l-3.2-1.4l-0.4-1.1v-0.7l-1.1-1.4l-6.7-2.5l-2.1-2.1l-1.4-0.7l-0.7-2.1l-1.1-4.6l2.5-7.1l1.8-3.2l2.5-0.7h2.5
	l-0.7,1.4v1.8l2.8,0.7h2.8l3.9,1.1l2.1-1.4l0.4-1.4l2.1-1.1l0.7-1.4l2.5-1.4l2.5-0.3l2.1-1.1l2.1-0.7l0.4-2.5l1.1-3.5l-1.1-2.5
	l-3.2-2.5l-2.1-0.7l-0.7-2.5l-0.7,0.4l-2.1,1.1h-2.1l-0.7-1.1l-1.4-0.4l-2.1-0.7V249l2.5-1.1v-2.1l-0.7-2.5l0.3-1.8v-1.4V238
	l2.1-1.8l0.4-1.8l1.4-1.4l1.4-2.1l1.1-4.6l0.7-10.7l2.1-4.6l1.8-3.9l0.3-4.6l-0.3-1.8l1.4-2.8l1.4-1.8l1.4-2.8l1.8-4.3l-0.3-2.1
	l-0.4-1.4l-0.7-0.7l-2.8-2.1l-2.5-2.5l-2.5-6l-2.1-3.2l-3.9-1.1l-1.4-2.1l-2.1-1.4l-0.3-2.5l-0.7-0.7l-5.7-0.4l-3.9,0.7l-1.8,1.8h-5
	l-3.2-0.7l-2.5,0.4l-1.8,1.1l-2.1,0.3H495l-1.8,0.4l-2.5-1.1h-0.7h-4.7l-1.4,1.1l-2.5,0.7l-2.5,2.5l-2.1,1.1l-1.8-1.1l0.4-1.8
	l0.3-1.4l-1.1-2.1l-2.8-3.2l-2.8-2.8l-2.5-0.7l-1.8-2.8v-2.5l-1.1-1.8l-1.1-3.2l0.4-2.1l-1.8-2.1l-3.5-0.3l-2.8-0.4l-3.9,1.8
	l-3.2,0.4l-3.2,0.4l-1.1,1.4h-1.1l-1.1-1.1l-2.8-0.7l-3.5-0.7l-2.5-0.7l-2.1-0.3l-2.5,1.4v3.6l1.1,2.1l1.1,1.1l2.5,1.8v1.8l-3.2,0.7
	l-3.9,0.3H423l-1.4,1.4l-0.3,1.7l-0.4,1.9l-1.4,1.4l-3.2-1.1l-1.8,0.7l-0.7,0.7l-2.5,1.1l-1.1,1.8v2.1l-2.1,0.4L407,167l-1.1,0.4
	h-1.4l-0.7-0.7H402l-0.4,1.4v1.8l-2.5,0.7l-1.1-0.4l-1.1-1.4l-1.4-0.4h-2.1l-1.8,0.7l-2.5-0.7l-1.4-1.1l-3.2,1.1l-0.7,1.4l-0.7,2.5
	l-0.7,0.7h-1.1l-1.4-0.7l-1.4,1.1l-0.7,1.4h-2.1L375,173l-1.1-0.4h-1.4l-0.6-0.6l-0.5-0.4v-2.5l-1.1-2.8l-2.1-2.8l-1.8-2.1l1.8-5
	v-1.8l2.5-1.4v-1.4l-0.7-1.1l-2.8-2.5l-3.2-3.2l-3.2,0.3l-2.5,0.4l-1.4-0.4l-2.5,1.1l-0.7-1.8l-1.8-2.1l-1.4-1.4l-0.7-0.4l-1.4-0.4
	h-1.8l-2.5-1.4l-1.8-1.4h-3.2l-2.8-0.7l-1.4-0.7l-1.1,1.1l-1.1,1.1l-0.9-0.4l-0.9-0.3l-1.1-1.8l0.7-1.8l-2.8-2.1l-3.6-0.7h-2.5
	l-2.5-1.8l-1.4-2.1l2.8-5.7l-1.1-3.5v-1.4l-0.7-1.1l-2.1,1.1l-3.9,1.4h-3.2l-1.4-1.4l-1.1-1.4l-1.8,1.1h-1.8l-2.5-0.7l-2.8,1.1
	l-2.1-1.1l-0.7-2.1l-2.1-1.4v-3.2L292,107l-0.7-2.5l-0.7-2.8l-1.8-0.7l-5-1.4l-2.1-0.3v-1.8l-1.1-1.1l-2.5-1.4l-2.8,0.7l-3.2,0.7
	l-3.2-1.1l-2.1-1.8l-1.4-1.1l0.4-1.8l-1.1-1.1l-1.4-2.8l-2.1-2.5l-1.4-1.1l-2.1-1.4l-2.5-1.4l-0.4-0.7l0.4-2.5v-2.1l-0.4-1.1
	l-1.1-1.8V69l-1.1-0.7l-0.3-0.7l-1.1-1.1l-2.1-0.4l-4.3-0.3l-2.5-0.4l-0.3-1.4l1.1-1.8v-2.1l-1.1-4.6l-1.4-3.2l-2.5-0.4l-2.8,0.7
	l-2.5,2.5l-3.5,4.6l-2.5,1.4l-5.3-1.8l-3.9-0.3l-3.2-1.1l-0.4-2.1l-0.7-1.4l-3.2-1.4l-2.1,0.7H205l-3.2-1.4l-1.8-0.7l-3.2-2.5
	l-3.5-1.1l-3.2-0.3l-3.5-0.4l-2.5-1.1h-1.3h-0.4l-2.8-1.1l-0.7-2.1l-1.4,0.4l-0.3,1.1h-1.4l-0.3-1.1L174.2,41.4z"/>
<g id="d14">
	<path id="_x31_4" fill="none" stroke="#000000" stroke-width="1.5" d="M471.9,237.4l-0.6,2.1l0.4,1.8l1.1,1.4v2.8l-1.1,6.7
		l-1.8,3.2l-1.4,3.2l0.4,2.1v1.4l1.4,4.3l1.1,2.8l1.1,2.5l0.4,3.2l-1.4,2.5l-1.4,2.5l-0.7,1.8l-1.8,0.3l2.5,2.1l1.1,1.1l0.7,2.5
		l-2.8,3.2l-0.7,1.1l1.1,2.1v2.1v3.2l-1.1,8.2l-9.2,9.2l-1.8,2.1v2.8l-1,3.2h1l11,0.4l9.9,1.4l7.8,1.1l7.8,0.7l3.5-0.3l2.1-1.4
		l-0.7-0.7l-2.5-1.4l-0.7-1v-0.7l-1.1-0.7l-1.4-0.4l-1.4-1.8l1.1-1.1l5-1.1l2.8-1.4l5-2.1l2.1-1.8l3.6-0.7l5.3-2.8l3.2-2.8l2.8-5
		l2.1-3.5l-1.8-1.8l-1.4-0.7l-3.2-1.4l-0.4-1.1V292l-1.1-1.4l-6.7-2.5l-2.1-2.1l-1.4-0.7l-0.7-2.1l-1.1-4.6l2.5-7.1l1.8-3.2l2.5-0.7
		h2.5l-0.7,1.4v1.8l2.8,0.7h2.8l3.9,1.1l2.1-1.4l0.4-1.4l2.1-1.1l0.7-1.4l2.5-1.4l2.5-0.3l2.1-1.1l2.1-0.7l0.4-2.5l1.1-3.5l-1.1-2.5
		l-3.2-2.5l-2.1-0.7l-0.7-2.5l-0.7,0.4l-2.1,1.1h-2.1l-0.7-1.1l-1.4-0.4l-2.1-0.7v-1.1l2.5-1.1v-2.1l-0.7-2.5l0.3-1.8v-1.4v-2.1
		l2.1-1.8l0.4-1.8l1.4-1.4l1.4-2.1l1.1-4.6l0.7-10.7l2.1-4.6l1.8-3.9l0.3-4.6l-0.3-1.8l1.4-2.8l1.4-1.8l1.4-2.8l1.8-4.3l-0.3-2.1
		l-0.4-1.4l-0.7-0.7l-2.8-2.1l-2.5-2.5l-2.5-6l-2.1-3.2l-3.9-1.1l-1.4-2.1l-2.1-1.4l-0.3-2.5l-0.7-0.7l-5.7-0.4l-3.9,0.7l-1.8,1.8
		h-5l-3.2-0.7l-2.5,0.4l-1.8,1.1l-2.1,0.3h-1.4l-1.8,0.4l-2.5-1.1h-0.7l1.4,2.8l2.5,3.5l-1.1,2.5l-1.1,3.5l0.4,2.1l1.8,2.8l-0.7,3.5
		l-9.6,13.1l-0.7,1.8l1.8-0.7l1.4-0.4h2.1l1.1,1.4l1.4,1.8l-1.1,3.5l-0.7,2.8l-0.3,3.9l1.1,1.1l-0.7,2.8l-2.8,2.5l-1.8,4.6v4.2
		l-2.1,2.5l-2.8,2.5l-1.8,1.8l-1.4,1.8l-2.8,1.1L471.9,237.4z"/>
	<text transform="matrix(1 0 0 1 498.0371 253.0928)" font-family="'MyriadPro-Regular'" font-size="7.7138">La Unión</text>
</g>
<g id="d13">
	<path id="_x31_3_1_" fill="none" stroke="#000000" stroke-width="1.5" d="M420.6,157.4l4.9,17.8l-7.5,4.3l1.4,2.8l0.7,2.5l0.7,1.8
		l0.7,2.5l1.8,2.1l2.5,0.7l1.8,1.4l1.1,1.1v3.5l-0.4,2.5l-2.1,1.1h-2.5H422l-2.8,1.1l-0.4,2.5v3.5l1.1,4.3l2.5,1.1l2.1,1.8l2.8,2.5
		l1.8,3.2l2.8,1.4l0.3,2.1l1.1,1.4l1.8,0.7l2.1-1.4h1.8l0.7,0.7l0.7,1.8l1.8-0.7l1.1-1.1h1.8l3.5,1.8l0.4,2.1l-1.1,1.8l-1.1,1.8
		l1.4,1.8l2.5,1.4l3.5,1.4l18.5-1.1l2.8-1.1l1.4-1.8l1.8-1.8l2.8-2.5l2.1-2.5v-4.2l1.8-4.6l2.8-2.5l0.7-2.8l-1.1-1.1l0.3-3.9
		l0.7-2.8l1.1-3.5l-1.4-1.8l-1.1-1.4h-2.1l-1.4,0.4l-1.8,0.7l0.7-1.8l9.6-13.1l0.7-3.5l-1.8-2.8l-0.4-2.1l1.1-3.5l1.1-2.5l-2.5-3.5
		l-1.4-2.8h-4.7l-1.4,1.1l-2.5,0.7l-2.5,2.5l-2.1,1.1l-1.8-1.1l0.4-1.8l0.3-1.4l-1.1-2.1l-2.8-3.2l-2.8-2.8l-2.5-0.7l-1.8-2.8v-2.5
		l-1.1-1.8l-1.1-3.2l0.4-2.1l-1.8-2.1l-3.5-0.3l-2.8-0.4l-3.9,1.8l-3.2,0.4l-3.2,0.4l-1.1,1.4h-1.1l-1.1-1.1l-2.8-0.7l-3.5-0.7
		l-2.5-0.7l-2.1-0.3l-2.5,1.4v3.6l1.1,2.1l1.1,1.1l2.5,1.8v1.8l-3.2,0.7l-3.9,0.3h-2.5l-1.4,1.4L420.6,157.4z"/>
	<text transform="matrix(1 0 0 1 455.9111 196.5254)"><tspan x="0" y="0" font-family="'MyriadPro-Regular'" font-size="7.7138">M</tspan><tspan x="6.2" y="0" font-family="'MyriadPro-Regular'" font-size="7.7138">o</tspan><tspan x="10.5" y="0" font-family="'MyriadPro-Regular'" font-size="7.7138">r</tspan><tspan x="13" y="0" font-family="'MyriadPro-Regular'" font-size="7.7138">azán</tspan></text>
</g>
<g id="d12">
	<path id="_x31_2_1_" fill="none" stroke="#000000" stroke-width="1.5" d="M471.9,237.4l-17.6,1l-3.5-1.4l-2.5-1.4l-1.4-1.8l1.1-1.8
		l1.1-1.8l-0.4-2.1l-3.5-1.8h-1.8l-1.1,1.1l-1.8,0.7l-0.7-1.8l-0.7-0.7h-1.8l-2.1,1.4l-1.8-0.7l-1.1-1.4l-0.3-2.1l-2.8-1.4l-1.8-3.2
		l-2.8-2.5l-2.1-1.8l-2.5-1.1l-1.1-4.3v-3.5l0.4-2.5l2.8-1.1h1.8h2.5l2.1-1.1l0.4-2.5v-3.5l-1.1-1.1l-1.8-1.4l-2.5-0.7l-1.8-2.1
		l-0.7-2.5l-0.7-1.8l-0.7-2.5l-1.4-2.8l7.5-4.3l-4.9-17.8l-0.4,1.9l-1.4,1.4l-3.2-1.1l-1.8,0.7l-0.7,0.7l-2.5,1.1l-1.1,1.8v2.1
		l-2.1,0.4l-1.1-0.7l-1.1,0.4h-1.4l-0.7-0.7h-1.8l-0.4,1.4v1.8l-2.5,0.7l-1.1-0.4l-1.1-1.4l-1.4-0.4h-2.1l-1.8,0.7l-2.5-0.7
		l-1.4-1.1l-3.2,1.1l-0.7,1.4l-0.7,2.5l-0.7,0.7h-1.1l-1.4-0.7l-1.4,1.1l-0.7,1.4h-2.1l-0.7-1.8l-1.1-0.4h-1.4l-0.6-0.6l-0.8,0.6
		l-1.1,1.4l-0.3,1.8v1.1l-0.7,1.1v1.8v1.8l-1.1,1.1l-2.5,1.8v1.8l0.7,2.5l-1.1,1.8l-2.5,1.8l-0.7,1.8l0.3,3.2v2.1l-1.1,2.1l1.1,1.8
		l1.4,1.4l1.1,0.7l1.1-1.4h1.8l0.3,1.1l-0.7,2.5l2.8,2.1l2.5,0.3l2.8,1.4l2.5-1.1l2.8-0.4l1.4,1.8l1.8,2.5l2.5,2.5l3.2,1.4h2.5
		l2.1-1.4l1.1-0.3l1.1,2.5v2.8l-1.4,2.5l0.7,2.1l1.8,2.1v1.1l-0.7,1.4l-2.1,1.8l-1.1,1.8v4.3l1.4,3.5l0.7,1.8v4.6l1.8,4.6v1.8
		l-1.8,0.7l-1.1,1.4v2.5l-1.1,3.2l-1.1,2.1l-1.1,1.8v2.1l1.8-0.3l1.4-1.1l0.4,1.1v1.8v3.9l-0.4,3.5l-0.7,3.2l1.8,1.4l3.6,2.1
		l2.1,0.7l0.4,1.8l-0.4,2.5h2.1h2.1l2.1-0.7l1.4,0.7l2.1-1.4l1.8,0.7l1.1,1.4l-1.1,1.8l1.1,1.4l-0.7,2.1l-5.7,5.7l-0.7,2.1l1.4,2.8
		v2.1l2.1-0.4h2.8l2.5-0.3l-0.4-1.4l-1.1-1.4l-0.4-1.8l1.1-4.3l0.7-1.4l3.2-1.8l1.8,0.3l1.1,0.7l2.8,0.4l1.4-0.7l1.8,0.7l-1.1,1.8
		l2.1,1.8l1.1,1.4l1.1,1.4l-0.7,2.8l-0.7,2.8l-0.7,2.1l1.4,1.1h3.5l4.3,1.4l2.8,2.1l4.6,4.3l3.2,4.6l2,3.4l1.9-1l1.1-0.7h2.9l1-3.2
		V319l1.8-2.1l9.2-9.2l1.1-8.2v-3.2v-2.1l-1.1-2.1l0.7-1.1l2.8-3.2l-0.7-2.5l-1.1-1.1l-2.5-2.1l1.8-0.3l0.7-1.8l1.4-2.5l1.4-2.5
		l-0.4-3.2l-1.1-2.5l-1.1-2.8l-1.4-4.3v-1.4l-0.4-2.1l1.4-3.2l1.8-3.2l1.1-6.7v-2.8l-1.1-1.4l-0.4-1.8L471.9,237.4z"/>
	<text transform="matrix(1 0 0 1 426.2871 252.4512)"><tspan x="0" y="0" font-family="'MyriadPro-Regular'" font-size="7.7138">S</tspan><tspan x="3.8" y="0" font-family="'MyriadPro-Regular'" font-size="7.7138">an </tspan><tspan x="13.5" y="0" font-family="'MyriadPro-Regular'" font-size="7.7138">M</tspan><tspan x="19.8" y="0" font-family="'MyriadPro-Regular'" font-size="7.7138">iguel</tspan></text>
</g>
<g id="d11">
	<path id="_x31_1_2_" fill="none" stroke="#000000" stroke-width="1.5" d="M367.8,207.1l0.2,0.5l0.7,1.4l1.4,1.1l-1.4,1.8l-2.1,1.1
		l-3.9,2.5l-3.9,2.1l-2.5,3.5l-1.1,3.6l-2.5,1.4l-0.4,2.1l-2.5,2.5l-4.6,1.4l-2.5-0.4h-2.5l-1.8,2.5l-1.1,1.8v1.4l-1.1,2.1h-1.8
		l-3.2,1.8l-1.1,3.9v3.2l-1.1,4.6l-0.7,3.2l-0.4,3.9l-2.1,1.4l-0.4,3.5l-0.7,2.1l-3.6,3.2l-2.5,4.3l-2.5,6.4v2.5l1.4,2.1l0.7,1.8
		l-2.1,1.4l-2.1,2.1l-2.1,2.5l-1.4,2.8l-2.1,1.4l-1.8,0.3l-1.4,0.7l-2.1,1.8l-2.1,1.1l-0.7,2.1l1.1,3.6l0.2,0.7l5.2,1l5.7,2.1
		l10.3,1.8l8.5,1.8l6.4,0.7l5.7,0.4l4.6,1.4l5.3,2.1l8.9,1.8l6.7,2.5l2.1,1l1.1-1.4l-1.1-1.1l-1.1-1.1l-0.3-1.1L368,319l-8.9-2.1
		l-3.9-1.4l-1.1-0.7l1.4-0.7l0.3-1.4l-1.4-1.8l-6.4-5.7h-2.8l-4.3,0.7l-2.8,1.4l-1.8,1.4l-1.1,0.4l-1.4-0.4l-2.1-1.1l-6-0.3
		l-3.2-0.7l-2.1-1.8v-1.1l1.8-0.7l3.5,0.4l2.1-0.7l2.1,0.3l4.3,1.8l2.5-1.1l1.8-1.1v-1.8l-0.7-0.7l-0.3-1.1l1.8-0.3l4.3,1.8l7.8,0.7
		l5.7,2.1l2.5,2.8l1.4,2.1l-0.4,2.5l0.7,2.1c0,0,1.4,1.4,2.8,1.4c1.4,0,7.5,1.4,7.5,1.4h2.8l0.4-1.1l-2.1-1.8l-3.2-2.8l-1.1-2.1
		l0.4-2.1l1.4-1.1l2.8,0.4l3.6,3.9l4.3,4.6l2.1,3.5l-0.7,1.1h-0.7l-0.7,2.5v3.5l3.6,1.4h4.3l3.2-0.3l1.1-1.1l-1.4-1.1l-0.7-0.7
		l0.7-0.7l4.6-1.1l1.1-1.1l-0.7-1.1L395,318v-0.7l2.1-1.1h3.5l3.2,1.8l0.4,2.1l-1.8,1.4l-2.5,1.8l1.8,1.8l6.7,0.7l13.1,1.1l6.4,1.1
		h3.5l2.8-1.1l3.5-0.7l8.5,0.4l3.6,0.3l0.2-0.1l-2-3.4l-3.2-4.6l-4.6-4.3l-2.8-2.1l-4.3-1.4h-3.5l-1.4-1.1l0.7-2.1l0.7-2.8l0.7-2.8
		l-1.1-1.4l-1.1-1.4l-2.1-1.8l1.1-1.8l-1.8-0.7l-1.4,0.7l-2.8-0.4l-1.1-0.7l-1.8-0.3l-3.2,1.8l-0.7,1.4l-1.1,4.3l0.4,1.8l1.1,1.4
		l0.4,1.4l-2.5,0.3h-2.8l-2.1,0.4v-2.1l-1.4-2.8l0.7-2.1l5.7-5.7l0.7-2.1l-1.1-1.4l1.1-1.8l-1.1-1.4l-1.8-0.7l-2.1,1.4l-1.4-0.7
		l-2.1,0.7h-2.1h-2.1l0.4-2.5l-0.4-1.8l-2.1-0.7L395,281l-1.8-1.4l0.7-3.2l0.4-3.5V269v-1.8l-0.4-1.1l-1.4,1.1l-1.8,0.3v-2.1
		l1.1-1.8l1.1-2.1l1.1-3.2v-2.5l1.1-1.4l1.8-0.7v-1.8l-1.8-4.6v-4.6l-0.7-1.8l-1.4-3.5v-4.3l1.1-1.8l2.1-1.8l0.7-1.4v-1.1L395,225
		l-0.7-2.1l1.4-2.5v-2.8l-1.1-2.5l-1.1,0.3l-2.1,1.4H389l-3.2-1.4l-2.5-2.5l-1.8-2.5l-1.4-1.8l-2.8,0.4l-2.5,1.1l-2.8-1.4l-2.5-0.3
		L367.8,207.1z"/>
	<text transform="matrix(1 0 0 1 359.688 264.6641)"><tspan x="0" y="0" font-family="'MyriadPro-Regular'" font-size="7.7138">U</tspan><tspan x="4.9" y="0" font-family="'MyriadPro-Regular'" font-size="7.7138">sulután</tspan></text>
</g>
<g id="d10">
	<path id="_x31_0_2_" fill="none" stroke="#000000" stroke-width="1.5" d="M281.1,213.5v2.2l0.7,0.7l0.7,1.8v4.3l1.1,5l1.8,1.8h2.5
		l4.6,1.8l1.4,0.3v1.8l1.8,1.4l1.8,3.2v0.7l1.4,3.9l1.4,2.1l1.1,1.4l-1.8,3.5l-1.8,3.2l-0.3,4.6l0.7,4.3l1.8,2.5l1.4,2.1l0.7,0.7
		l1.1,1.8l2.1,1.8l0.7,2.1l1.1,3.6l-1.4,5.3v1.8l-2.1,0.4l-1.8,1.1v2.1l1.1,1.8l1.4,2.1l-1.4,1.1l-2.1,1.1l-2.8,2.8l-2.8,3.9l-1.3,4
		l2.8,2.8l5.3,1.8l0.2,0l-0.2-0.7l-1.1-3.6l0.7-2.1l2.1-1.1l2.1-1.8l1.4-0.7l1.8-0.3l2.1-1.4l1.4-2.8l2.1-2.5l2.1-2.1l2.1-1.4
		l-0.7-1.8l-1.4-2.1V281l2.5-6.4l2.5-4.3l3.6-3.2l0.7-2.1l0.4-3.5l2.1-1.4l0.4-3.9l0.7-3.2l1.1-4.6v-3.2l1.1-3.9l3.2-1.8h1.8
		l1.1-2.1V236l1.1-1.8l1.8-2.5h2.5l2.5,0.4l4.6-1.4l2.5-2.5l0.4-2.1l2.5-1.4l1.1-3.6l2.5-3.5l3.9-2.1l3.9-2.5l2.1-1.1l1.4-1.8
		l-1.4-1.1l-0.7-1.4l-0.2-0.5l-1.2-0.9l0.7-2.5l-0.3-1.1h-1.8l-1.1,1.4l-1.1-0.7l-1.4-1.4l-1.1-1.8l1.1-2.1v-0.3h-0.3l-6.7-0.7
		l-2.5-0.4h-3.2l-2.1-2.1l0.7-1.8l-1.4-0.4l-2.5-0.7l-3.5-1.4l-3.2-2.1l-2.1-1.8l-2.5-0.7l-2.8,1.4l-2.1-0.7l-3.6,0.7l-2.1-0.4
		l-2.5-1.1l-2.1-0.4l-2.1-0.7h-0.7l-2.1,1.8h-1.8l-0.7,0.7l-2.1,0.7l-3.2,1.8h-2.5l-2.8,0.4l-0.3,1.1l-1.8,0.4l-2.1,1.1h-2.5
		l-1.8-0.4v1.5l-0.7,2.8v3.2l-2.1,3.2l-0.7,2.5l0.7,1.4l1.1,2.8l-1.1,0.7H285l-0.7,1.1l-1.4,2.1L281.1,213.5z"/>
	<text transform="matrix(1 0 0 1 317.0234 226.7383)"><tspan x="0" y="0" font-family="'MyriadPro-Regular'" font-size="7.7138">S</tspan><tspan x="3.8" y="0" font-family="'MyriadPro-Regular'" font-size="7.7138">an</tspan><tspan x="11.8" y="0" font-family="'MyriadPro-Regular'" font-size="7.7138"> </tspan><tspan x="13.2" y="0" font-family="'MyriadPro-Regular'" font-size="7.7138">V</tspan><tspan x="17.4" y="0" font-family="'MyriadPro-Regular'" font-size="7.7138">i</tspan><tspan x="19.2" y="0" font-family="'MyriadPro-Regular'" font-size="7.7138">c</tspan><tspan x="22.6" y="0" font-family="'MyriadPro-Regular'" font-size="7.7138">e</tspan><tspan x="26.4" y="0" font-family="'MyriadPro-Regular'" font-size="7.7138">n</tspan><tspan x="30.7" y="0" font-family="'MyriadPro-Regular'" font-size="7.7138">t</tspan><tspan x="33.2" y="0" font-family="'MyriadPro-Regular'" font-size="7.7138">e</tspan></text>
</g>
<g id="d09">
	<path id="_x30_9" fill="none" stroke="#000000" stroke-width="1.5" d="M331.3,136.6l-0.5,0.4l-4.3,2.1l-1.1,0.4h-1.8l-1.4,0.7
		l-2.1,1.1l-1.1-0.7l-2.1-0.4l-2.5,0.4l-1.4,0.3h-1.1l-2.5,3.2l-1.8,1.4h-2.1l-2.1,1.1l-2.8,0.7l-0.7-0.7l-2.1,0.7l-1.1,2.5
		l-2.5,0.4l-1.8-1.1l-3.2,1.1l-1.1,1.8l-1.1,0.7l-1.4,0.7l-2.1,1.4c0.1,0,0.2,0.1,0.3,0.1c0.1,0.1,0.1,0.1,0.1,0.2c0,0-0.1,0-0.2,0
		c-0.4,0-1.3-0.3-1.3-0.3h1.1c-0.3-0.2-0.6-0.3-1.4-0.7c-1-0.4-1.7-0.8-2.3-1.2c-0.6-0.3-1-0.7-1.3-0.9c-0.6-0.5-0.7-0.8-0.7-0.8
		l-2.5,0.3l-2.1,0.4l-1.8,1.4l-1.8,1.1l-1.8,1.8l-2.8,2.5l-2.8,2.1l-0.7,2.1l1.4,2.5l-0.7,1.8l-0.4,2.1l1.1,1.8l2.5,1.8l1.1,1.4h2.8
		l2.1,1.1l1.1,0.4l1.1,1.4l-0.4,0.7l1.1,1.4h2.1l2.1,1.4l-1.4,1.8l-1.8,1.4l1.8,1.8l2.5,0.7l4.3,1.1l2.1,0.3l3.2,3.9l2.8,0.7h2.5
		l2.1-1.1l1.8-0.4l0.3-1.1l2.8-0.4h2.5l3.2-1.8l2.1-0.7l0.7-0.7h1.8l2.1-1.8h0.7l2.1,0.7l2.1,0.4l2.5,1.1l2.1,0.4l3.6-0.7l2.1,0.7
		l2.8-1.4l2.5,0.7l2.1,1.8l3.2,2.1l3.5,1.4l2.5,0.7l1.4,0.4l-0.7,1.8l2.1,2.1h3.2l2.5,0.4l6.7,0.7h0.3v-1.8l-0.3-3.2l0.7-1.8
		l2.5-1.8l1.1-1.8l-0.7-2.5v-1.8l2.5-1.8l1.1-1.1v-1.8v-1.8l0.7-1.1v-1.1l0.3-1.8l1.1-1.4l0.8-0.6l-0.5-0.4v-2.5l-1.1-2.8l-2.1-2.8
		l-1.8-2.1l1.8-5v-1.8l2.5-1.4v-1.4l-0.7-1.1l-2.8-2.5l-3.2-3.2l-3.2,0.3l-2.5,0.4l-1.4-0.4l-2.5,1.1l-0.7-1.8l-1.8-2.1l-1.4-1.4
		l-0.7-0.4l-1.4-0.4H346l-2.5-1.4l-1.8-1.4h-3.2l-2.8-0.7l-1.4-0.7l-1.1,1.1l-1.1,1.1L331.3,136.6z"/>
	<text transform="matrix(1 0 0 1 315.4775 167.5986)"><tspan x="0" y="0" font-family="'MyriadPro-Regular'" font-size="7.7138">C</tspan><tspan x="4.4" y="0" font-family="'MyriadPro-Regular'" font-size="7.7138">abañas</tspan></text>
</g>
<g id="d08">
	<path id="_x30_8_1_" fill="none" stroke="#000000" stroke-width="1.5" d="M253,205.8h-3.5l-4.2-0.3l-3.9,0.7l-1.8,1.4l-1.8,1.8
		l0.4,3.2l1.1,1.4v1.8l-0.7,2.1l1.1,1.1v1.8l-0.4,1.4l-2.1,3.2l-2.8,1.4l-1.8-0.3l-5,0.3h-3.2l-0.7,1.1l0.7,2.1l0.7,0.7l0.7,1.4v1.4
		l1.1,0.7l0.7,1.1l0.7,2.1l-0.3,2.5l1.1,1.1l-0.4,1.1l-1.1,0.7l-1.1,1.1v2.5l-0.7,1.4l-2.1,2.1l0.7,1.8v2.5l0.7,1.8l1.1,1.4l0.7,0.7
		v0.7h-2.5l-1.1,1.4l0.7,1.8l1.1,1.1v2.8l-0.4,2.5l-0.3,0.5l1.3,0.5l5.3,2.8l3.6,2.1l3.2,1.4l4.6,3.9l6.4,2.5l5.7,2.5l7.8,3.5
		l7.1,4.2l4.6,1.8l6.7,2.8h2.8l1.4,0.7l0.7,2.1l1.4,0.7l3.9,1.1l2.5,1.8l0.1,0.1l1.3-4l2.8-3.9l2.8-2.8l2.1-1.1l1.4-1.1l-1.4-2.1
		l-1.1-1.8v-2.1l1.8-1.1l2.1-0.4v-1.8l1.4-5.3l-1.1-3.6l-0.7-2.1l-2.1-1.8l-1.1-1.8l-0.7-0.7l-1.4-2.1l-1.8-2.5l-0.7-4.3l0.3-4.6
		l1.8-3.2l1.8-3.5l-1.1-1.4l-1.4-2.1l-1.4-3.9v-0.7l-1.8-3.2l-1.8-1.4v-1.8l-1.4-0.3l-4.6-1.8h-2.5l-1.8-1.8l-1.1-5v-4.3l-0.7-1.8
		l-0.7-0.7v-2.2l-0.7,0.1h-3.9l-2.8,2.1v1.4l-0.7,2.5h-2.1l-3.6-1.1l-2.5-0.7l-0.7-1.8l-1.8-1.8l-1.8,0.7l-3.2-0.7L253,205.8z"/>
	<text transform="matrix(1 0 0 1 260.6724 249.8789)"><tspan x="0" y="0" font-family="'MyriadPro-Regular'" font-size="7.7138">La </tspan><tspan x="9" y="0" font-family="'MyriadPro-Regular'" font-size="7.7138">P</tspan><tspan x="12.9" y="0" font-family="'MyriadPro-Regular'" font-size="7.7138">az</tspan></text>
</g>
<g id="d07">
	<path id="_x30_7" fill="none" stroke="#000000" stroke-width="1.5" d="M229.2,125.9v1.1l-1.8,3.2l-2.5,2.1v2.1v2.1v2.8l-1.1,3.9
		l-1.1,2.8l-0.4,3.5l1.4,3.5l2.8,4.3l2.5,2.5l1.8,1.4l1.1,1.8l1.4,1.1l-1.4,1.4l-3.2,2.8l-1.1,0.4h-1.4l-1.1,1.4l1.1,2.5l0.7,1.8
		l1.4,1.1l1.1-1.1h2.5l2.5,1.8v2.5l1.4,2.8l1.8,1.8l1.8,2.1l1.4,0.3l0.7-1.1l2.1,0.4l3.5,9.6l5.7,11l4.3,8.5l3.2,0.7l1.8-0.7
		l1.8,1.8l0.7,1.8l2.5,0.7l3.6,1.1h2.1l0.7-2.5v-1.4l2.8-2.1h3.9l2.5-0.4l1.4-2.1l0.7-1.1h2.5l1.1-0.7l-1.1-2.8l-0.7-1.4l0.7-2.5
		l2.1-3.2v-3.2l0.7-2.8v-1.5l-1.1-0.3l-3.2-3.9l-2.1-0.3l-4.3-1.1l-2.5-0.7l-1.8-1.8l1.8-1.4l1.4-1.8l-2.1-1.4h-2.1l-1.1-1.4
		l0.4-0.7l-1.1-1.4l-1.1-0.4l-2.1-1.1h-2.8l-1.1-1.4L263,171l-1.1-1.8l0.4-2.1l0.7-1.8l-1.4-2.5l0.7-2.1l2.8-2.1l2.8-2.5l1.8-1.8
		l1.3-0.8l-1.7-1.3h-2.1h-2.1h-1.8l-3.2-0.7l-2.5-1.8l-2.1-3.2l-1.1-3.9l-0.7-4.3l-1.1-3.2l-1.8-3.2l-3.2-2.5l-5-1.1l-4.6-1.4
		l-3.9-1.1h-3.9H229.2z"/>
	<text transform="matrix(1 0 0 1 255.5762 179.8125)"><tspan x="0" y="0" font-family="'MyriadPro-Regular'" font-size="7.7138">C</tspan><tspan x="4.4" y="0" font-family="'MyriadPro-Regular'" font-size="7.7138">u</tspan><tspan x="8.6" y="0" font-family="'MyriadPro-Regular'" font-size="7.7138">z</tspan><tspan x="11.9" y="0" font-family="'MyriadPro-Regular'" font-size="7.7138">c</tspan><tspan x="15.3" y="0" font-family="'MyriadPro-Regular'" font-size="7.7138">a</tspan><tspan x="19" y="0" font-family="'MyriadPro-Regular'" font-size="7.7138">tlán</tspan></text>
</g>
<g id="d06">
	<path id="_x30_6_1_" fill="none" stroke="#000000" stroke-width="1.5" d="M200.6,129l-1.5,0.9l-0.4,1.8l-1.8,1.4v2.5l1.4,2.5
		l1.8,2.5l0.4,2.5l0.7,2.5v0.7l1.1,1.1l-0.7,1.4l-0.7,1.4l0.7,1.1l3.9,0.7l3.9,1.4l1.8,1.8l-1.8,1.8l-2.1,2.5v2.5l-1.4,6.7v4.6
		l-2.1,2.5l-2.1,3.2l-1.1,4.3l0.7,2.1l-0.4,6.4l-2.1,3.9l-2.1,1.4l0.7,1.4l1.4,1.8l0.7,1.4l-1.1,1.8l0.3,1.8l1.4,0.7l1.1,1.1
		l2.5,2.1l1.8,0.7h1.4l0.7,0.7l0.7,2.1v1.4v1.4l-2.5,1.1v1.4v1.4l1.1,1.8l1.8,0.7h0.7l0.4,1.8L208,225l-0.4,1.4v1.8v1.8l0.4,2.1
		l1.1,1.1v1.8v2.5l-1.8,2.5v1.8v2.1l1.1,1.8l0.7,1l1.1,1.1l0.4,0.7l1.1,1.4l0.4,1.1l0.7,2.5l0.3,2.1l1.4-1.8l1.1-1.8l1.8-1.1
		l1.1,1.1l3.2,0.7l1.8-0.4l1.1-0.6v-0.1l-0.7-1.8l2.1-2.1l0.7-1.4v-2.5l1.1-1.1l1.1-0.7l0.4-1.1l-1.1-1.1l0.3-2.5l-0.7-2.1l-0.7-1.1
		l-1.1-0.7v-1.4l-0.7-1.4l-0.7-0.7l-0.7-2.1l0.7-1.1h3.2l5-0.3l1.8,0.3l2.8-1.4l2.1-3.2l0.4-1.4v-1.8l-1.1-1.1l0.7-2.1V214l-1.1-1.4
		l-0.4-3.2l1.8-1.8l1.8-1.4l3.9-0.7l4.2,0.3h3.5l-5.7-11l-3.5-9.6l-2.1-0.4l-0.7,1.1l-1.4-0.3l-1.8-2.1l-1.8-1.8l-1.4-2.8v-2.5
		l-2.5-1.8h-2.5l-1.1,1.1l-1.4-1.1l-0.7-1.8l-1.1-2.5l1.1-1.4h1.4l1.1-0.4l3.2-2.8l1.4-1.4l-1.4-1.1l-1.1-1.8l-1.8-1.4l-2.5-2.5
		l-2.8-4.3l-1.4-3.5l0.4-3.5l1.1-2.8l1.1-3.9v-2.8v-2.1v-2.1l2.5-2.1l1.8-3.2v-1.1h-1.8l-2.8,1.8l-2.1,1.8H220l-1.8-1.4h-1.4
		l-2.8,1.1l-2.1,1.1l-2.5-1.1l-1.1-1.1l-1.4-0.4l-3.9,0.7l-2.1,0.7L200.6,129z"/>
	<text transform="matrix(1 0 0 1 226.8242 200.3828)"><tspan x="0" y="0" font-family="'MyriadPro-Regular'" font-size="7.7138">S</tspan><tspan x="3.8" y="0" font-family="'MyriadPro-Regular'" font-size="7.7138">an </tspan><tspan x="13.5" y="0" font-family="'MyriadPro-Regular'" font-size="7.7138">S</tspan><tspan x="17.3" y="0" font-family="'MyriadPro-Regular'" font-size="7.7138">al</tspan><tspan x="22.8" y="0" font-family="'MyriadPro-Regular'" font-size="7.7138">v</tspan><tspan x="26.5" y="0" font-family="'MyriadPro-Regular'" font-size="7.7138">ador</tspan></text>
</g>
<g id="d05">
	<path id="_x30_5_1_" fill="none" stroke="#000000" stroke-width="1.5" d="M175.4,132.3l-0.8,2.2l-2.5,2.1l-0.3,1.8v2.1v1.4
		l-1.1,2.8l1.1,0.7l0.7,3.2v1.8l-3.5,2.1l-2.8,1.8l-3.2,0.7l-1.4,1.4l-2.1,3.2l-0.7,2.8l0.4,1.1l0.7,1.4l0.7,2.1v1.1L159,171
		l0.7,1.1l0.7,1.4l-0.7,0.4l-0.3,1.4l0.7,0.7l0.4,0.7l-1.1,2.1l0.3,1.1v1.1l-2.5,0.7l-1.4,1.4v2.1l0.7,0.7v1.8l-1.4,1.4l1.4,0.7
		l1.1,0.4l1.8,0.3l1.1,0.7l0.3,1.8l-1.1,1.1l-1.1,1.4l-0.7,0.7h-3.2l-3.2,2.1l-0.4,2.1v1.8l-1.8,0.4l-0.7,0.3l-2.5,3.9l-2.1,1.1
		l-1.4,1.4l-1.1,1.4l1.1,1.8l0.7,0.7l-1.1,1.8l-0.4,2.5l-1.4,1.8l-2.5,2.5l-2.1,2.1v2.1l-0.7,2.8l-0.4,2.8l-2.1,1.8l-3.2,3.2
		l-2.5,2.8l-2.5,2.8l-0.7,1.4l-1,3.2l5.3,1.4h4.3l3.2,1.1l4.3,1.4l4.6,0.4l9.2-0.4l6.7,0.4h4.6h6l4.3,0.3l5.7,2.1l3.5,0.7l2.1,0.4
		l2.5-1.1h1.4h2.5l3.2,1.4l6.4,3.5l14.2,7.1l7.5,3l0.3-0.5l0.4-2.5v-2.8l-1.1-1.1l-0.7-1.8l1.1-1.4h2.5V258l-0.7-0.7l-1.1-1.4
		l-0.7-1.8v-2.4l-1.1,0.6l-1.8,0.4l-3.2-0.7l-1.1-1.1l-1.8,1.1l-1.1,1.8l-1.4,1.8l-0.3-2.1l-0.7-2.5l-0.4-1.1l-1.1-1.4l-0.4-0.7
		l-1.1-1.1l-0.7-1l-1.1-1.8v-2.1v-1.8l1.8-2.5v-2.5v-1.8l-1.1-1.1l-0.4-2.1v-1.8v-1.8l0.4-1.4l1.8-1.4l-0.4-1.8h-0.7l-1.8-0.7
		l-1.1-1.8v-1.4v-1.4l2.5-1.1V214v-1.4l-0.7-2.1l-0.7-0.7h-1.4l-1.8-0.7l-2.5-2.1l-1.1-1.1l-1.4-0.7l-0.3-1.8l1.1-1.8l-0.7-1.4
		l-1.4-1.8l-0.7-1.4l2.1-1.4l2.1-3.9l0.4-6.4l-0.7-2.1l1.1-4.3l2.1-3.2l2.1-2.5v-4.6l1.4-6.7v-2.5l2.1-2.5l1.8-1.8l-1.8-1.8
		l-3.9-1.4l-3.9-0.7l-0.7-1.1l0.7-1.4l0.7-1.4l-1.1-1.1v-0.7l-0.7-2.5l-0.4-2.5l-1.8-2.5l-1.4-2.5V133l1.8-1.4l0.4-1.8l1.5-0.9
		l-0.8-0.5l-1.1-0.7h-1.1l-2.9,0.4l-1.1-0.4l-1.1-2.1l-2.8-1.1l-3.6,1.1l-1.8,0.3l-3.2,1.1l-2.5,1.1l-0.7,2.5v1.8h-0.4h-2.1
		L175.4,132.3z"/>
	<text transform="matrix(1 0 0 1 177.4229 205.3438)"><tspan x="0" y="0" font-family="'MyriadPro-Regular'" font-size="7.7138">La Libe</tspan><tspan x="22.7" y="0" font-family="'MyriadPro-Regular'" font-size="7.7138">r</tspan><tspan x="25.4" y="0" font-family="'MyriadPro-Regular'" font-size="7.7138">tad</tspan></text>
</g>
<g id="d04">
	<path id="_x30_4" fill="none" stroke="#000000" stroke-width="1.5" d="M182.1,45l0.6,1.4l5.3,3.9l2.8,2.5l1.4,1.4v2.1l1.1,3.5
		l2.5,1.8l3.6,2.1l3.2,2.1l1.1,1.4v1.8v1.8l-1.4,3.5l-1.8,2.8l-0.7,3.9l-2.8,1.8l-5,1.4l-2.8,2.5l0.7,1.8l0.7,1.1v1.4l-1.1,1.4V94
		l0.7,1.4v1.8l-1.8,1.8l-0.7,1.8l-2.1,0.3l-4.6,1.8l-3.2,0.7l-0.7,1.4l-2.1,2.8l-3.2,2.1l-2.5,0.7v1.4l0.7,2.1l0.3,1.4v2.5l-0.7,0.7
		l-2.1,1.8l-1.1,1.8l-1.8,3.9l0.4,3.5l1.1,1.4l2.5,0.3h2.8l4.3,0.7h2.1h0.4v-1.8l0.7-2.5l2.5-1.1l3.2-1.1l1.8-0.3l3.6-1.1l2.8,1.1
		l1.1,2.1l1.1,0.4l2.9-0.4h1.1l1.1,0.7l1.1,0.7l2.1-0.7l3.9-0.7l1.4,0.4l1.1,1.1l2.5,1.1l2.1-1.1l2.8-1.1h1.4l1.8,1.4h2.5l2.1-1.8
		l2.8-1.8h2.8h3.9l3.9,1.1l4.6,1.4l5,1.1l3.2,2.5l1.8,3.2l1.1,3.2l0.7,4.3l1.1,3.9l2.1,3.2l2.5,1.8l3.2,0.7h1.8h2.1h2.1l1.7,1.3
		l0.5-0.3l1.8-1.4l2.1-0.4l2.5-0.3c0,0,0.1,0.3,0.7,0.8c0.3,0.2,0.7,0.5,1.3,0.9c0.6,0.3,1.3,0.7,2.3,1.2c0.8,0.4,1.1,0.5,1.4,0.7
		l2.1-1.4l1.4-0.7l1.1-0.7l1.1-1.8l3.2-1.1l1.8,1.1l2.5-0.4l1.1-2.5l2.1-0.7l0.7,0.7l2.8-0.7l2.1-1.1h2.1l1.8-1.4l2.5-3.2h1.1
		l1.4-0.3l2.5-0.4l2.1,0.4l1.1,0.7l2.1-1.1l1.4-0.7h1.8l1.1-0.4l4.3-2.1l0.5-0.4l-0.9-0.3l-1.1-1.8l0.7-1.8l-2.8-2.1l-3.6-0.7h-2.5
		l-2.5-1.8l-1.4-2.1l2.8-5.7l-1.1-3.5v-1.4l-0.7-1.1l-2.1,1.1l-3.9,1.4h-3.2l-1.4-1.4l-1.1-1.4l-1.8,1.1h-1.8l-2.5-0.7l-2.8,1.1
		l-2.1-1.1l-0.7-2.1l-2.1-1.4v-3.2l-1.4-1.8l-0.7-2.5l-0.7-2.8l-1.8-0.7l-5-1.4l-2.1-0.3v-1.8l-1.1-1.1l-2.5-1.4l-2.8,0.7l-3.2,0.7
		l-3.2-1.1l-2.1-1.8l-1.4-1.1l0.4-1.8l-1.1-1.1l-1.4-2.8l-2.1-2.5l-1.4-1.1l-2.1-1.4l-2.5-1.4l-0.4-0.7l0.4-2.5v-2.1l-0.4-1.1
		l-1.1-1.8v-3.2L252,67l-0.3-0.7l-1.1-1.1l-2.1-0.4l-4.2-0.3l-2.5-0.4l-0.3-1.4l1.1-1.8v-2.1l-1.1-4.6l-1.4-3.2l-2.5-0.4l-2.8,0.7
		l-2.5,2.5l-3.5,4.6l-2.5,1.4l-5.3-1.8l-3.9-0.3l-3.2-1.1l-0.4-2.1l-0.7-1.4l-3.2-1.4l-2.1,0.7h-2.8l-3.2-1.4l-1.8-0.7l-3.2-2.5
		l-3.5-1.1l-3.2-0.3l-3.5-0.4l-2.5-1.1H182.1z"/>
	<text transform="matrix(1 0 0 1 241.7041 108.46)"><tspan x="0" y="0" font-family="'MyriadPro-Regular'" font-size="7.7138">Chal</tspan><tspan x="14.3" y="0" font-family="'MyriadPro-Regular'" font-size="7.7138">a</tspan><tspan x="18" y="0" font-family="'MyriadPro-Regular'" font-size="7.7138">t</tspan><tspan x="20.5" y="0" font-family="'MyriadPro-Regular'" font-size="7.7138">enango</tspan></text>
</g>
<g id="d03">
	<path id="_x30_3" fill="none" stroke="#000000" stroke-width="1.5" d="M156.2,188l-4-1.7l-6.7-3.2l-7.1-3.5l-2.5-2.1l-2.5-0.7
		l-1.8,0.7l-2.5,1.8v2.1l-1.4,0.7l-3.2-5l-6.4-3.9l-3.9-4.3l-1.1-2.8l-2.1-2.5l-4.3-2.5l-3.2,0.4l-3.2,0.7h-4.3l-5.3,0.4h-4.6
		l-1.1,3.2l2.8,2.5l1.4,1.4v1.4l-1.8,2.5v1.8l-1.8,3.6v3.5l-1.1,3.5v2.1l0.7,2.5v1.4v2.5l-2.1,0.4l-2.5,2.5l-1.4,2.8l-1.1,3.6v1.4
		l-0.7,4.3l-2.1,0.7l-2.5,1.1h-2.8l-1.8-2.1l-2.1-1.1l-2.1-0.7l-1.8-1.4l-2.1-2.5l-0.7-1.1l-2.1,0.7l-1.4,2.1l-3.2,2.8l-2.1,2.1
		h-2.8l-4.9,0.3l2.4,1.5l4.3,2.5l3.2,1.4l4.2,2.1l2.8,1.1l1.8,1.1l1.8,1.4l4.3,2.5l3.9,2.8l2.8,2.8l0.7,3.2l1.4,4.6l0.7,3.9l1.1,1.8
		l3.9,1.8l4.6,0.4l5-1.1h3.2l2.8,0.4l3.2-0.4l5-1.1l3.5,0.4l8.2,1.4l5,2.1l0.1,0l1-3.2l0.7-1.4l2.5-2.8l2.5-2.8l3.2-3.2l2.1-1.8
		l0.4-2.8l0.7-2.8v-2.1l2.1-2.1l2.5-2.5l1.4-1.8l0.4-2.5l1.1-1.8l-0.7-0.7l-1.1-1.8l1.1-1.4l1.4-1.4l2.1-1.1l2.5-3.9l0.7-0.3
		l1.8-0.4v-1.8l0.4-2.1l3.2-2.1h3.2l0.7-0.7l1.1-1.4l1.1-1.1l-0.3-1.8l-1.1-0.7l-1.8-0.3l-1.1-0.4l-1.4-0.7L156.2,188z"/>
	<text transform="matrix(1 0 0 1 113.1416 202.9531)"><tspan x="0" y="0" font-family="'MyriadPro-Regular'" font-size="7.7138">S</tspan><tspan x="3.8" y="0" font-family="'MyriadPro-Regular'" font-size="7.7138">onson</tspan><tspan x="23.9" y="0" font-family="'MyriadPro-Regular'" font-size="7.7138">a</tspan><tspan x="27.6" y="0" font-family="'MyriadPro-Regular'" font-size="7.7138">t</tspan><tspan x="30.1" y="0" font-family="'MyriadPro-Regular'" font-size="7.7138">e</tspan></text>
</g>
<g id="d02">
	<path id="_x30_2" fill="none" stroke="#000000" stroke-width="1.5" d="M173.5,40l-1.4,0.4l-2.1,0.7l-0.4,1.8l-2.1,2.5l-2.1,0.7
		h-2.8l-1.8-1.4h-2.5l-3.9,0.4l-2.8,1.1l-2.5,1.1l-1.8,1.4l-1.4,3.2l-1.8,0.7l-2.8,0.4l1.1-1.4l-0.7-2.1l-0.7-1.4l-2.1-0.7l-3.5,0.7
		l-2.8,1.4l-1.8,3.2l0.4,2.5l1.8,1.1l1.1,1.4l1.4,1.1v1.8l-2.5,0.7l-2.8,2.5l-0.4,2.8v2.1h2.5l2.5-0.7l2.5,1.1l1.4,2.5l1.1,4.3
		l1.1,3.9l2.1,3.2l2.1,2.8v3.2l-1.8,2.1l-1.8-0.7l-1.8-0.7l-3.6,2.1l-3.5,2.8l-7.8,0.7l-8.2,2.1l-3.9,2.5l-5.3,3.2l-3.9,5l-4.3,6
		l-1.4,5l-1.4,6.7v2.1l0.4,2.1v0.6l1.1,0.8l1.8,1.1l0.3,1.4l0.4,1.8l0.7,1.1l2.5,0.7l1.8,1.1v2.1l-0.4,3.2l-1.1,3.2l0.7,1.8
		l-1.8,3.2l-2.5,2.8v2.5v1.8v3.2h0.4l3.2-0.7l3.2-0.4l4.3,2.5l2.1,2.5l1.1,2.8l3.9,4.3l6.4,3.9l3.2,5l1.4-0.7v-2.1l2.5-1.8l1.8-0.7
		l2.5,0.7l2.5,2.1l7.1,3.5l6.7,3.2l4,1.7l0.3-0.3v-1.8l-0.7-0.7V183l1.4-1.4l2.5-0.7v-1.1l-0.3-1.1l1.1-2.1l-0.4-0.7l-0.7-0.7
		l0.3-1.4l0.7-0.4l-0.7-1.4L159,171l1.4-2.8v-1.1l-0.7-2.1l-0.7-1.4l-0.4-1.1l0.7-2.8l2.1-3.2l1.4-1.4l3.2-0.7l2.8-1.8l3.5-2.1v-1.8
		l-0.7-3.2l-1.1-0.7l1.1-2.8v-1.4v-2.1l0.3-1.8l2.5-2.1l0.8-2.2l-4-0.7h-2.8l-2.5-0.3l-1.1-1.4l-0.4-3.5l1.8-3.9l1.1-1.8l2.1-1.8
		l0.7-0.7v-2.5l-0.3-1.4l-0.7-2.1v-1.4l2.5-0.7l3.2-2.1l2.1-2.8l0.7-1.4l3.2-0.7l4.6-1.8l2.1-0.3l0.7-1.8l1.8-1.8v-1.8l-0.7-1.4
		v-1.4l1.1-1.4v-1.4l-0.7-1.1l-0.7-1.8l2.8-2.5l5-1.4l2.8-1.8l0.7-3.9l1.8-2.8l1.4-3.5v-1.8v-1.8l-1.1-1.4l-3.2-2.1l-3.6-2.1
		l-2.5-1.8l-1.1-3.5v-2.1l-1.4-1.4l-2.8-2.5l-5.3-3.9l-0.6-1.4h-0.4l-2.8-1.1l-0.7-2.1l-1.4,0.4l-0.3,1.1h-1.4l-0.3-1.1L173.5,40z"
		/>
	<text transform="matrix(1 0 0 1 131.1406 126.1689)"><tspan x="0" y="0" font-family="'MyriadPro-Regular'" font-size="7.7138">S</tspan><tspan x="3.8" y="0" font-family="'MyriadPro-Regular'" font-size="7.7138">a</tspan><tspan x="7.5" y="0" font-family="'MyriadPro-Regular'" font-size="7.7138">n</tspan><tspan x="11.8" y="0" font-family="'MyriadPro-Regular'" font-size="7.7138">ta </tspan><tspan x="19.7" y="0" font-family="'MyriadPro-Regular'" font-size="7.7138">A</tspan><tspan x="24.4" y="0" font-family="'MyriadPro-Regular'" font-size="7.7138">na</tspan></text>
</g>
<g id="d01">
	<path id="_x30_1" fill="none" stroke="#000000" stroke-width="1.5" d="M100.1,162.1v-3.2v-1.8v-2.5l2.5-2.8l1.8-3.2l-0.7-1.8
		l1.1-3.2l0.4-3.2v-2.1l-1.8-1.1l-2.5-0.7l-0.7-1.1l-0.4-1.8l-0.3-1.4l-1.8-1.1l-1.1-0.8v0.5l-3.6,0.7l-7.4-1.8l-3.2-1.4l-1.4-2.1
		l-2.5-1.8l-2.1,1.1l-1.8,0.7h-2.8l-1.1,1.8l-2.5,1.1h-3.5l-2.8,0.7l-2.1,2.5l-1.4,3.2l-2.5,1.1l-2.5,1.4v0.7l-1.1,2.1l-6,3.6
		l-3.2,2.5l-3.2,1.1l-2.5,1.4l-0.4,2.5l-2.5,0.4l-1.8,1.1l-1.1,3.6l-0.4,1.4v2.5l-2.8,1.8l-6.7,2.8l-1.8,2.1l-0.3,1.8l-2.1,1.8
		l-2.1,1.8l-1.8,3.2l1.1,4.3l-2.1,1.1l-0.7,3.2v2.8l2.1,1.4l2.1,1.1v1.8l1.8,1.4l-0.3,1.4l-1.8,1.1l-2.8,0.4H11l-1.1,1.1l1.4,0.3
		l1.8,0.7l14.6,6l3.5,0.7l2.8,1.4l8.5,3.9l0.4,0.3l4.9-0.3h2.8l2.1-2.1l3.2-2.8l1.4-2.1l2.1-0.7l0.7,1.1l2.1,2.5l1.8,1.4l2.1,0.7
		l2.1,1.1l1.8,2.1h2.8l2.5-1.1l2.1-0.7l0.7-4.3v-1.4l1.1-3.6l1.4-2.8l2.5-2.5l2.1-0.4V192v-1.4l-0.7-2.5v-2.1l1.1-3.5v-3.5l1.8-3.6
		v-1.8l1.8-2.5v-1.4l-1.4-1.4l-2.8-2.5l1.1-3.2h4.6l5.3-0.4H100.1z"/>
	<text transform="matrix(1 0 0 1 55.9307 172.7412)"><tspan x="0" y="0" font-family="'MyriadPro-Regular'" font-size="7.7138">A</tspan><tspan x="4.7" y="0" font-family="'MyriadPro-Regular'" font-size="7.7138">huachapán</tspan></text>
</g>
</svg>
