<?xml version="1.0" encoding="utf-8"?>
<!-- Generator: Adobe Illustrator 15.0.0, SVG Export Plug-In . SVG Version: 6.00 Build 0)  -->
<!DOCTYPE svg PUBLIC "-//W3C//DTD SVG 1.1//EN" "http://www.w3.org/Graphics/SVG/1.1/DTD/svg11.dtd">
<svg version="1.1"
	 id="svg1306" xmlns:dc="http://purl.org/dc/elements/1.1/" xmlns:inkscape="http://www.inkscape.org/namespaces/inkscape" sodipodi:docbase="C:\Documents and Settings\Rub√©n\Mis documentos\Mis im√°genes\wikipedia" sodipodi:docname="Departments of El Salvador.svg" sodipodi:version="0.32" xmlns:sodipodi="http://inkscape.sourceforge.net/DTD/sodipodi-0.dtd" inkscape:version="0.43" xmlns:svg="http://www.w3.org/2000/svg" xmlns:cc="http://web.resource.org/cc/" xmlns:rdf="http://www.w3.org/1999/02/22-rdf-syntax-ns#"
	 xmlns="http://www.w3.org/2000/svg" xmlns:xlink="http://www.w3.org/1999/xlink" x="0px" y="0px" width="870px" height="480px"
	 viewBox="0 0 870 480" enable-background="new 0 0 870 480" xml:space="preserve">
<path id="shadow" fill="#9E9E9E" d="M266.4,16l-2.2,0.6l-3.3,1.1l-0.6,2.8l-3.3,3.9l-3.3,1.1h-4.4l-2.8-2.2h-3.9l-6.1,0.6l-4.4,1.7
	l-3.9,1.7l-2.8,2.2l-2.2,5l-2.8,1.1l-4.4,0.6l1.7-2.2l-1.1-3.3l-1.1-2.2l-3.3-1.1l-5.5,1.1l-4.4,2.2l-2.8,5l0.6,3.9l2.8,1.7l1.7,2.2
	l2.2,1.7v2.8l-3.9,1.1l-4.4,3.9l-0.6,4.4v3.3h3.9l3.9-1.1l3.9,1.7l2.2,3.9l1.7,6.6l1.6,6.1l3.3,5l3.3,4.4v5L219,95l-2.8-1.1
	l-2.8-1.1l-5.5,3.3l-5.5,4.4l-12.2,1.1l-12.7,3.3l-6.1,3.9l-8.3,5l-6.1,7.7l-6.6,9.4l-2.2,7.7l-2.2,10.5v3.3l0.6,3.3v0.9v0.7
	l-5.5,1.1l-11.6-2.8l-5-2.2l-2.2-3.3l-3.9-2.8l-3.3,1.7l-2.8,1.1H108l-1.7,2.8l-3.9,1.7h-5.5l-4.4,1.1l-3.3,3.9l-2.2,5l-3.9,1.7
	l-3.9,2.2v1.1l-1.7,3.3l-9.4,5.5l-5,3.9l-5,1.7l-3.9,2.2l-0.6,3.9l-3.9,0.6l-2.8,1.6l-1.7,5.5l-0.6,2.2v3.9l-4.4,2.8l-10.5,4.4
	l-2.8,3.3l-0.5,2.8l-3.3,2.8l-3.3,2.8l-2.8,5l1.7,6.6l-3.3,1.7l-1.1,5v4.4l3.3,2.2l3.3,1.7v2.8L24,254l-0.5,2.2l-2.8,1.7l-4.4,0.6
	h-2.8l-1.6,1.7l2.2,0.5l2.8,1.1l22.6,9.4l5.5,1.1l4.4,2.2l13.2,6.1l0.7,0.4l3.8,2.3l6.6,3.9l5,2.2l6.6,3.3l4.4,1.7l2.8,1.6l2.8,2.2
	l6.6,3.9l6.1,4.4l4.4,4.4l1.1,5l2.2,7.2l1.1,6.1l1.7,2.8l6.1,2.8l7.2,0.6l7.7-1.7h5l4.4,0.6l5-0.6l7.7-1.7l5.5,0.6l12.7,2.2l7.7,3.3
	l0.1,0l8.2,2.2h6.6l5,1.6l6.6,2.2l7.2,0.6l14.4-0.6l10.5,0.6h7.2h9.4l6.6,0.5l8.8,3.3l5.5,1.1l3.3,0.6l3.9-1.7h2.2h3.9l5,2.2
	l9.9,5.5l22.1,11l11.7,4.7l2.1,0.9l8.3,4.4l5.5,3.3l5,2.2l7.2,6.1l9.9,3.9l8.8,3.9l12.2,5.5l11,6.6l7.2,2.8l10.5,4.4h4.4l2.2,1.1
	l1.1,3.3l2.2,1.1l6.1,1.7l3.9,2.8l0.1,0.1l4.3,4.3l8.3,2.8l0.2,0l8.1,1.6l8.8,3.3l16,2.8l13.2,2.8l9.9,1.1l8.8,0.6l7.2,2.2l8.3,3.3
	l13.8,2.8l10.5,3.9l3.3,1.6l1.7-2.2l-1.7-1.7l-1.7-1.7l-0.5-1.7L569,450l-13.8-3.3l-6.1-2.2l-1.7-1.1l2.2-1.1l0.5-2.2l-2.2-2.8
	l-9.9-8.8h-4.4l-6.6,1.1l-4.4,2.2l-2.8,2.2l-1.7,0.6L516,434l-3.3-1.7l-9.4-0.5l-5-1.1l-3.3-2.8v-1.7l2.8-1.1l5.5,0.6l3.3-1.1
	l3.3,0.5l6.6,2.8l3.9-1.7l2.8-1.6v-2.8l-1.1-1.1l-0.5-1.7l2.8-0.5l6.6,2.8l12.2,1.1l8.8,3.3l3.9,4.4l2.2,3.3l-0.6,3.9l1.1,3.3
	c0,0,2.2,2.2,4.4,2.2s11.6,2.2,11.6,2.2h4.4l0.6-1.7l-3.3-2.8l-5-4.4l-1.7-3.3l0.6-3.3l2.2-1.7l4.4,0.6l5.5,6.1l6.6,7.2l3.3,5.5
	l-1.1,1.7H590l-1.1,3.9v5.5l5.5,2.2h6.6l5-0.5l1.7-1.7l-2.2-1.7l-1.1-1.1l1.1-1.1l7.2-1.6l1.7-1.7l-1.1-1.7l-2.2-1.1v-1.1l3.3-1.7
	h5.5l5,2.8l0.6,3.3l-2.8,2.2l-3.9,2.8l2.8,2.8l10.5,1.1l20.4,1.7l10,1.7h5.5l4.4-1.7l5.5-1.1l13.2,0.6l5.5,0.5l0.4-0.2l2.9-1.5
	l1.7-1.1h4.5h1.6l17.1,0.6l15.4,2.2l12.2,1.7l12.2,1.1l5.5-0.5l3.3-2.2l-1.1-1.1l-3.9-2.2l-1.1-1.6V456l-1.7-1.1l-2.2-0.6l-2.2-2.8
	l1.7-1.7l7.7-1.6l4.4-2.2l7.7-3.3l3.3-2.8l5.5-1.1l8.3-4.4l5-4.4l4.4-7.7l3.3-5.5l-2.8-2.8l-2.2-1.1l-5-2.2l-0.6-1.7V408l-1.6-2.2
	l-10.5-3.9l-3.3-3.3l-2.2-1.1l-1.1-3.3l-1.7-7.2l3.9-11.1l2.8-5l3.9-1.1h3.9l-1.1,2.2v2.8l4.4,1.1h4.4l6.1,1.7l3.3-2.2l0.6-2.2
	l3.3-1.7l1.1-2.2l3.9-2.2l3.9-0.5l3.3-1.7l3.3-1.1l0.6-3.9l1.6-5.5l-1.6-3.9l-5-3.9l-3.3-1.1l-1.1-3.9l-1.1,0.6l-3.3,1.7h-3.3
	l-1.1-1.7l-2.2-0.6l-3.3-1.1V339l3.9-1.7V334l-1.1-3.9l0.5-2.8v-2.2v-3.3l3.3-2.8l0.6-2.8l2.2-2.2l2.2-3.3l1.7-7.2l1.1-16.6l3.3-7.2
	l2.8-6.1l0.5-7.2l-0.5-2.8l2.2-4.4l2.2-2.8l2.2-4.4l2.8-6.6l-0.5-3.3l-0.6-2.2l-1.1-1.1l-4.4-3.3l-3.9-3.9l-3.9-9.4l-3.3-5l-6.1-1.7
	l-2.2-3.3l-3.3-2.2l-0.5-3.9l-1.1-1.1l-8.8-0.6l-6.1,1.1l-2.8,2.8h-7.7l-5-1.1l-3.9,0.6l-2.8,1.7l-3.3,0.5h-2.2l-2.8,0.6l-3.9-1.7
	h-1h-7.2l-2.2,1.7l-3.9,1.1l-3.9,3.9l-3.3,1.7l-2.8-1.7l0.6-2.8l0.5-2.2l-1.7-3.3l-4.4-5l-4.4-4.4l-3.9-1.1l-2.8-4.4v-3.9l-1.7-2.8
	l-1.7-5l0.6-3.3l-2.8-3.3l-5.5-0.5l-4.4-0.6l-6.1,2.8l-5,0.6l-5,0.6l-1.7,2.2h-1.7l-1.7-1.7l-4.4-1.1l-5.5-1.1l-3.9-1.1l-3.3-0.5
	l-3.9,2.2v5.5l1.7,3.3l1.7,1.7l3.9,2.8v2.8l-5,1.1l-6.1,0.5h-3.9l-2.2,2.2l-0.5,2.6l-0.6,2.9l-2.2,2.2l-5-1.7l-2.8,1.1l-1.1,1.1
	l-3.9,1.7l-1.7,2.8v3.3l-3.3,0.6l-1.7-1.1L627,212h-2.2l-1.1-1.1h-2.8l-0.6,2.2v2.8l-3.9,1.1l-1.7-0.6l-1.7-2.2l-2.2-0.6h-3.3
	l-2.8,1.1l-3.9-1.1l-2.2-1.7l-5,1.7l-1.1,2.2l-1.1,3.9l-1.1,1.1h-1.7l-2.2-1.1l-2.2,1.7l-1.1,2.2H580l-1.1-2.8l-1.7-0.6h-2.2l-1-1
	l-0.7-0.7v-3.9l-1.7-4.4l-3.3-4.4l-2.8-3.3l2.8-7.7v-2.8l3.9-2.2v-2.2l-1.1-1.6l-4.4-3.9l-5-5l-5,0.5l-3.9,0.6l-2.2-0.6l-3.9,1.7
	l-1.1-2.8l-2.8-3.3l-2.2-2.2l-1.1-0.6l-2.2-0.6h-2.8l-3.9-2.2l-2.8-2.2h-5l-4.4-1.1l-2.2-1.1l-1.7,1.7l-1.7,1.7l-1.4-0.6l-1.3-0.5
	l-1.7-2.8l1.1-2.8l-4.4-3.3l-5.5-1.1h-3.9l-3.9-2.8l-2.2-3.3l4.4-8.8l-1.7-5.5v-2.2l-1.1-1.7l-3.3,1.7l-6.1,2.2h-5l-2.2-2.2
	l-1.7-2.2l-2.8,1.7H468l-3.9-1.1l-4.4,1.7l-3.3-1.7l-1.1-3.3l-3.3-2.2v-5l-2.2-2.8l-1.1-3.9l-1.1-4.4l-2.8-1.1l-7.7-2.2l-3.3-0.5
	v-2.8l-1.7-1.6l-3.9-2.2l-4.4,1.1l-5,1.1l-5-1.7l-3.3-2.8l-2.2-1.7l0.6-2.8l-1.7-1.7l-2.2-4.4l-3.3-3.9l-2.2-1.7l-3.3-2.2l-3.9-2.2
	l-0.6-1.1l0.6-3.9v-3.3l-0.6-1.7l-1.7-2.8v-5l-1.7-1.1l-0.5-1.1l-1.7-1.7l-3.3-0.6l-6.6-0.5l-3.9-0.6l-0.5-2.2l1.7-2.8v-3.3
	l-1.7-7.2l-2.2-5l-3.9-0.6l-4.4,1.1l-3.9,3.9l-5.5,7.2l-3.9,2.2l-8.3-2.8l-6.1-0.5l-5-1.7l-0.6-3.3l-1.1-2.2l-5-2.2l-3.3,1.1h-4.4
	l-5-2.2l-2.8-1.1l-5-3.9l-5.5-1.7l-5-0.5l-5.5-0.6l-3.9-1.7h-2.1h-0.7l-4.4-1.7l-1.1-3.3l-2.2,0.6l-0.5,1.7h-2.2l-0.5-1.7L266.4,16z
	"/>
<path id="background" fill="#E8E8E8" stroke="#000000" stroke-width="3" d="M265.4,12.1l-2.2,0.6l-3.3,1.1l-0.6,2.8l-3.3,3.9
	l-3.3,1.1h-4.4l-2.8-2.2h-3.9l-6.1,0.6l-4.4,1.7l-3.9,1.7l-2.8,2.2l-2.2,5l-2.8,1.1l-4.4,0.6l1.7-2.2l-1.1-3.3l-1.1-2.2l-3.3-1.1
	l-5.5,1.1l-4.4,2.2l-2.8,5l0.6,3.9l2.8,1.7l1.7,2.2l2.2,1.7v2.8l-3.9,1.1l-4.4,3.9L197,53v3.3h3.9l3.9-1.1l3.9,1.7l2.2,3.9l1.7,6.6
	l1.6,6.1l3.3,5l3.3,4.4v5l-2.8,3.3l-2.8-1.1l-2.8-1.1l-5.5,3.3l-5.5,4.4l-12.2,1.1l-12.7,3.3l-6.1,3.9l-8.3,5l-6.1,7.7l-6.6,9.4
	l-2.2,7.7l-2.2,10.5v3.3l0.6,3.3v0.9v0.7l-5.5,1.1l-11.6-2.8l-5-2.2l-2.2-3.3l-3.9-2.8l-3.3,1.7l-2.8,1.1H107l-1.7,2.8l-3.9,1.7
	h-5.5l-4.4,1.1l-3.3,3.9l-2.2,5l-3.9,1.7l-3.9,2.2v1.1l-1.7,3.3l-9.4,5.5l-5,3.9l-5,1.7l-3.9,2.2l-0.6,3.9l-3.9,0.6l-2.8,1.6
	l-1.7,5.5L44,196v3.9l-4.4,2.8L29.1,207l-2.8,3.3l-0.5,2.8l-3.3,2.8l-3.3,2.8l-2.8,5l1.7,6.6l-3.3,1.7l-1.1,5v4.4l3.3,2.2l3.3,1.7
	v2.8l2.8,2.2l-0.5,2.2l-2.8,1.7l-4.4,0.6h-2.8l-1.6,1.7l2.2,0.5l2.8,1.1l22.6,9.4l5.5,1.1l4.4,2.2l13.2,6.1l0.7,0.4l3.8,2.3l6.6,3.9
	l5,2.2l6.6,3.3l4.4,1.7l2.8,1.6l2.8,2.2l6.6,3.9l6.1,4.4l4.4,4.4l1.1,5l2.2,7.2l1.1,6.1l1.7,2.8l6.1,2.8l7.2,0.6l7.7-1.7h5l4.4,0.6
	l5-0.6l7.7-1.7l5.5,0.6l12.7,2.2l7.7,3.3l0.1,0l8.2,2.2h6.6l5,1.6l6.6,2.2l7.2,0.6l14.4-0.6l10.5,0.6h7.2h9.4l6.6,0.5l8.8,3.3
	l5.5,1.1l3.3,0.6l3.9-1.7h2.2h3.9l5,2.2l9.9,5.5l22.1,11l11.7,4.7l2.1,0.9l8.3,4.4l5.5,3.3l5,2.2l7.2,6.1l9.9,3.9l8.8,3.9l12.2,5.5
	l11,6.6l7.2,2.8l10.5,4.4h4.4l2.2,1.1l1.1,3.3l2.2,1.1l6.1,1.7l3.9,2.8l0.1,0.1l4.3,4.3l8.3,2.8l0.2,0l8.1,1.6l8.8,3.3l16,2.8
	l13.2,2.8l9.9,1.1l8.8,0.6l7.2,2.2l8.3,3.3l13.8,2.8l10.5,3.9l3.3,1.6l1.7-2.2l-1.7-1.7l-1.7-1.7l-0.5-1.7l-2.8-1.7l-13.8-3.3
	l-6.1-2.2l-1.7-1.1l2.2-1.1l0.5-2.2l-2.2-2.8l-9.9-8.8h-4.4l-6.6,1.1l-4.4,2.2l-2.8,2.2l-1.7,0.6l-2.2-0.6l-3.3-1.7l-9.4-0.5l-5-1.1
	L494,424v-1.7l2.8-1.1l5.5,0.6l3.3-1.1l3.3,0.5l6.6,2.8l3.9-1.7l2.8-1.6v-2.8l-1.1-1.1l-0.5-1.7l2.8-0.5l6.6,2.8l12.2,1.1l8.8,3.3
	l3.9,4.4l2.2,3.3l-0.6,3.9l1.1,3.3c0,0,2.2,2.2,4.4,2.2s11.6,2.2,11.6,2.2h4.4l0.6-1.7l-3.3-2.8l-5-4.4l-1.7-3.3l0.6-3.3l2.2-1.7
	l4.4,0.6l5.5,6.1l6.6,7.2l3.3,5.5l-1.1,1.7H589l-1.1,3.9v5.5l5.5,2.2h6.6l5-0.5l1.7-1.7l-2.2-1.7l-1.1-1.1l1.1-1.1l7.2-1.6l1.7-1.7
	l-1.1-1.7l-2.2-1.1v-1.1l3.3-1.7h5.5l5,2.8l0.6,3.3l-2.8,2.2l-3.9,2.8l2.8,2.8l10.5,1.1l20.4,1.7l10,1.7h5.5l4.4-1.7l5.5-1.1
	l13.2,0.6l5.5,0.5l0.4-0.2l2.9-1.5l1.7-1.1h4.5h1.6l17.1,0.6l15.4,2.2l12.2,1.7l12.2,1.1l5.5-0.5l3.3-2.2l-1.1-1.1l-3.9-2.2
	l-1.1-1.6v-1.1l-1.7-1.1l-2.2-0.6l-2.2-2.8l1.7-1.7l7.7-1.6l4.4-2.2l7.7-3.3l3.3-2.8l5.5-1.1l8.3-4.4l5-4.4l4.4-7.7l3.3-5.5
	l-2.8-2.8l-2.2-1.1l-5-2.2l-0.6-1.7v-1.1l-1.6-2.2l-10.5-3.9l-3.3-3.3l-2.2-1.1l-1.1-3.3l-1.7-7.2l3.9-11.1l2.8-5l3.9-1.1h3.9
	l-1.1,2.2v2.8l4.4,1.1h4.4l6.1,1.7l3.3-2.2l0.6-2.2l3.3-1.7l1.1-2.2l3.9-2.2l3.9-0.5l3.3-1.7l3.3-1.1l0.6-3.9l1.6-5.5l-1.6-3.9
	l-5-3.9l-3.3-1.1l-1.1-3.9l-1.1,0.6l-3.3,1.7h-3.3l-1.1-1.7l-2.2-0.6l-3.3-1.1v-1.7l3.9-1.7v-3.3l-1.1-3.9l0.5-2.8v-2.2V318l3.3-2.8
	l0.6-2.8l2.2-2.2l2.2-3.3l1.7-7.2l1.1-16.6l3.3-7.2l2.8-6.1l0.5-7.2l-0.5-2.8l2.2-4.4l2.2-2.8l2.2-4.4l2.8-6.6l-0.5-3.3l-0.6-2.2
	l-1.1-1.1l-4.4-3.3l-3.9-3.9l-3.9-9.4l-3.3-5l-6.1-1.7l-2.2-3.3l-3.3-2.2l-0.5-3.9l-1.1-1.1l-8.8-0.6l-6.1,1.1l-2.8,2.8h-7.7l-5-1.1
	l-3.9,0.6l-2.8,1.7l-3.3,0.5h-2.2l-2.8,0.6l-3.9-1.7h-1h-7.2l-2.2,1.7l-3.9,1.1l-3.9,3.9l-3.3,1.7l-2.8-1.7l0.6-2.8l0.5-2.2
	l-1.7-3.3l-4.4-5l-4.4-4.4l-3.9-1.1l-2.8-4.4V185l-1.7-2.8l-1.7-5l0.6-3.3l-2.8-3.3l-5.5-0.5l-4.4-0.6l-6.1,2.8l-5,0.6l-5,0.6
	l-1.7,2.2h-1.7l-1.7-1.7l-4.4-1.1l-5.5-1.1l-3.9-1.1l-3.3-0.5l-3.9,2.2v5.5l1.7,3.3l1.7,1.7l3.9,2.8v2.8l-5,1.1l-6.1,0.5h-3.9
	l-2.2,2.2l-0.5,2.6l-0.6,2.9l-2.2,2.2l-5-1.7l-2.8,1.1l-1.1,1.1l-3.9,1.7l-1.7,2.8v3.3l-3.3,0.6l-1.7-1.1l-1.6,0.6h-2.2l-1.1-1.1
	h-2.8l-0.6,2.2v2.8l-3.9,1.1l-1.7-0.6l-1.7-2.2l-2.2-0.6h-3.3l-2.8,1.1l-3.9-1.1l-2.2-1.7l-5,1.7l-1.1,2.2l-1.1,3.9l-1.1,1.1h-1.7
	l-2.2-1.1l-2.2,1.7l-1.1,2.2H579l-1.1-2.8l-1.7-0.6h-2.2l-1-1l-0.7-0.7v-3.9l-1.7-4.4l-3.3-4.4l-2.8-3.3l2.8-7.7v-2.8l3.9-2.2v-2.2
	l-1.1-1.6l-4.4-3.9l-5-5l-5,0.5l-3.9,0.6l-2.2-0.6l-3.9,1.7l-1.1-2.8l-2.8-3.3l-2.2-2.2l-1.1-0.6l-2.2-0.6h-2.8l-3.9-2.2l-2.8-2.2
	h-5l-4.4-1.1l-2.2-1.1l-1.7,1.7l-1.7,1.7l-1.4-0.6l-1.3-0.5l-1.7-2.8l1.1-2.8l-4.4-3.3l-5.5-1.1h-3.9l-3.9-2.8l-2.2-3.3l4.4-8.8
	l-1.7-5.5v-2.2l-1.1-1.7l-3.3,1.7l-6.1,2.2h-5l-2.2-2.2l-1.7-2.2l-2.8,1.7H467l-3.9-1.1l-4.4,1.7l-3.3-1.7l-1.1-3.3L451,122v-5
	l-2.2-2.8l-1.1-3.9l-1.1-4.4l-2.8-1.1l-7.7-2.2l-3.3-0.5v-2.8l-1.7-1.6l-3.9-2.2l-4.4,1.1l-5,1.1l-5-1.7l-3.3-2.8l-2.2-1.7l0.6-2.8
	l-1.7-1.7l-2.2-4.4l-3.3-3.9l-2.2-1.7l-3.3-2.2l-3.9-2.2l-0.6-1.1l0.6-3.9v-3.3l-0.6-1.7l-1.7-2.8v-5l-1.7-1.1l-0.5-1.1l-1.7-1.7
	l-3.3-0.6l-6.6-0.5l-3.9-0.6l-0.5-2.2l1.7-2.8v-3.3l-1.7-7.2l-2.2-5l-3.9-0.6l-4.4,1.1l-3.9,3.9l-5.5,7.2l-3.9,2.2l-8.3-2.8
	l-6.1-0.5l-5-1.7l-0.6-3.3l-1.1-2.2l-5-2.2l-3.3,1.1h-4.4l-5-2.2l-2.8-1.1l-5-3.9l-5.5-1.7l-5-0.5l-5.5-0.6l-3.9-1.7h-2.1h-0.7
	l-4.4-1.7l-1.1-3.3l-2.2,0.6l-0.5,1.7h-2.2l-0.5-1.7L265.4,12.1z"/>
<g id="d14">
	<path id="_x31_4" fill="none" stroke="#000000" stroke-width="1.5" d="M728.6,317.1l-0.9,3.2l0.6,2.8l1.7,2.2v4.4l-1.7,10.5l-2.8,5
		l-2.2,5l0.6,3.3v2.2l2.2,6.6l1.7,4.4l1.7,3.9l0.6,5l-2.2,3.9l-2.2,3.9l-1.1,2.8l-2.8,0.5l3.9,3.3l1.7,1.7l1.1,3.9l-4.4,5l-1.1,1.7
		l1.6,3.3v3.3v5l-1.6,12.7l-14.4,14.4l-2.8,3.3v4.4l-1.6,5h1.6l17.1,0.6l15.4,2.2l12.2,1.7l12.2,1.1l5.5-0.5l3.3-2.2l-1.1-1.1
		l-3.9-2.2l-1.1-1.6v-1.1l-1.7-1.1l-2.2-0.6l-2.2-2.8l1.7-1.7l7.7-1.6l4.4-2.2l7.7-3.3l3.3-2.8l5.5-1.1l8.3-4.4l5-4.4l4.4-7.7
		l3.3-5.5l-2.8-2.8l-2.2-1.1l-5-2.2l-0.6-1.7v-1.1l-1.6-2.2l-10.5-3.9l-3.3-3.3l-2.2-1.1l-1.1-3.3l-1.7-7.2l3.9-11.1l2.8-5l3.9-1.1
		h3.9l-1.1,2.2v2.8l4.4,1.1h4.4l6.1,1.7l3.3-2.2l0.6-2.2l3.3-1.7l1.1-2.2l3.9-2.2l3.9-0.5l3.3-1.7l3.3-1.1l0.6-3.9l1.6-5.5l-1.6-3.9
		l-5-3.9l-3.3-1.1l-1.1-3.9l-1.1,0.6l-3.3,1.7h-3.3l-1.1-1.7l-2.2-0.6l-3.3-1.1v-1.7l3.9-1.7v-3.3l-1.1-3.9l0.5-2.8v-2.2V316
		l3.3-2.8l0.6-2.8l2.2-2.2l2.2-3.3l1.7-7.2l1.1-16.6l3.3-7.2l2.8-6.1l0.5-7.2l-0.5-2.8l2.2-4.4l2.2-2.8l2.2-4.4l2.8-6.6l-0.5-3.3
		l-0.6-2.2l-1.1-1.1l-4.4-3.3l-3.9-3.9l-3.9-9.4l-3.3-5l-6.1-1.7l-2.2-3.3l-3.3-2.2l-0.5-3.9l-1.1-1.1l-8.8-0.6l-6.1,1.1l-2.8,2.8
		h-7.7l-5-1.1l-3.9,0.6l-2.8,1.7l-3.3,0.5h-2.2l-2.8,0.6l-3.9-1.7h-1l2.1,4.4l3.9,5.5l-1.7,3.9l-1.7,5.5l0.6,3.3l2.8,4.4l-1.1,5.5
		l-14.9,20.4l-1.1,2.8l2.8-1.1l2.2-0.6h3.3l1.7,2.2l2.2,2.8l-1.6,5.5l-1.1,4.4l-0.5,6.1l1.7,1.7l-1.1,4.4l-4.4,3.9l-2.8,7.2v6.6
		l-3.3,3.9l-4.4,3.9l-2.8,2.8l-2.2,2.8l-4.4,1.7L728.6,317.1z"/>
	<text transform="matrix(1 0 0 1 769.2646 341.5)" font-family="'MyriadPro-Regular'" font-size="12">La Unión</text>
</g>
<g id="d13">
	<path id="_x31_3_1_" fill="none" stroke="#000000" stroke-width="1.5" d="M648.7,192.7l7.7,27.7l-11.6,6.6l2.2,4.4l1.1,3.9l1.1,2.8
		l1.1,3.9l2.8,3.3l3.9,1.1l2.8,2.2l1.7,1.7v5.5l-0.6,3.9l-3.3,1.7h-3.9h-2.8l-4.4,1.7l-0.6,3.9v5.5l1.7,6.6l3.9,1.7l3.3,2.8l4.4,3.9
		l2.8,5l4.4,2.2l0.5,3.3l1.7,2.2l2.8,1.1l3.3-2.2h2.8l1.1,1.1l1.1,2.8l2.8-1.1l1.7-1.7h2.8l5.5,2.8l0.6,3.3l-1.7,2.8l-1.7,2.8
		l2.2,2.8l3.9,2.2l5.5,2.2l28.7-1.7l4.4-1.7l2.2-2.8l2.8-2.8l4.4-3.9l3.3-3.9v-6.6l2.8-7.2l4.4-3.9l1.1-4.4l-1.7-1.7l0.5-6.1
		l1.1-4.4l1.6-5.5l-2.2-2.8l-1.7-2.2h-3.3l-2.2,0.6l-2.8,1.1l1.1-2.8l14.9-20.4l1.1-5.5l-2.8-4.4l-0.6-3.3l1.7-5.5l1.7-3.9l-3.9-5.5
		l-2.1-4.4h-7.2l-2.2,1.7l-3.9,1.1l-3.9,3.9l-3.3,1.7l-2.8-1.7l0.6-2.8l0.5-2.2l-1.7-3.3l-4.4-5l-4.4-4.4l-3.9-1.1l-2.8-4.4v-3.9
		l-1.7-2.8l-1.7-5l0.6-3.3l-2.8-3.3l-5.5-0.5l-4.4-0.6l-6.1,2.8l-5,0.6l-5,0.6l-1.7,2.2h-1.7l-1.7-1.7l-4.4-1.1l-5.5-1.1l-3.9-1.1
		l-3.3-0.5l-3.9,2.2v5.5l1.7,3.3l1.7,1.7l3.9,2.8v2.8l-5,1.1l-6.1,0.5h-3.9l-2.2,2.2L648.7,192.7z"/>
	<text transform="matrix(1 0 0 1 703.7324 253.5)"><tspan x="0" y="0" font-family="'MyriadPro-Regular'" font-size="12">M</tspan><tspan x="9.7" y="0" font-family="'MyriadPro-Regular'" font-size="12">o</tspan><tspan x="16.3" y="0" font-family="'MyriadPro-Regular'" font-size="12">r</tspan><tspan x="20.2" y="0" font-family="'MyriadPro-Regular'" font-size="12">azán</tspan></text>
</g>
<g id="d12">
	<path id="_x31_2_1_" fill="none" stroke="#000000" stroke-width="1.5" d="M728.6,317.1l-27.4,1.6l-5.5-2.2l-3.9-2.2l-2.2-2.8
		l1.7-2.8l1.7-2.8l-0.6-3.3l-5.5-2.8h-2.8l-1.7,1.7l-2.8,1.1l-1.1-2.8l-1.1-1.1h-2.8l-3.3,2.2l-2.8-1.1l-1.7-2.2l-0.5-3.3l-4.4-2.2
		l-2.8-5l-4.4-3.9l-3.3-2.8l-3.9-1.7l-1.7-6.6v-5.5l0.6-3.9l4.4-1.7h2.8h3.9l3.3-1.7l0.6-3.9v-5.5l-1.7-1.7l-2.8-2.2l-3.9-1.1
		l-2.8-3.3l-1.1-3.9l-1.1-2.8l-1.1-3.9l-2.2-4.4l11.6-6.6l-7.7-27.7l-0.6,2.9l-2.2,2.2l-5-1.7l-2.8,1.1l-1.1,1.1l-3.9,1.7l-1.7,2.8
		v3.3l-3.3,0.6l-1.7-1.1l-1.6,0.6h-2.2l-1.1-1.1h-2.8l-0.6,2.2v2.8l-3.9,1.1l-1.7-0.6l-1.7-2.2l-2.2-0.6h-3.3l-2.8,1.1l-3.9-1.1
		l-2.2-1.7l-5,1.7l-1.1,2.2l-1.1,3.9l-1.1,1.1h-1.7l-2.2-1.1l-2.2,1.7l-1.1,2.2H578l-1.1-2.8l-1.7-0.6h-2.2l-1-1l-1.3,1l-1.7,2.2
		l-0.5,2.8v1.7l-1.1,1.7v2.8v2.8l-1.7,1.7l-3.9,2.8v2.8l1.1,3.9l-1.7,2.8l-3.9,2.8l-1.1,2.8l0.5,5v3.3l-1.7,3.3l1.7,2.8l2.2,2.2
		l1.7,1.1l1.7-2.2h2.8l0.5,1.7l-1.1,3.9l4.4,3.3l3.9,0.5l4.4,2.2l3.9-1.7l4.4-0.6l2.2,2.8l2.8,3.9l3.9,3.9l5,2.2h3.9l3.3-2.2
		l1.7-0.5l1.7,3.9v4.4l-2.2,3.9l1.1,3.3l2.8,3.3v1.7l-1.1,2.2l-3.3,2.8l-1.6,2.8v6.6l2.2,5.5l1.1,2.8v7.2l2.8,7.2v2.8l-2.8,1.1
		l-1.7,2.2v3.9l-1.6,5l-1.7,3.3l-1.7,2.8v3.3l2.8-0.5l2.2-1.7l0.6,1.7v2.8v6.1l-0.6,5.5l-1.1,5l2.8,2.2l5.5,3.3l3.3,1.1l0.6,2.8
		l-0.6,3.9h3.3h3.3l3.3-1.1l2.2,1.1l3.3-2.2l2.8,1.1l1.7,2.2l-1.7,2.8l1.7,2.2l-1.1,3.3l-8.8,8.8l-1.1,3.3l2.2,4.4v3.3l3.3-0.6h4.4
		l3.9-0.5l-0.6-2.2l-1.6-2.2l-0.6-2.8l1.7-6.6l1.1-2.2l5-2.8l2.8,0.5l1.7,1.1l4.4,0.6l2.2-1.1l2.8,1.1l-1.6,2.8l3.3,2.8l1.7,2.2
		l1.7,2.2l-1.1,4.4l-1.1,4.4l-1.1,3.3l2.2,1.7h5.5l6.6,2.2l4.4,3.3l7.2,6.6l5,7.2l3.1,5.3l2.9-1.5l1.7-1.1h4.5l1.6-5V444l2.8-3.3
		l14.4-14.4l1.6-12.7v-5v-3.3l-1.6-3.3l1.1-1.7l4.4-5l-1.1-3.9l-1.7-1.7l-3.9-3.3l2.8-0.5l1.1-2.8l2.2-3.9l2.2-3.9l-0.6-5l-1.7-3.9
		l-1.7-4.4l-2.2-6.6v-2.2l-0.6-3.3l2.2-5l2.8-5l1.7-10.5v-4.4l-1.7-2.2l-0.6-2.8L728.6,317.1z"/>
	<text transform="matrix(1 0 0 1 657.6484 340.5)"><tspan x="0" y="0" font-family="'MyriadPro-Regular'" font-size="12">S</tspan><tspan x="6" y="0" font-family="'MyriadPro-Regular'" font-size="12">an </tspan><tspan x="20.9" y="0" font-family="'MyriadPro-Regular'" font-size="12">M</tspan><tspan x="30.7" y="0" font-family="'MyriadPro-Regular'" font-size="12">iguel</tspan></text>
</g>
<g id="d11">
	<path id="_x31_1_2_" fill="none" stroke="#000000" stroke-width="1.5" d="M566.7,269.9l0.3,0.8l1.1,2.2l2.2,1.7l-2.2,2.8l-3.3,1.7
		l-6.1,3.9l-6.1,3.3l-3.9,5.5l-1.7,5.5l-3.9,2.2l-0.6,3.3l-3.9,3.9l-7.2,2.2l-3.9-0.6h-3.9l-2.8,3.9l-1.7,2.8v2.2l-1.7,3.3h-2.8
		l-5,2.8l-1.7,6.1v5l-1.7,7.2l-1.1,5l-0.6,6.1l-3.3,2.2l-0.6,5.5l-1.1,3.3l-5.5,5l-3.9,6.6l-3.9,9.9v3.9l2.2,3.3l1.1,2.8l-3.3,2.2
		l-3.3,3.3l-3.3,3.9l-2.2,4.4l-3.3,2.2l-2.8,0.5l-2.2,1.1l-3.3,2.8l-3.3,1.7l-1.1,3.3l1.7,5.5l0.2,1.1l8.1,1.6l8.8,3.3l16,2.8
		l13.2,2.8l9.9,1.1l8.8,0.6l7.2,2.2l8.3,3.3l13.8,2.8l10.5,3.9l3.3,1.6l1.7-2.2L572,449l-1.7-1.7l-0.5-1.7L567,444l-13.8-3.3
		l-6.1-2.2l-1.7-1.1l2.2-1.1l0.5-2.2l-2.2-2.8l-9.9-8.8h-4.4l-6.6,1.1l-4.4,2.2l-2.8,2.2l-1.7,0.6L514,428l-3.3-1.7l-9.4-0.5l-5-1.1
		L493,422v-1.7l2.8-1.1l5.5,0.6l3.3-1.1l3.3,0.5l6.6,2.8l3.9-1.7l2.8-1.6v-2.8l-1.1-1.1l-0.5-1.7l2.8-0.5l6.6,2.8l12.2,1.1l8.8,3.3
		l3.9,4.4l2.2,3.3l-0.6,3.9l1.1,3.3c0,0,2.2,2.2,4.4,2.2s11.6,2.2,11.6,2.2h4.4l0.6-1.7l-3.3-2.8l-5-4.4l-1.7-3.3l0.6-3.3l2.2-1.7
		l4.4,0.6l5.5,6.1l6.6,7.2l3.3,5.5l-1.1,1.7H588l-1.1,3.9v5.5l5.5,2.2h6.6l5-0.5l1.7-1.7l-2.2-1.7l-1.1-1.1l1.1-1.1l7.2-1.6l1.7-1.7
		l-1.1-1.7l-2.2-1.1v-1.1l3.3-1.7h5.5l5,2.8l0.6,3.3l-2.8,2.2l-3.9,2.8l2.8,2.8l10.5,1.1l20.4,1.7l10,1.7h5.5l4.4-1.7l5.5-1.1
		l13.2,0.6l5.5,0.5l0.4-0.2l-3.1-5.3l-5-7.2l-7.2-6.6l-4.4-3.3l-6.6-2.2h-5.5l-2.2-1.7l1.1-3.3l1.1-4.4l1.1-4.4l-1.7-2.2l-1.7-2.2
		l-3.3-2.8l1.6-2.8l-2.8-1.1l-2.2,1.1l-4.4-0.6l-1.7-1.1l-2.8-0.5l-5,2.8l-1.1,2.2l-1.7,6.6l0.6,2.8l1.6,2.2l0.6,2.2l-3.9,0.5h-4.4
		l-3.3,0.6V422l-2.2-4.4l1.1-3.3l8.8-8.8l1.1-3.3l-1.7-2.2l1.7-2.8l-1.7-2.2l-2.8-1.1l-3.3,2.2l-2.2-1.1l-3.3,1.1h-3.3h-3.3l0.6-3.9
		l-0.6-2.8l-3.3-1.1L609,385l-2.8-2.2l1.1-5l0.6-5.5v-6.1v-2.8l-0.6-1.7l-2.2,1.7l-2.8,0.5v-3.3l1.7-2.8l1.7-3.3l1.6-5v-3.9l1.7-2.2
		l2.8-1.1v-2.8l-2.8-7.2v-7.2l-1.1-2.8l-2.2-5.5v-6.6l1.6-2.8l3.3-2.8l1.1-2.2v-1.7l-2.8-3.3l-1.1-3.3l2.2-3.9v-4.4l-1.7-3.9
		l-1.7,0.5l-3.3,2.2h-3.9l-5-2.2l-3.9-3.9l-2.8-3.9l-2.2-2.8l-4.4,0.6l-3.9,1.7l-4.4-2.2l-3.9-0.5L566.7,269.9z"/>
	<text transform="matrix(1 0 0 1 554.042 359.5)"><tspan x="0" y="0" font-family="'MyriadPro-Regular'" font-size="12">U</tspan><tspan x="7.7" y="0" font-family="'MyriadPro-Regular'" font-size="12">sulután</tspan></text>
</g>
<g id="d10">
	<path id="_x31_0_2_" fill="none" stroke="#000000" stroke-width="1.5" d="M431.7,279.9v3.5l1.1,1.1l1.1,2.8v6.6l1.7,7.7l2.8,2.8
		h3.9l7.2,2.8l2.2,0.5v2.8l2.8,2.2l2.8,5v1.1l2.2,6.1l2.2,3.3l1.7,2.2l-2.8,5.5l-2.8,5l-0.5,7.2l1.1,6.6l2.8,3.9l2.2,3.3l1.1,1.1
		l1.7,2.8l3.3,2.8l1.1,3.3l1.7,5.5l-2.2,8.3v2.8l-3.3,0.6l-2.8,1.7v3.3l1.7,2.8l2.2,3.3l-2.2,1.7l-3.3,1.7l-4.4,4.4l-4.4,6.1
		l-2.1,6.2l4.3,4.3l8.3,2.8l0.2,0l-0.2-1.1l-1.7-5.5l1.1-3.3l3.3-1.7l3.3-2.8l2.2-1.1l2.8-0.5l3.3-2.2l2.2-4.4l3.3-3.9l3.3-3.3
		l3.3-2.2l-1.1-2.8l-2.2-3.3V385l3.9-9.9l3.9-6.6l5.5-5l1.1-3.3l0.6-5.5l3.3-2.2l0.6-6.1l1.1-5l1.7-7.2v-5l1.7-6.1l5-2.8h2.8
		l1.7-3.3v-2.2l1.7-2.8l2.8-3.9h3.9l3.9,0.6l7.2-2.2l3.9-3.9l0.6-3.3l3.9-2.2l1.7-5.5l3.9-5.5l6.1-3.3l6.1-3.9l3.3-1.7l2.2-2.8
		l-2.2-1.7l-1.1-2.2l-0.3-0.8l-1.9-1.4l1.1-3.9l-0.5-1.7h-2.8l-1.7,2.2l-1.7-1.1l-2.2-2.2l-1.7-2.8l1.7-3.3v-0.5h-0.5l-10.5-1.1
		l-3.9-0.6h-5l-3.3-3.3l1.1-2.8l-2.2-0.6l-3.9-1.1l-5.5-2.2l-5-3.3l-3.3-2.8l-3.9-1.1l-4.4,2.2l-3.3-1.1l-5.5,1.1l-3.3-0.6l-3.9-1.6
		l-3.3-0.6l-3.3-1.1h-1.1l-3.3,2.8H477l-1.1,1.1l-3.3,1.1l-5,2.8h-3.9l-4.4,0.6l-0.5,1.7l-2.8,0.6l-3.3,1.6h-3.9l-2.8-0.7v2.3
		L445,253v5l-3.3,5l-1.1,3.9l1.1,2.2l1.7,4.4l-1.7,1.1h-3.9l-1.1,1.7l-2.2,3.3L431.7,279.9z"/>
	<text transform="matrix(1 0 0 1 487.6699 300.5)"><tspan x="0" y="0" font-family="'MyriadPro-Regular'" font-size="12">S</tspan><tspan x="6" y="0" font-family="'MyriadPro-Regular'" font-size="12">an</tspan><tspan x="18.4" y="0" font-family="'MyriadPro-Regular'" font-size="12"> </tspan><tspan x="20.5" y="0" font-family="'MyriadPro-Regular'" font-size="12">V</tspan><tspan x="27" y="0" font-family="'MyriadPro-Regular'" font-size="12">i</tspan><tspan x="29.8" y="0" font-family="'MyriadPro-Regular'" font-size="12">c</tspan><tspan x="35.1" y="0" font-family="'MyriadPro-Regular'" font-size="12">e</tspan><tspan x="41.1" y="0" font-family="'MyriadPro-Regular'" font-size="12">n</tspan><tspan x="47.7" y="0" font-family="'MyriadPro-Regular'" font-size="12">t</tspan><tspan x="51.6" y="0" font-family="'MyriadPro-Regular'" font-size="12">e</tspan></text>
</g>
<g id="d09">
	<path id="_x30_9" fill="none" stroke="#000000" stroke-width="1.5" d="M509.8,160.2l-0.8,0.6l-6.6,3.3l-1.7,0.6H498l-2.2,1.1
		l-3.3,1.7l-1.7-1.1l-3.3-0.6l-3.9,0.6l-2.2,0.5h-1.6l-3.9,5l-2.8,2.2h-3.3l-3.3,1.7l-4.4,1.1l-1.1-1.1l-3.3,1.1l-1.6,3.9l-3.9,0.6
		l-2.8-1.7l-5,1.7l-1.7,2.8l-1.6,1.1l-2.2,1.1l-3.3,2.2c0.1,0,0.4,0.2,0.4,0.2c0.2,0.1,0.2,0.2,0.2,0.2c0,0-0.1,0-0.3,0
		c-0.6-0.1-2-0.5-2-0.5h1.7c-0.4-0.2-0.9-0.5-2.2-1.1c-1.5-0.7-2.7-1.3-3.6-1.9s-1.5-1-2-1.4c-0.9-0.8-1-1.2-1-1.2l-3.9,0.5
		l-3.3,0.6l-2.8,2.2l-2.8,1.7l-2.8,2.8l-4.4,3.9l-4.4,3.3l-1.1,3.3l2.2,3.9l-1.1,2.8l-0.6,3.3l1.7,2.8l3.9,2.8l1.7,2.2h4.4l3.3,1.7
		l1.7,0.6l1.7,2.2l-0.6,1.1l1.7,2.2h3.3l3.3,2.2l-2.2,2.8l-2.8,2.2l2.8,2.8l3.9,1.1l6.6,1.7l3.3,0.5l5,6.1l4.4,1.1h3.9l3.3-1.6
		l2.8-0.6l0.5-1.7l4.4-0.6h3.9l5-2.8l3.3-1.1l1.1-1.1h2.8l3.3-2.8h1.1l3.3,1.1l3.3,0.6l3.9,1.6l3.3,0.6l5.5-1.1l3.3,1.1l4.4-2.2
		l3.9,1.1l3.3,2.8l5,3.3l5.5,2.2l3.9,1.1l2.2,0.6l-1.1,2.8l3.3,3.3h5l3.9,0.6l10.5,1.1h0.5v-2.8l-0.5-5l1.1-2.8l3.9-2.8l1.7-2.8
		l-1.1-3.9v-2.8l3.9-2.8l1.7-1.7v-2.8v-2.8l1.1-1.7v-1.7l0.5-2.8l1.7-2.2l1.3-1l-0.7-0.7v-3.9l-1.7-4.4l-3.3-4.4l-2.8-3.3l2.8-7.7
		v-2.8l3.9-2.2v-2.2l-1.1-1.6l-4.4-3.9l-5-5l-5,0.5l-3.9,0.6l-2.2-0.6l-3.9,1.7l-1.1-2.8l-2.8-3.3l-2.2-2.2l-1.1-0.6l-2.2-0.6h-2.8
		l-3.9-2.2l-2.8-2.2h-5l-4.4-1.1l-2.2-1.1l-1.7,1.7l-1.7,1.7L509.8,160.2z"/>
	<text transform="matrix(1 0 0 1 485.2666 208.5)"><tspan x="0" y="0" font-family="'MyriadPro-Regular'" font-size="12">C</tspan><tspan x="6.9" y="0" font-family="'MyriadPro-Regular'" font-size="12">abañas</tspan></text>
</g>
<g id="d08">
	<path id="_x30_8_1_" fill="none" stroke="#000000" stroke-width="1.5" d="M388.1,267.9h-5.5l-6.6-0.5l-6.1,1.1l-2.8,2.2l-2.8,2.8
		l0.6,5l1.7,2.2v2.8l-1.1,3.3l1.7,1.7v2.8l-0.6,2.2l-3.3,5l-4.4,2.2l-2.8-0.5l-7.7,0.5h-5l-1.1,1.7l1.1,3.3l1.1,1.1l1.1,2.2v2.2
		l1.7,1.1l1.1,1.7l1.1,3.3l-0.5,3.9l1.7,1.6l-0.6,1.7l-1.7,1.1l-1.7,1.6v3.9l-1.1,2.2l-3.3,3.3l1.1,2.8v3.9l1.1,2.8l1.7,2.2l1.1,1.1
		v1.1h-3.9l-1.7,2.2l1.1,2.8l1.7,1.7v4.4l-0.6,3.9l-0.4,0.8l2.1,0.9l8.3,4.4l5.5,3.3l5,2.2l7.2,6.1l9.9,3.9l8.8,3.9l12.2,5.5l11,6.6
		l7.2,2.8l10.5,4.4h4.4l2.2,1.1l1.1,3.3l2.2,1.1l6.1,1.7l3.9,2.8l0.1,0.1l2.1-6.2l4.4-6.1l4.4-4.4l3.3-1.7l2.2-1.7l-2.2-3.3
		l-1.7-2.8v-3.3l2.8-1.7l3.3-0.6v-2.8l2.2-8.3l-1.7-5.5l-1.1-3.3l-3.3-2.8l-1.7-2.8l-1.1-1.1l-2.2-3.3l-2.8-3.9l-1.1-6.6l0.5-7.2
		l2.8-5l2.8-5.5l-1.7-2.2l-2.2-3.3l-2.2-6.1v-1.1l-2.8-5l-2.8-2.2v-2.8l-2.2-0.5l-7.2-2.8h-3.9l-2.8-2.8l-1.7-7.7v-6.6l-1.1-2.8
		l-1.1-1.1v-3.5l-1.1,0.2h-6.1l-4.4,3.3v2.2l-1.1,3.9h-3.3l-5.5-1.7l-3.9-1.1l-1.1-2.8l-2.8-2.8l-2.8,1.1l-5-1.1L388.1,267.9z"/>
	<text transform="matrix(1 0 0 1 400.0083 336.5)"><tspan x="0" y="0" font-family="'MyriadPro-Regular'" font-size="12">La </tspan><tspan x="14" y="0" font-family="'MyriadPro-Regular'" font-size="12">P</tspan><tspan x="20.1" y="0" font-family="'MyriadPro-Regular'" font-size="12">az</tspan></text>
</g>
<g id="d07">
	<path id="_x30_7" fill="none" stroke="#000000" stroke-width="1.5" d="M351.1,143.7v1.7l-2.8,5l-3.9,3.3v3.3v3.3v4.4l-1.7,6.1
		l-1.7,4.4l-0.6,5.5l2.2,5.5l4.4,6.6l3.9,3.9l2.8,2.2l1.7,2.8l2.2,1.7l-2.2,2.2l-5,4.4l-1.7,0.6h-2.2l-1.7,2.2l1.7,3.9l1.1,2.8
		l2.2,1.7l1.7-1.7h3.9l3.9,2.8v3.9l2.2,4.4l2.8,2.8l2.8,3.3l2.2,0.5l1.1-1.7l3.3,0.6l5.5,14.9l8.8,17.1l6.6,13.2l5,1.1l2.8-1.1
		l2.8,2.8l1.1,2.8l3.9,1.1l5.5,1.7h3.3l1.1-3.9v-2.2l4.4-3.3h6.1l3.9-0.6l2.2-3.3l1.1-1.7h3.9l1.7-1.1l-1.7-4.4l-1.1-2.2l1.1-3.9
		l3.3-5v-5l1.1-4.4v-2.3l-1.7-0.4l-5-6.1l-3.3-0.5l-6.6-1.7l-3.9-1.1l-2.8-2.8l2.8-2.2l2.2-2.8l-3.3-2.2h-3.3l-1.7-2.2l0.6-1.1
		l-1.7-2.2l-1.7-0.6l-3.3-1.7h-4.4l-1.7-2.2l-3.9-2.8l-1.7-2.8l0.6-3.3l1.1-2.8l-2.2-3.9l1.1-3.3l4.4-3.3l4.4-3.9l2.8-2.8l2-1.2
		l-2.6-2.1h-3.3h-3.3h-2.8l-5-1.1l-3.9-2.8l-3.3-5l-1.7-6.1l-1.1-6.6l-1.7-5l-2.8-5l-5-3.9l-7.7-1.6l-7.2-2.2l-6.1-1.7h-6.1H351.1z"
		/>
	<text transform="matrix(1 0 0 1 392.0801 227.5)"><tspan x="0" y="0" font-family="'MyriadPro-Regular'" font-size="12">C</tspan><tspan x="6.8" y="0" font-family="'MyriadPro-Regular'" font-size="12">u</tspan><tspan x="13.4" y="0" font-family="'MyriadPro-Regular'" font-size="12">z</tspan><tspan x="18.5" y="0" font-family="'MyriadPro-Regular'" font-size="12">c</tspan><tspan x="23.9" y="0" font-family="'MyriadPro-Regular'" font-size="12">a</tspan><tspan x="29.6" y="0" font-family="'MyriadPro-Regular'" font-size="12">tlán</tspan></text>
</g>
<g id="d06">
	<path id="_x30_6_1_" fill="none" stroke="#000000" stroke-width="1.5" d="M306.6,148.4l-2.4,1.3l-0.6,2.8l-2.8,2.2v3.9l2.2,3.9
		l2.8,3.9l0.6,3.9l1.1,3.9v1.1l1.7,1.7L308,179l-1.1,2.2l1.1,1.7l6.1,1.1l6.1,2.2l2.8,2.8l-2.8,2.8l-3.3,3.9v3.9l-2.2,10.5v7.2
		l-3.3,3.9l-3.3,5l-1.6,6.6l1.1,3.3l-0.6,9.9l-3.3,6.1l-3.3,2.2l1.1,2.2l2.2,2.8l1.1,2.2l-1.7,2.8l0.5,2.8l2.2,1.1l1.7,1.7l3.9,3.3
		l2.8,1.1h2.2l1.1,1.1l1.1,3.3v2.2v2.2l-3.9,1.7v2.2v2.2l1.7,2.8l2.8,1.1h1.1l0.6,2.8l-2.8,2.2l-0.6,2.2v2.8v2.8l0.6,3.3l1.7,1.7
		v2.8v3.9l-2.8,3.9v2.8v3.3l1.7,2.8l1.1,1.6l1.6,1.7l0.6,1.1l1.7,2.2l0.6,1.7l1.1,3.9l0.5,3.3l2.2-2.8l1.7-2.8l2.8-1.7l1.7,1.7
		l5,1.1l2.8-0.6l1.7-0.9v-0.2l-1.1-2.8l3.3-3.3l1.1-2.2V327l1.7-1.6l1.7-1.1l0.6-1.7l-1.7-1.6l0.5-3.9l-1.1-3.3l-1.1-1.7l-1.7-1.1
		v-2.2l-1.1-2.2l-1.1-1.1l-1.1-3.3l1.1-1.7h5l7.7-0.5l2.8,0.5l4.4-2.2l3.3-5l0.6-2.2v-2.8l-1.7-1.7l1.1-3.3v-2.8l-1.7-2.2l-0.6-5
		l2.8-2.8l2.8-2.2l6.1-1.1l6.6,0.5h5.5l-8.8-17.1l-5.5-14.9l-3.3-0.6l-1.1,1.7l-2.2-0.5l-2.8-3.3l-2.8-2.8l-2.2-4.4v-3.9l-3.9-2.8
		h-3.9L350,221l-2.2-1.7l-1.1-2.8l-1.7-3.9l1.7-2.2h2.2l1.7-0.6l5-4.4l2.2-2.2l-2.2-1.7l-1.7-2.8l-2.8-2.2l-3.9-3.9l-4.4-6.6
		l-2.2-5.5l0.6-5.5l1.7-4.4l1.7-6.1v-4.4v-3.3v-3.3l3.9-3.3l2.8-5v-1.7h-2.8l-4.4,2.8l-3.3,2.8h-3.9L334,147h-2.2l-4.4,1.7l-3.3,1.7
		l-3.9-1.7l-1.7-1.7l-2.2-0.6l-6.1,1.1l-3.3,1.1L306.6,148.4z"/>
	<text transform="matrix(1 0 0 1 347.3525 259.5)"><tspan x="0" y="0" font-family="'MyriadPro-Regular'" font-size="12">S</tspan><tspan x="6" y="0" font-family="'MyriadPro-Regular'" font-size="12">an </tspan><tspan x="20.9" y="0" font-family="'MyriadPro-Regular'" font-size="12">S</tspan><tspan x="26.9" y="0" font-family="'MyriadPro-Regular'" font-size="12">al</tspan><tspan x="35.5" y="0" font-family="'MyriadPro-Regular'" font-size="12">v</tspan><tspan x="41.2" y="0" font-family="'MyriadPro-Regular'" font-size="12">ador</tspan></text>
</g>
<g id="d05">
	<path id="_x30_5_1_" fill="none" stroke="#000000" stroke-width="1.5" d="M267.3,153.6l-1.2,3.4l-3.9,3.3l-0.5,2.8v3.3v2.2L260,173
		l1.7,1.1l1.1,5v2.8l-5.5,3.3l-4.4,2.8l-5,1.1l-2.2,2.2l-3.3,5l-1.1,4.4l0.6,1.7l1.1,2.2l1.1,3.3v1.7l-2.2,4.4l1.1,1.7l1.1,2.2
		l-1.1,0.6l-0.5,2.2l1.1,1.1l0.6,1.1l-1.7,3.3l0.5,1.6v1.7l-3.9,1.1l-2.2,2.2v3.3l1.1,1.1v2.8l-2.2,2.2l2.2,1.1l1.7,0.6l2.8,0.5
		l1.7,1.1l0.5,2.8l-1.7,1.7l-1.7,2.2l-1.1,1.1h-5l-5,3.3l-0.6,3.3v2.8l-2.8,0.6l-1.1,0.5l-3.9,6.1l-3.3,1.7l-2.2,2.2l-1.7,2.2
		l1.7,2.8l1.1,1.1l-1.7,2.8l-0.6,3.9l-2.2,2.8l-3.9,3.9l-3.3,3.3v3.3l-1.1,4.4l-0.6,4.4l-3.3,2.8l-5,5l-3.9,4.4l-3.9,4.4l-1.1,2.2
		l-1.6,5l8.2,2.2h6.6l5,1.6l6.6,2.2l7.2,0.6l14.4-0.6l10.5,0.6h7.2h9.4l6.6,0.5l8.8,3.3l5.5,1.1l3.3,0.6l3.9-1.7h2.2h3.9l5,2.2
		l9.9,5.5l22.1,11l11.7,4.7l0.4-0.8l0.6-3.9v-4.4l-1.7-1.7l-1.1-2.8l1.7-2.2h3.9v-1.1l-1.1-1.1l-1.7-2.2l-1.1-2.8v-3.7l-1.7,0.9
		l-2.8,0.6l-5-1.1l-1.7-1.7l-2.8,1.7l-1.7,2.8l-2.2,2.8l-0.5-3.3l-1.1-3.9l-0.6-1.7l-1.7-2.2l-0.6-1.1l-1.6-1.7l-1.1-1.6l-1.7-2.8
		v-3.3v-2.8l2.8-3.9v-3.9v-2.8l-1.7-1.7l-0.6-3.3v-2.8V300l0.6-2.2l2.8-2.2l-0.6-2.8h-1.1l-2.8-1.1l-1.7-2.8v-2.2v-2.2l3.9-1.7v-2.2
		v-2.2l-1.1-3.3l-1.1-1.1h-2.2l-2.8-1.1l-3.9-3.3l-1.7-1.7l-2.2-1.1l-0.5-2.8l1.7-2.8l-1.1-2.2l-2.2-2.8l-1.1-2.2l3.3-2.2l3.3-6.1
		l0.6-9.9l-1.1-3.3l1.6-6.6l3.3-5l3.3-3.9v-7.2l2.2-10.5v-3.9l3.3-3.9l2.8-2.8l-2.8-2.8l-6.1-2.2l-6.1-1.1l-1.1-1.7l1.1-2.2l1.1-2.2
		l-1.7-1.7v-1.1l-1.1-3.9l-0.6-3.9l-2.8-3.9l-2.2-3.9v-3.9l2.8-2.2l0.6-2.8l2.4-1.3l-1.3-0.9l-1.7-1.1H302l-4.4,0.6l-1.6-0.6
		l-1.7-3.3l-4.4-1.7l-5.5,1.7l-2.8,0.5l-5,1.7l-3.9,1.7l-1.1,3.9v2.8H271h-3.3L267.3,153.6z"/>
	<text transform="matrix(1 0 0 1 270.5 267.2178)"><tspan x="0" y="0" font-family="'MyriadPro-Regular'" font-size="12">La Libe</tspan><tspan x="35.3" y="0" font-family="'MyriadPro-Regular'" font-size="12">r</tspan><tspan x="39.5" y="0" font-family="'MyriadPro-Regular'" font-size="12">tad</tspan></text>
</g>
<g id="d04">
	<path id="_x30_4" fill="none" stroke="#000000" stroke-width="1.5" d="M277.8,17.8l1,2.2l8.3,6.1l4.4,3.9l2.2,2.2v3.3l1.7,5.5
		l3.9,2.8l5.5,3.3l5,3.3l1.7,2.2v2.8v2.8l-2.2,5.5l-2.8,4.4l-1.1,6.1l-4.4,2.8l-7.7,2.2l-4.4,3.9l1.1,2.8l1.1,1.7v2.2l-1.7,2.2V94
		l1.1,2.2V99l-2.8,2.8l-1.1,2.8l-3.3,0.5l-7.2,2.8l-5,1.1l-1.1,2.2l-3.3,4.4l-5,3.3l-3.9,1.1v2.2l1.1,3.3l0.5,2.2v3.9l-1.1,1.1
		l-3.3,2.8l-1.7,2.8l-2.8,6.1l0.6,5.5l1.7,2.2l3.9,0.5h4.4l6.6,1.1h3.3h0.6v-2.8l1.1-3.9l3.9-1.7l5-1.7l2.8-0.5l5.5-1.7l4.4,1.7
		l1.7,3.3l1.6,0.6l4.4-0.6h1.6l1.7,1.1l1.7,1.1l3.3-1.1l6.1-1.1l2.2,0.6l1.7,1.7l3.9,1.7l3.3-1.7l4.4-1.7h2.2l2.8,2.2h3.9l3.3-2.8
		l4.4-2.8h4.4h6.1l6.1,1.7l7.2,2.2l7.7,1.6l5,3.9l2.8,5l1.7,5l1.1,6.6l1.7,6.1l3.3,5l3.9,2.8l5,1.1h2.8h3.3h3.3l2.6,2.1l0.7-0.4
		l2.8-2.2l3.3-0.6l3.9-0.5c0,0,0.2,0.4,1,1.2c0.4,0.4,1.1,0.8,2,1.4s2.1,1.2,3.6,1.9c1.3,0.6,1.8,0.9,2.2,1.1l3.3-2.2l2.2-1.1
		l1.6-1.1l1.7-2.8l5-1.7l2.8,1.7l3.9-0.6l1.6-3.9l3.3-1.1l1.1,1.1l4.4-1.1l3.3-1.7h3.3l2.8-2.2l3.9-5h1.6l2.2-0.5l3.9-0.6l3.3,0.6
		l1.7,1.1l3.3-1.7l2.2-1.1h2.8l1.7-0.6l6.6-3.3l0.8-0.6l-1.3-0.5l-1.7-2.8l1.1-2.8l-4.4-3.3l-5.5-1.1h-3.9l-3.9-2.8l-2.2-3.3
		l4.4-8.8l-1.7-5.5v-2.2l-1.1-1.7l-3.3,1.7l-6.1,2.2h-5l-2.2-2.2l-1.7-2.2l-2.8,1.7H466l-3.9-1.1l-4.4,1.7l-3.3-1.7l-1.1-3.3
		L450,120v-5l-2.2-2.8l-1.1-3.9l-1.1-4.4l-2.8-1.1l-7.7-2.2l-3.3-0.5v-2.8l-1.7-1.6l-3.9-2.2l-4.4,1.1l-5,1.1l-5-1.7l-3.3-2.8
		l-2.2-1.7l0.6-2.8l-1.7-1.7l-2.2-4.4l-3.3-3.9l-2.2-1.7l-3.3-2.2l-3.9-2.2l-0.6-1.1l0.6-3.9v-3.3l-0.6-1.7l-1.7-2.8v-5l-1.7-1.1
		l-0.5-1.1l-1.7-1.7l-3.3-0.6l-6.6-0.5l-3.9-0.6l-0.5-2.2l1.7-2.8v-3.3l-1.7-7.2l-2.2-5l-3.9-0.6l-4.4,1.1l-3.9,3.9l-5.5,7.2
		l-3.9,2.2l-8.3-2.8l-6.1-0.5l-5-1.7l-0.6-3.3l-1.1-2.2l-5-2.2l-3.3,1.1h-4.4l-5-2.2l-2.8-1.1l-5-3.9l-5.5-1.7l-5-0.5l-5.5-0.6
		l-3.9-1.7H277.8z"/>
	<text transform="matrix(1 0 0 1 370.5 116.5)"><tspan x="0" y="0" font-family="'MyriadPro-Regular'" font-size="12">Chal</tspan><tspan x="22.2" y="0" font-family="'MyriadPro-Regular'" font-size="12">a</tspan><tspan x="28" y="0" font-family="'MyriadPro-Regular'" font-size="12">t</tspan><tspan x="31.9" y="0" font-family="'MyriadPro-Regular'" font-size="12">enango</tspan></text>
</g>
<g id="d03">
	<path id="_x30_3" fill="none" stroke="#000000" stroke-width="1.5" d="M237.5,240.2l-6.2-2.6l-10.5-5l-11-5.5l-3.9-3.3l-3.9-1.1
		l-2.8,1.1l-3.9,2.8v3.3l-2.2,1.1l-5-7.7l-9.9-6.1l-6.1-6.6l-1.7-4.4l-3.3-3.9l-6.6-3.9l-5,0.6l-5,1.1h-6.6l-8.3,0.6h-7.2l-1.6,5
		l4.4,3.9l2.2,2.2v2.2l-2.8,3.9v2.8l-2.8,5.5v5.5l-1.7,5.5v3.3l1.1,3.9v2.2v3.9l-3.3,0.6l-3.9,3.9l-2.2,4.4l-1.7,5.5v2.2l-1.1,6.6
		l-3.3,1.1l-3.9,1.7h-4.4l-2.8-3.3l-3.3-1.7l-3.3-1.1l-2.8-2.2l-3.3-3.9l-1.1-1.7l-3.3,1.1l-2.2,3.3l-5,4.4l-3.3,3.3H69l-7.6,0.4
		l3.8,2.3l6.6,3.9l5,2.2l6.6,3.3l4.4,1.7l2.8,1.6l2.8,2.2l6.6,3.9l6.1,4.4l4.4,4.4l1.1,5l2.2,7.2l1.1,6.1l1.7,2.8l6.1,2.8l7.2,0.6
		l7.7-1.7h5l4.4,0.6l5-0.6l7.7-1.7l5.5,0.6l12.7,2.2l7.7,3.3l0.1,0l1.6-5l1.1-2.2l3.9-4.4l3.9-4.4l5-5l3.3-2.8l0.6-4.4l1.1-4.4v-3.3
		l3.3-3.3l3.9-3.9l2.2-2.8l0.6-3.9l1.7-2.8l-1.1-1.1l-1.7-2.8l1.7-2.2l2.2-2.2l3.3-1.7l3.9-6.1l1.1-0.5l2.8-0.6v-2.8l0.6-3.3l5-3.3
		h5l1.1-1.1l1.7-2.2l1.7-1.7l-0.5-2.8l-1.7-1.1l-2.8-0.5l-1.7-0.6l-2.2-1.1L237.5,240.2z"/>
	<text transform="matrix(1 0 0 1 170.5 263.5)"><tspan x="0" y="0" font-family="'MyriadPro-Regular'" font-size="12">S</tspan><tspan x="6" y="0" font-family="'MyriadPro-Regular'" font-size="12">onson</tspan><tspan x="37.2" y="0" font-family="'MyriadPro-Regular'" font-size="12">a</tspan><tspan x="43" y="0" font-family="'MyriadPro-Regular'" font-size="12">t</tspan><tspan x="46.9" y="0" font-family="'MyriadPro-Regular'" font-size="12">e</tspan></text>
</g>
<g id="d02">
	<path id="_x30_2" fill="none" stroke="#000000" stroke-width="1.5" d="M264.4,10l-2.2,0.6l-3.3,1.1l-0.6,2.8l-3.3,3.9l-3.3,1.1
		h-4.4l-2.8-2.2h-3.9l-6.1,0.6l-4.4,1.7l-3.9,1.7l-2.8,2.2l-2.2,5l-2.8,1.1l-4.4,0.6l1.7-2.2l-1.1-3.3l-1.1-2.2l-3.3-1.1l-5.5,1.1
		l-4.4,2.2l-2.8,5l0.6,3.9l2.8,1.7l1.7,2.2l2.2,1.7v2.8l-3.9,1.1l-4.4,3.9l-0.6,4.4v3.3h3.9l3.9-1.1l3.9,1.7l2.2,3.9l1.7,6.6
		l1.6,6.1l3.3,5l3.3,4.4v5L217,89l-2.8-1.1l-2.8-1.1l-5.5,3.3l-5.5,4.4l-12.2,1.1l-12.7,3.3l-6.1,3.9l-8.3,5l-6.1,7.7l-6.6,9.4
		l-2.2,7.7l-2.2,10.5v3.3l0.6,3.3v0.9l1.7,1.3l2.8,1.6l0.5,2.2l0.6,2.8l1.1,1.7l3.9,1.1l2.8,1.7v3.3l-0.6,5l-1.7,5l1.1,2.8l-2.8,5
		l-3.9,4.4v3.9v2.8v5h0.6l5-1.1l5-0.6l6.6,3.9l3.3,3.9l1.7,4.4l6.1,6.6l9.9,6.1l5,7.7l2.2-1.1v-3.3l3.9-2.8l2.8-1.1l3.9,1.1l3.9,3.3
		l11,5.5l10.5,5l6.2,2.6l0.4-0.4v-2.8l-1.1-1.1v-3.3l2.2-2.2l3.9-1.1v-1.7l-0.5-1.6l1.7-3.3l-0.6-1.1l-1.1-1.1l0.5-2.2l1.1-0.6
		l-1.1-2.2l-1.1-1.7l2.2-4.4v-1.7l-1.1-3.3l-1.1-2.2l-0.6-1.7l1.1-4.4l3.3-5l2.2-2.2l5-1.1l4.4-2.8l5.5-3.3V179l-1.1-5l-1.7-1.1
		l1.7-4.4v-2.2v-3.3l0.5-2.8l3.9-3.3l1.2-3.4l-6.2-1h-4.4l-3.9-0.5l-1.7-2.2l-0.6-5.5l2.8-6.1l1.7-2.8l3.3-2.8l1.1-1.1v-3.9
		l-0.5-2.2l-1.1-3.3v-2.2l3.9-1.1l5-3.3l3.3-4.4l1.1-2.2l5-1.1l7.2-2.8l3.3-0.5l1.1-2.8l2.8-2.8v-2.8l-1.1-2.2v-2.2l1.7-2.2v-2.2
		l-1.1-1.7l-1.1-2.8l4.4-3.9l7.7-2.2l4.4-2.8l1.1-6.1l2.8-4.4l2.2-5.5v-2.8v-2.8l-1.7-2.2l-5-3.3l-5.5-3.3l-3.9-2.8l-1.7-5.5v-3.3
		l-2.2-2.2l-4.4-3.9l-8.3-6.1l-1-2.2h-0.7l-4.4-1.7l-1.1-3.3l-2.2,0.6l-0.5,1.7h-2.2l-0.5-1.7L264.4,10z"/>
	<text transform="matrix(1 0 0 1 198.5 144.0498)"><tspan x="0" y="0" font-family="'MyriadPro-Regular'" font-size="12">S</tspan><tspan x="6" y="0" font-family="'MyriadPro-Regular'" font-size="12">a</tspan><tspan x="11.7" y="0" font-family="'MyriadPro-Regular'" font-size="12">n</tspan><tspan x="18.3" y="0" font-family="'MyriadPro-Regular'" font-size="12">ta </tspan><tspan x="30.6" y="0" font-family="'MyriadPro-Regular'" font-size="12">A</tspan><tspan x="38" y="0" font-family="'MyriadPro-Regular'" font-size="12">na</tspan></text>
</g>
<g id="d01">
	<path id="_x30_1" fill="none" stroke="#000000" stroke-width="1.5" d="M150.1,200v-5v-2.8v-3.9l3.9-4.4l2.8-5l-1.1-2.8l1.7-5l0.6-5
		V163l-2.8-1.7l-3.9-1.1l-1.1-1.7l-0.6-2.8l-0.5-2.2l-2.8-1.6l-1.7-1.3v0.7l-5.5,1.1l-11.6-2.8l-5-2.2l-2.2-3.3l-3.9-2.8l-3.3,1.7
		l-2.8,1.1H106l-1.7,2.8l-3.9,1.7h-5.5l-4.4,1.1l-3.3,3.9l-2.2,5l-3.9,1.7l-3.9,2.2v1.1l-1.7,3.3l-9.4,5.5l-5,3.9l-5,1.7l-3.9,2.2
		l-0.6,3.9l-3.9,0.6l-2.8,1.6l-1.7,5.5l-0.6,2.2v3.9l-4.4,2.8L28.1,205l-2.8,3.3l-0.5,2.8l-3.3,2.8l-3.3,2.8l-2.8,5l1.7,6.6
		l-3.3,1.7l-1.1,5v4.4l3.3,2.2l3.3,1.7v2.8l2.8,2.2l-0.5,2.2l-2.8,1.7l-4.4,0.6h-2.8l-1.6,1.7l2.2,0.5l2.8,1.1l22.6,9.4l5.5,1.1
		l4.4,2.2l13.2,6.1l0.7,0.4l7.6-0.4h4.4l3.3-3.3l5-4.4l2.2-3.3l3.3-1.1l1.1,1.7l3.3,3.9l2.8,2.2l3.3,1.1l3.3,1.7l2.8,3.3h4.4
		l3.9-1.7l3.3-1.1l1.1-6.6v-2.2l1.7-5.5l2.2-4.4l3.9-3.9l3.3-0.6v-3.9v-2.2l-1.1-3.9V237l1.7-5.5V226l2.8-5.5v-2.8l2.8-3.9v-2.2
		l-2.2-2.2l-4.4-3.9l1.6-5h7.2l8.3-0.6H150.1z"/>
	<text transform="matrix(1 0 0 1 81.5 216.5)"><tspan x="0" y="0" font-family="'MyriadPro-Regular'" font-size="12">A</tspan><tspan x="7.3" y="0" font-family="'MyriadPro-Regular'" font-size="12">huachapán</tspan></text>
</g>
</svg>
