<?xml version="1.0" encoding="utf-8"?>
<!-- Generator: Adobe Illustrator 15.0.0, SVG Export Plug-In . SVG Version: 6.00 Build 0)  -->
<!DOCTYPE svg PUBLIC "-//W3C//DTD SVG 1.1//EN" "http://www.w3.org/Graphics/SVG/1.1/DTD/svg11.dtd">
<svg version="1.1"
	 id="svg1306" xmlns:dc="http://purl.org/dc/elements/1.1/" sodipodi:docbase="C:\Documents and Settings\Rub√©n\Mis documentos\Mis im√°genes\wikipedia" sodipodi:docname="Departments of El Salvador.svg" sodipodi:version="0.32" xmlns:sodipodi="http://inkscape.sourceforge.net/DTD/sodipodi-0.dtd" inkscape:version="0.43" xmlns:svg="http://www.w3.org/2000/svg" xmlns:rdf="http://www.w3.org/1999/02/22-rdf-syntax-ns#" xmlns:cc="http://web.resource.org/cc/" xmlns:inkscape="http://www.inkscape.org/namespaces/inkscape"
	 xmlns="http://www.w3.org/2000/svg" xmlns:xlink="http://www.w3.org/1999/xlink" x="0px" y="0px" width="870px" height="480px"
	 viewBox="0 0 870 480" enable-background="new 0 0 870 480" xml:space="preserve">
<path id="shadow" fill="#9E9E9E" d="M242,45.4l-2,0.5l-3,1l-0.5,2.5l-3,3.5l-3,1h-4l-2.5-2h-3.5l-5.5,0.5l-4,1.5l-3.5,1.5l-2.5,2
	l-2,4.5l-2.5,1l-4,0.5l1.5-2l-1-3l-1-2l-3-1l-5,1l-4,2l-2.5,4.5l0.5,3.5l2.5,1.5l1.5,2l2,1.5v2.5l-3.5,1l-4,3.5l-0.5,4v3h3.5l3.5-1
	l3.5,1.5l2,3.5l1.5,6l1.5,5.5l3,4.5l3,4v4.5l-2.5,3l-2.5-1l-2.5-1l-5,3l-5,4l-11,1l-11.5,3l-5.5,3.5l-7.5,4.5l-5.5,7l-6,8.5l-2,7
	l-2,9.5v3l0.5,3v0.8v0.7l-5,1l-10.5-2.5l-4.5-2l-2-3l-3.5-2.5l-3,1.5l-2.5,1h-4l-1.5,2.5l-3.5,1.5h-5l-4,1l-3,3.5l-2,4.5l-3.5,1.5
	l-3.5,2v1l-1.5,3l-8.5,5l-4.5,3.5l-4.5,1.5l-3.5,2l-0.5,3.5l-3.5,0.5l-2.5,1.5l-1.5,5l-0.5,2v3.5l-4,2.5l-9.5,4l-2.5,3l-0.5,2.5
	l-3,2.5l-3,2.5l-2.5,4.5l1.5,6l-3,1.5l-1,4.5v4l3,2l3,1.5v2.5l2.5,2l-0.5,2l-2.5,1.5l-4,0.5h-2.5l-1.5,1.5l2,0.5l2.5,1l20.5,8.5l5,1
	l4,2l12,5.5l0.6,0.4l3.4,2.1l6,3.5l4.5,2l6,3l4,1.5l2.5,1.5l2.5,2l6,3.5l5.5,4l4,4l1,4.5l2,6.5l1,5.5l1.5,2.5l5.5,2.5l6.5,0.5l7-1.5
	h4.5l4,0.5l4.5-0.5l7-1.5l5,0.5l11.5,2l7,3l0.1,0l7.4,2h6l4.5,1.5l6,2l6.5,0.5l13-0.5l9.5,0.5h6.5h8.5l6,0.5l8,3l5,1l3,0.5l3.5-1.5
	h2h3.5l4.5,2l9,5l20,10l10.6,4.2l1.9,0.8l7.5,4l5,3l4.5,2l6.5,5.5l9,3.5l8,3.5l11,5l10,6l6.5,2.5l9.5,4h4l2,1l1,3l2,1l5.5,1.5
	l3.5,2.5l0.1,0.1l3.9,3.9l7.5,2.5l0.2,0l7.3,1.5l8,3l14.5,2.5l12,2.5l9,1l8,0.5l6.5,2l7.5,3l12.5,2.5l9.5,3.5l3,1.5l1.5-2l-1.5-1.5
	l-1.5-1.5l-0.5-1.5l-2.5-1.5l-12.5-3l-5.5-2l-1.5-1l2-1l0.5-2l-2-2.5l-9-8h-4l-6,1l-4,2l-2.5,2l-1.5,0.5l-2-0.5l-3-1.5l-8.5-0.5
	l-4.5-1l-3-2.5v-1.5l2.5-1l5,0.5l3-1l3,0.5l6,2.5l3.5-1.5l2.5-1.5v-2.5l-1-1l-0.5-1.5l2.5-0.5l6,2.5l11,1l8,3l3.5,4l2,3l-0.5,3.5
	l1,3c0,0,2,2,4,2s10.5,2,10.5,2h4l0.5-1.5l-3-2.5l-4.5-4l-1.5-3l0.5-3l2-1.5l4,0.5l5,5.5l6,6.5l3,5l-1,1.5h-1l-1,3.5v5l5,2h6
	l4.5-0.5l1.5-1.5l-2-1.5l-1-1l1-1l6.5-1.5l1.5-1.5l-1-1.5l-2-1v-1l3-1.5h5l4.5,2.5l0.5,3l-2.5,2l-3.5,2.5l2.5,2.5l9.5,1l18.5,1.5
	l9,1.5h5l4-1.5l5-1l12,0.5l5,0.5l0.3-0.2l2.6-1.3l1.5-1h4.1h1.4l15.5,0.5l14,2l11,1.5l11,1l5-0.5l3-2l-1-1l-3.5-2l-1-1.5v-1l-1.5-1
	l-2-0.5l-2-2.5l1.5-1.5l7-1.5l4-2l7-3l3-2.5l5-1l7.5-4l4.5-4l4-7l3-5l-2.5-2.5l-2-1l-4.5-2l-0.5-1.5v-1l-1.5-2l-9.5-3.5l-3-3l-2-1
	l-1-3l-1.5-6.5l3.5-10l2.5-4.5l3.5-1h3.5l-1,2v2.5l4,1h4l5.5,1.5l3-2l0.5-2l3-1.5l1-2l3.5-2l3.5-0.5l3-1.5l3-1l0.5-3.5l1.5-5
	l-1.5-3.5l-4.5-3.5l-3-1l-1-3.5l-1,0.5l-3,1.5h-3l-1-1.5l-2-0.5l-3-1v-1.5l3.5-1.5v-3l-1-3.5l0.5-2.5v-2v-3l3-2.5l0.5-2.5l2-2l2-3
	l1.5-6.5l1-15l3-6.5l2.5-5.5l0.5-6.5l-0.5-2.5l2-4l2-2.5l2-4l2.5-6l-0.5-3l-0.5-2l-1-1l-4-3l-3.5-3.5l-3.5-8.5l-3-4.5l-5.5-1.5l-2-3
	l-3-2l-0.5-3.5l-1-1l-8-0.5l-5.5,1l-2.5,2.5h-7l-4.5-1l-3.5,0.5l-2.5,1.5l-3,0.5h-2l-2.5,0.5l-3.5-1.5h-0.9h-6.6l-2,1.5l-3.5,1
	l-3.5,3.5l-3,1.5l-2.5-1.5l0.5-2.5l0.5-2l-1.5-3l-4-4.5l-4-4l-3.5-1l-2.5-4v-3.5l-1.5-2.5l-1.5-4.5l0.5-3l-2.5-3l-5-0.5l-4-0.5
	l-5.5,2.5l-4.5,0.5l-4.5,0.5l-1.5,2h-1.5l-1.5-1.5l-4-1l-5-1l-3.5-1l-3-0.5l-3.5,2v5l1.5,3l1.5,1.5l3.5,2.5v2.5l-4.5,1l-5.5,0.5
	h-3.5l-2,2l-0.5,2.4l-0.5,2.6l-2,2l-4.5-1.5l-2.5,1l-1,1l-3.5,1.5l-1.5,2.5v3l-3,0.5l-1.5-1l-1.5,0.5h-2l-1-1h-2.5l-0.5,2v2.5
	l-3.5,1l-1.5-0.5l-1.5-2l-2-0.5h-3l-2.5,1l-3.5-1l-2-1.5l-4.5,1.5l-1,2l-1,3.5l-1,1h-1.5l-2-1l-2,1.5l-1,2h-3l-1-2.5l-1.5-0.5h-2
	l-0.9-0.9l-0.6-0.6v-3.5l-1.5-4l-3-4l-2.5-3l2.5-7v-2.5l3.5-2v-2l-1-1.5l-4-3.5l-4.5-4.5l-4.5,0.5l-3.5,0.5l-2-0.5l-3.5,1.5l-1-2.5
	l-2.5-3l-2-2l-1-0.5l-2-0.5h-2.5l-3.5-2l-2.5-2h-4.5l-4-1l-2-1l-1.5,1.5l-1.5,1.5l-1.3-0.5l-1.2-0.5l-1.5-2.5l1-2.5l-4-3l-5-1h-3.5
	l-3.5-2.5l-2-3l4-8l-1.5-5v-2l-1-1.5l-3,1.5l-5.5,2h-4.5l-2-2l-1.5-2l-2.5,1.5h-2.5l-3.5-1l-4,1.5l-3-1.5l-1-3l-3-2v-4.5l-2-2.5
	l-1-3.5l-1-4l-2.5-1l-7-2l-3-0.5v-2.5l-1.5-1.5l-3.5-2l-4,1l-4.5,1l-4.5-1.5l-3-2.5l-2-1.5l0.5-2.5l-1.5-1.5l-2-4l-3-3.5l-2-1.5
	l-3-2l-3.5-2l-0.5-1l0.5-3.5v-3l-0.5-1.5l-1.5-2.5v-4.5l-1.5-1l-0.5-1l-1.5-1.5l-3-0.5l-6-0.5l-3.5-0.5l-0.5-2l1.5-2.5v-3l-1.5-6.5
	l-2-4.5l-3.5-0.5l-4,1l-3.5,3.5l-5,6.5l-3.5,2l-7.5-2.5l-5.5-0.5l-4.5-1.5l-0.5-3l-1-2l-4.5-2l-3,1h-4l-4.5-2l-2.5-1l-4.5-3.5
	l-5-1.5l-4.5-0.5l-5-0.5l-3.5-1.5h-1.9h-0.6l-4-1.5l-1-3l-2,0.5l-0.5,1.5h-2l-0.5-1.5L242,45.4z"/>
<path id="background" fill="#E8E8E8" stroke="#000000" stroke-width="3" d="M241.1,41.9l-2,0.5l-3,1l-0.5,2.5l-3,3.5l-3,1h-4l-2.5-2
	h-3.5l-5.5,0.5l-4,1.5l-3.5,1.5l-2.5,2l-2,4.5l-2.5,1l-4,0.5l1.5-2l-1-3l-1-2l-3-1l-5,1l-4,2l-2.5,4.5l0.5,3.5l2.5,1.5l1.5,2l2,1.5
	v2.5l-3.5,1l-4,3.5l-0.5,4v3h3.5l3.5-1l3.5,1.5l2,3.5l1.5,6l1.5,5.5l3,4.5l3,4v4.5l-2.5,3l-2.5-1l-2.5-1l-5,3l-5,4l-11,1l-11.5,3
	l-5.5,3.5l-7.5,4.5l-5.5,7l-6,8.5l-2,7l-2,9.5v3l0.5,3v0.8v0.7l-5,1l-10.5-2.5l-4.5-2l-2-3l-3.5-2.5l-3,1.5l-2.5,1h-4l-1.5,2.5
	l-3.5,1.5h-5l-4,1l-3,3.5l-2,4.5l-3.5,1.5l-3.5,2v1l-1.5,3l-8.5,5l-4.5,3.5l-4.5,1.5l-3.5,2l-0.5,3.5l-3.5,0.5l-2.5,1.5l-1.5,5
	l-0.5,2v3.5l-4,2.5l-9.5,4l-2.5,3l-0.5,2.5l-3,2.5l-3,2.5l-2.5,4.5l1.5,6l-3,1.5l-1,4.5v4l3,2l3,1.5v2.5l2.5,2l-0.5,2l-2.5,1.5
	l-4,0.5h-2.5l-1.5,1.5l2,0.5l2.5,1l20.5,8.5l5,1l4,2l12,5.5l0.6,0.4l3.4,2.1l6,3.5l4.5,2l6,3l4,1.5l2.5,1.5l2.5,2l6,3.5l5.5,4l4,4
	l1,4.5l2,6.5l1,5.5l1.5,2.5l5.5,2.5l6.5,0.5l7-1.5h4.5l4,0.5l4.5-0.5l7-1.5l5,0.5l11.5,2l7,3l0.1,0l7.4,2h6l4.5,1.5l6,2l6.5,0.5
	l13-0.5l9.5,0.5h6.5h8.5l6,0.5l8,3l5,1l3,0.5l3.5-1.5h2h3.5l4.5,2l9,5l20,10l10.6,4.2l1.9,0.8l7.5,4l5,3l4.5,2l6.5,5.5l9,3.5l8,3.5
	l11,5l10,6l6.5,2.5l9.5,4h4l2,1l1,3l2,1l5.5,1.5l3.5,2.5l0.1,0.1l3.9,3.9l7.5,2.5l0.2,0l7.3,1.5l8,3l14.5,2.5l12,2.5l9,1l8,0.5
	l6.5,2l7.5,3l12.5,2.5l9.5,3.5l3,1.5l1.5-2l-1.5-1.5l-1.5-1.5l-0.5-1.5l-2.5-1.5l-12.5-3l-5.5-2l-1.5-1l2-1l0.5-2l-2-2.5l-9-8h-4
	l-6,1l-4,2l-2.5,2l-1.5,0.5l-2-0.5l-3-1.5l-8.5-0.5l-4.5-1l-3-2.5v-1.5l2.5-1l5,0.5l3-1l3,0.5l6,2.5l3.5-1.5l2.5-1.5v-2.5l-1-1
	l-0.5-1.5l2.5-0.5l6,2.5l11,1l8,3l3.5,4l2,3l-0.5,3.5l1,3c0,0,2,2,4,2c2,0,10.5,2,10.5,2h4l0.5-1.5l-3-2.5l-4.5-4l-1.5-3l0.5-3
	l2-1.5l4,0.5l5,5.5l6,6.5l3,5l-1,1.5h-1l-1,3.5v5l5,2h6l4.5-0.5l1.5-1.5l-2-1.5l-1-1l1-1l6.5-1.5l1.5-1.5l-1-1.5l-2-1v-1l3-1.5h5
	l4.5,2.5l0.5,3l-2.5,2l-3.5,2.5l2.5,2.5l9.5,1l18.5,1.5l9,1.5h5l4-1.5l5-1l12,0.5l5,0.5l0.3-0.2l2.7-1.3l1.5-1h4.1h1.4l15.5,0.5
	l14,2l11,1.5l11,1l5-0.5l3-2l-1-1l-3.5-2l-1-1.5v-1l-1.5-1l-2-0.5l-2-2.5l1.5-1.5l7-1.5l4-2l7-3l3-2.5l5-1l7.5-4l4.5-4l4-7l3-5
	l-2.5-2.5l-2-1l-4.5-2l-0.5-1.5v-1l-1.5-2l-9.5-3.5l-3-3l-2-1l-1-3l-1.5-6.5l3.5-10l2.5-4.5l3.5-1h3.5l-1,2v2.5l4,1h4l5.5,1.5l3-2
	l0.5-2l3-1.5l1-2l3.5-2l3.5-0.5l3-1.5l3-1l0.5-3.5l1.5-5l-1.5-3.5l-4.5-3.5l-3-1l-1-3.5l-1,0.5l-3,1.5h-3l-1-1.5l-2-0.5l-3-1v-1.5
	l3.5-1.5v-3l-1-3.5l0.5-2.5v-2v-3l3-2.5l0.5-2.5l2-2l2-3l1.5-6.5l1-15l3-6.5l2.5-5.5l0.5-6.5l-0.5-2.5l2-4l2-2.5l2-4l2.5-6l-0.5-3
	l-0.5-2l-1-1l-4-3l-3.5-3.5l-3.5-8.5l-3-4.5l-5.5-1.5l-2-3l-3-2l-0.5-3.5l-1-1l-8-0.5l-5.5,1l-2.5,2.5h-7l-4.5-1l-3.5,0.5l-2.5,1.5
	l-3,0.5h-2l-2.5,0.5l-3.5-1.5h-0.9h-6.6l-2,1.5l-3.5,1l-3.5,3.5l-3,1.5l-2.5-1.5l0.5-2.5l0.5-2l-1.5-3l-4-4.5l-4-4l-3.5-1l-2.5-4
	v-3.5l-1.5-2.5l-1.5-4.5l0.5-3l-2.5-3l-5-0.5l-4-0.5l-5.5,2.5l-4.5,0.5l-4.5,0.5l-1.5,2h-1.5l-1.5-1.5l-4-1l-5-1l-3.5-1l-3-0.5
	l-3.5,2v5l1.5,3l1.5,1.5l3.5,2.5v2.5l-4.5,1l-5.5,0.5h-3.5l-2,2l-0.5,2.4l-0.5,2.6l-2,2l-4.5-1.5l-2.5,1l-1,1l-3.5,1.5l-1.5,2.5v3
	l-3,0.5l-1.5-1l-1.5,0.5h-2l-1-1h-2.5l-0.5,2v2.5l-3.5,1l-1.5-0.5l-1.5-2l-2-0.5h-3l-2.5,1l-3.5-1l-2-1.5l-4.5,1.5l-1,2l-1,3.5l-1,1
	h-1.5l-2-1l-2,1.5l-1,2h-3l-1-2.5l-1.5-0.5h-2l-0.9-0.9l-0.6-0.6v-3.5l-1.5-4l-3-4l-2.5-3l2.5-7v-2.5l3.5-2v-2l-1-1.5l-4-3.5
	l-4.5-4.5l-4.5,0.5l-3.5,0.5l-2-0.5l-3.5,1.5l-1-2.5l-2.5-3l-2-2l-1-0.5l-2-0.5h-2.5l-3.5-2l-2.5-2h-4.5l-4-1l-2-1l-1.5,1.5
	l-1.5,1.5l-1.3-0.5l-1.2-0.5l-1.5-2.5l1-2.5l-4-3l-5-1h-3.5l-3.5-2.5l-2-3l4-8l-1.5-5v-2l-1-1.5l-3,1.5l-5.5,2H432l-2-2l-1.5-2
	l-2.5,1.5h-2.5l-3.5-1l-4,1.5l-3-1.5l-1-3l-3-2v-4.5l-2-2.5l-1-3.5l-1-4l-2.5-1l-7-2l-3-0.5v-2.5l-1.5-1.5l-3.5-2l-4,1l-4.5,1
	l-4.5-1.5l-3-2.5l-2-1.5l0.5-2.5l-1.5-1.5l-2-4l-3-3.5l-2-1.5l-3-2l-3.5-2l-0.5-1l0.5-3.5v-3l-0.5-1.5l-1.5-2.5v-4.5l-1.5-1l-0.5-1
	l-1.5-1.5l-3-0.5l-6-0.5l-3.5-0.5l-0.5-2l1.5-2.5v-3l-1.5-6.5l-2-4.5l-3.5-0.5l-4,1l-3.5,3.5l-5,6.5l-3.5,2l-7.5-2.5l-5.5-0.5
	l-4.5-1.5l-0.5-3l-1-2l-4.5-2l-3,1h-4l-4.5-2l-2.5-1l-4.5-3.5l-5-1.5l-4.5-0.5l-5-0.5l-3.5-1.5h-1.9h-0.6l-4-1.5l-1-3l-2,0.5
	l-0.5,1.5h-2l-0.5-1.5L241.1,41.9z"/>
<g id="d14">
	<path id="_x31_4" fill="none" stroke="#000000" stroke-width="1.5" d="M660.2,317.9l-0.8,2.9l0.5,2.5l1.5,2v4l-1.5,9.5l-2.5,4.5
		l-2,4.5l0.5,3v2l2,6l1.5,4l1.5,3.5l0.5,4.5l-2,3.5l-2,3.5l-1,2.5l-2.5,0.5l3.5,3l1.5,1.5l1,3.5l-4,4.5l-1,1.5l1.5,3v3v4.5
		l-1.5,11.5l-13,13l-2.5,3v4l-1.4,4.5h1.4l15.5,0.5l14,2l11,1.5l11,1l5-0.5l3-2l-1-1l-3.5-2l-1-1.5v-1l-1.5-1l-2-0.5l-2-2.5l1.5-1.5
		l7-1.5l4-2l7-3l3-2.5l5-1l7.5-4l4.5-4l4-7l3-5l-2.5-2.5l-2-1l-4.5-2l-0.5-1.5v-1l-1.5-2l-9.5-3.5l-3-3l-2-1l-1-3l-1.5-6.5l3.5-10
		l2.5-4.5l3.5-1h3.5l-1,2v2.5l4,1h4l5.5,1.5l3-2l0.5-2l3-1.5l1-2l3.5-2l3.5-0.5l3-1.5l3-1l0.5-3.5l1.5-5l-1.5-3.5l-4.5-3.5l-3-1
		l-1-3.5l-1,0.5l-3,1.5h-3l-1-1.5l-2-0.5l-3-1v-1.5l3.5-1.5v-3l-1-3.5l0.5-2.5v-2v-3l3-2.5l0.5-2.5l2-2l2-3l1.5-6.5l1-15l3-6.5
		l2.5-5.5l0.5-6.5l-0.5-2.5l2-4l2-2.5l2-4l2.5-6l-0.5-3l-0.5-2l-1-1l-4-3l-3.5-3.5l-3.5-8.5l-3-4.5l-5.5-1.5l-2-3l-3-2l-0.5-3.5
		l-1-1l-8-0.5l-5.5,1l-2.5,2.5h-7l-4.5-1l-3.5,0.5l-2.5,1.5l-3,0.5h-2l-2.5,0.5l-3.5-1.5h-0.9l1.9,4l3.5,5l-1.5,3.5l-1.5,5l0.5,3
		l2.5,4l-1,5l-13.5,18.5l-1,2.5l2.5-1l2-0.5h3l1.5,2l2,2.5l-1.5,5l-1,4l-0.5,5.5l1.5,1.5l-1,4l-4,3.5l-2.5,6.5v6l-3,3.5l-4,3.5
		l-2.5,2.5l-2,2.5l-4,1.5L660.2,317.9z"/>
	<text transform="matrix(1 0 0 1 696.9795 339.9434)" font-family="'MyriadPro-Regular'" font-size="10.8577">La Unión</text>
</g>
<g id="d13">
	<path id="_x31_3_1_" fill="none" stroke="#000000" stroke-width="1.5" d="M587.9,205.3l7,25.1l-10.5,6l2,4l1,3.5l1,2.5l1,3.5l2.5,3
		l3.5,1l2.5,2l1.5,1.5v5l-0.5,3.5l-3,1.5h-3.5h-2.5l-4,1.5l-0.5,3.5v5l1.5,6l3.5,1.5l3,2.5l4,3.5l2.5,4.5l4,2l0.5,3l1.5,2l2.5,1l3-2
		h2.5l1,1l1,2.5l2.5-1l1.5-1.5h2.5l5,2.5l0.5,3l-1.5,2.5l-1.5,2.5l2,2.5l3.5,2l5,2l26-1.5l4-1.5l2-2.5l2.5-2.5l4-3.5l3-3.5v-6
		l2.5-6.5l4-3.5l1-4l-1.5-1.5l0.5-5.5l1-4l1.5-5l-2-2.5l-1.5-2h-3l-2,0.5l-2.5,1l1-2.5l13.5-18.5l1-5l-2.5-4l-0.5-3l1.5-5l1.5-3.5
		l-3.5-5l-1.9-4h-6.6l-2,1.5l-3.5,1l-3.5,3.5l-3,1.5l-2.5-1.5l0.5-2.5l0.5-2l-1.5-3l-4-4.5l-4-4l-3.5-1l-2.5-4v-3.5l-1.5-2.5
		l-1.5-4.5l0.5-3l-2.5-3l-5-0.5l-4-0.5l-5.5,2.5l-4.5,0.5l-4.5,0.5l-1.5,2h-1.5l-1.5-1.5l-4-1l-5-1l-3.5-1l-3-0.5l-3.5,2v5l1.5,3
		l1.5,1.5l3.5,2.5v2.5l-4.5,1l-5.5,0.5h-3.5l-2,2L587.9,205.3z"/>
	<text transform="matrix(1 0 0 1 637.6904 260.3203)" font-family="'MyriadPro-Regular'" font-size="10.8577">Morazán</text>
</g>
<g id="d12">
	<path id="_x31_2_1_" fill="none" stroke="#000000" stroke-width="1.5" d="M660.2,317.9l-24.8,1.4l-5-2l-3.5-2l-2-2.5l1.5-2.5
		l1.5-2.5l-0.5-3l-5-2.5h-2.5l-1.5,1.5l-2.5,1l-1-2.5l-1-1h-2.5l-3,2l-2.5-1l-1.5-2l-0.5-3l-4-2l-2.5-4.5l-4-3.5l-3-2.5l-3.5-1.5
		l-1.5-6v-5l0.5-3.5l4-1.5h2.5h3.5l3-1.5l0.5-3.5v-5l-1.5-1.5l-2.5-2l-3.5-1l-2.5-3l-1-3.5l-1-2.5l-1-3.5l-2-4l10.5-6l-7-25.1
		l-0.5,2.6l-2,2l-4.5-1.5l-2.5,1l-1,1l-3.5,1.5l-1.5,2.5v3l-3,0.5l-1.5-1l-1.5,0.5h-2l-1-1h-2.5l-0.5,2v2.5l-3.5,1l-1.5-0.5l-1.5-2
		l-2-0.5h-3l-2.5,1l-3.5-1l-2-1.5l-4.5,1.5l-1,2l-1,3.5l-1,1h-1.5l-2-1l-2,1.5l-1,2h-3l-1-2.5l-1.5-0.5h-2l-0.9-0.9l-1.1,0.9l-1.5,2
		l-0.5,2.5v1.5l-1,1.5v2.5v2.5l-1.5,1.5l-3.5,2.5v2.5l1,3.5l-1.5,2.5l-3.5,2.5l-1,2.5l0.5,4.5v3l-1.5,3l1.5,2.5l2,2l1.5,1l1.5-2h2.5
		l0.5,1.5l-1,3.5l4,3l3.5,0.5l4,2l3.5-1.5l4-0.5l2,2.5l2.5,3.5l3.5,3.5l4.5,2h3.5l3-2l1.5-0.5l1.5,3.5v4l-2,3.5l1,3l2.5,3v1.5l-1,2
		l-3,2.5l-1.5,2.5v6l2,5l1,2.5v6.5l2.5,6.5v2.5l-2.5,1l-1.5,2v3.5l-1.5,4.5l-1.5,3l-1.5,2.5v3l2.5-0.5l2-1.5l0.5,1.5v2.5v5.5l-0.5,5
		l-1,4.5l2.5,2l5,3l3,1l0.5,2.5l-0.5,3.5h3h3l3-1l2,1l3-2l2.5,1l1.5,2l-1.5,2.5l1.5,2l-1,3l-8,8l-1,3l2,4v3l3-0.5h4l3.5-0.5l-0.5-2
		l-1.5-2l-0.5-2.5l1.5-6l1-2l4.5-2.5l2.5,0.5l1.5,1l4,0.5l2-1l2.5,1l-1.5,2.5l3,2.5l1.5,2l1.5,2l-1,4l-1,4l-1,3l2,1.5h5l6,2l4,3
		l6.5,6l4.5,6.5l2.8,4.8l2.7-1.3l1.5-1h4.1l1.4-4.5v-4l2.5-3l13-13l1.5-11.5v-4.5v-3l-1.5-3l1-1.5l4-4.5l-1-3.5l-1.5-1.5l-3.5-3
		l2.5-0.5l1-2.5l2-3.5l2-3.5l-0.5-4.5l-1.5-3.5l-1.5-4l-2-6v-2l-0.5-3l2-4.5l2.5-4.5l1.5-9.5v-4l-1.5-2l-0.5-2.5L660.2,317.9z"/>
	<text transform="matrix(1 0 0 1 596.0684 339.04)" font-family="'MyriadPro-Regular'" font-size="10.8577">San Miguel</text>
</g>
<g id="d11">
	<path id="_x31_1_2_" fill="none" stroke="#000000" stroke-width="1.5" d="M513.7,275.2l0.3,0.7l1,2l2,1.5l-2,2.5l-3,1.5l-5.5,3.5
		l-5.5,3l-3.5,5l-1.5,5l-3.5,2l-0.5,3l-3.5,3.5l-6.5,2l-3.5-0.5H475l-2.5,3.5l-1.5,2.5v2l-1.5,3H467l-4.5,2.5l-1.5,5.5v4.5l-1.5,6.5
		l-1,4.5l-0.5,5.5l-3,2l-0.5,5l-1,3l-5,4.5l-3.5,6l-3.5,9v3.5l2,3l1,2.5l-3,2l-3,3l-3,3.5l-2,4l-3,2l-2.5,0.5l-2,1l-3,2.5l-3,1.5
		l-1,3l1.5,5l0.2,1l7.3,1.5l8,3l14.5,2.5l12,2.5l9,1l8,0.5l6.5,2l7.5,3l12.5,2.5l9.5,3.5l3,1.5l1.5-2l-1.5-1.5l-1.5-1.5l-0.5-1.5
		l-2.5-1.5l-12.5-3l-5.5-2l-1.5-1l2-1l0.5-2l-2-2.5l-9-8h-4l-6,1l-4,2l-2.5,2l-1.5,0.5l-2-0.5l-3-1.5l-8.5-0.5l-4.5-1l-3-2.5v-1.5
		l2.5-1l5,0.5l3-1l3,0.5l6,2.5l3.5-1.5l2.5-1.5v-2.5l-1-1l-0.5-1.5l2.5-0.5l6,2.5l11,1l8,3l3.5,4l2,3l-0.5,3.5l1,3c0,0,2,2,4,2
		c2,0,10.5,2,10.5,2h4l0.5-1.5l-3-2.5l-4.5-4l-1.5-3l0.5-3l2-1.5l4,0.5l5,5.5l6,6.5l3,5l-1,1.5h-1l-1,3.5v5l5,2h6l4.5-0.5l1.5-1.5
		l-2-1.5l-1-1l1-1l6.5-1.5l1.5-1.5l-1-1.5l-2-1v-1l3-1.5h5l4.5,2.5l0.5,3l-2.5,2l-3.5,2.5l2.5,2.5l9.5,1l18.5,1.5l9,1.5h5l4-1.5l5-1
		l12,0.5l5,0.5l0.3-0.2l-2.8-4.8l-4.5-6.5l-6.5-6l-4-3l-6-2h-5l-2-1.5l1-3l1-4l1-4l-1.5-2l-1.5-2l-3-2.5l1.5-2.5l-2.5-1l-2,1l-4-0.5
		l-1.5-1l-2.5-0.5l-4.5,2.5l-1,2l-1.5,6l0.5,2.5l1.5,2l0.5,2l-3.5,0.5h-4l-3,0.5v-3l-2-4l1-3l8-8l1-3l-1.5-2l1.5-2.5l-1.5-2l-2.5-1
		l-3,2l-2-1l-3,1h-3h-3l0.5-3.5l-0.5-2.5l-3-1l-5-3l-2.5-2l1-4.5l0.5-5v-5.5v-2.5l-0.5-1.5l-2,1.5l-2.5,0.5v-3l1.5-2.5l1.5-3
		l1.5-4.5v-3.5l1.5-2l2.5-1v-2.5l-2.5-6.5v-6.5l-1-2.5l-2-5v-6l1.5-2.5l3-2.5l1-2v-1.5l-2.5-3l-1-3l2-3.5v-4l-1.5-3.5l-1.5,0.5l-3,2
		h-3.5l-4.5-2l-3.5-3.5l-2.5-3.5l-2-2.5l-4,0.5l-3.5,1.5l-4-2l-3.5-0.5L513.7,275.2z"/>
	<text transform="matrix(1 0 0 1 502.2119 356.2305)" font-family="'MyriadPro-Regular'" font-size="10.8577">Usulután</text>
</g>
<g id="d10">
	<path id="_x31_0_2_" fill="none" stroke="#000000" stroke-width="1.5" d="M391.6,284.2v3.2l1,1l1,2.5v6l1.5,7l2.5,2.5h3.5l6.5,2.5
		l2,0.5v2.5l2.5,2l2.5,4.5v1l2,5.5l2,3l1.5,2l-2.5,5l-2.5,4.5l-0.5,6.5l1,6l2.5,3.5l2,3l1,1l1.5,2.5l3,2.5l1,3l1.5,5l-2,7.5v2.5
		l-3,0.5l-2.5,1.5v3l1.5,2.5l2,3l-2,1.5l-3,1.5l-4,4l-4,5.5l-1.9,5.6l3.9,3.9l7.5,2.5l0.2,0l-0.2-1l-1.5-5l1-3l3-1.5l3-2.5l2-1
		l2.5-0.5l3-2l2-4l3-3.5l3-3l3-2l-1-2.5l-2-3v-3.5l3.5-9l3.5-6l5-4.5l1-3l0.5-5l3-2l0.5-5.5l1-4.5l1.5-6.5v-4.5l1.5-5.5l4.5-2.5h2.5
		l1.5-3v-2l1.5-2.5l2.5-3.5h3.5l3.5,0.5l6.5-2l3.5-3.5l0.5-3l3.5-2l1.5-5l3.5-5l5.5-3l5.5-3.5l3-1.5l2-2.5l-2-1.5l-1-2l-0.3-0.7
		l-1.7-1.3l1-3.5l-0.5-1.5H510l-1.5,2l-1.5-1l-2-2l-1.5-2.5l1.5-3v-0.5h-0.5l-9.5-1l-3.5-0.5H487l-3-3l1-2.5l-2-0.5l-3.5-1l-5-2
		l-4.5-3l-3-2.5l-3.5-1l-4,2l-3-1l-5,1l-3-0.5l-3.5-1.5l-3-0.5l-3-1h-1l-3,2.5h-2.5l-1,1l-3,1l-4.5,2.5h-3.5l-4,0.5l-0.5,1.5
		l-2.5,0.5l-3,1.5h-3.5l-2.5-0.6v2.1l-1,4v4.5l-3,4.5l-1,3.5l1,2l1.5,4l-1.5,1h-3.5l-1,1.5l-2,3L391.6,284.2z"/>
	<text transform="matrix(1 0 0 1 441.8389 302.8467)" font-family="'MyriadPro-Regular'" font-size="10.8577">San Vicente</text>
</g>
<g id="d09">
	<path id="_x30_9" fill="none" stroke="#000000" stroke-width="1.5" d="M462.2,175.9l-0.7,0.5l-6,3L454,180h-2.5l-2,1l-3,1.5l-1.5-1
		l-3-0.5l-3.5,0.5l-2,0.5H435l-3.5,4.5l-2.5,2h-3l-3,1.5l-4,1l-1-1l-3,1l-1.5,3.5l-3.5,0.5l-2.5-1.5l-4.5,1.5l-1.5,2.5l-1.5,1l-2,1
		l-3,2c0.1,0,0.3,0.2,0.4,0.2c0.2,0.1,0.2,0.2,0.2,0.2c0,0-0.1,0-0.3,0c-0.6-0.1-1.8-0.4-1.8-0.4h1.5c-0.4-0.2-0.8-0.5-2-1
		c-1.4-0.6-2.4-1.2-3.3-1.7c-0.8-0.5-1.4-0.9-1.8-1.3c-0.8-0.7-0.9-1.1-0.9-1.1l-3.5,0.5l-3,0.5l-2.5,2l-2.5,1.5l-2.5,2.5l-4,3.5
		l-4,3l-1,3l2,3.5l-1,2.5l-0.5,3l1.5,2.5l3.5,2.5l1.5,2h4l3,1.5l1.5,0.5l1.5,2l-0.5,1l1.5,2h3l3,2l-2,2.5l-2.5,2l2.5,2.5l3.5,1
		l6,1.5l3,0.5l4.5,5.5l4,1h3.5l3-1.5l2.5-0.5l0.5-1.5l4-0.5h3.5l4.5-2.5l3-1l1-1h2.5l3-2.5h1l3,1l3,0.5l3.5,1.5l3,0.5l5-1l3,1l4-2
		l3.5,1l3,2.5l4.5,3l5,2l3.5,1l2,0.5l-1,2.5l3,3h4.5l3.5,0.5l9.5,1h0.5v-2.5l-0.5-4.5l1-2.5l3.5-2.5l1.5-2.5l-1-3.5v-2.5l3.5-2.5
		l1.5-1.5v-2.5v-2.5l1-1.5v-1.5l0.5-2.5l1.5-2l1.1-0.9l-0.6-0.6v-3.5l-1.5-4l-3-4l-2.5-3l2.5-7v-2.5l3.5-2v-2l-1-1.5l-4-3.5
		l-4.5-4.5l-4.5,0.5l-3.5,0.5l-2-0.5l-3.5,1.5l-1-2.5l-2.5-3l-2-2l-1-0.5l-2-0.5H483l-3.5-2l-2.5-2h-4.5l-4-1l-2-1L465,175l-1.5,1.5
		L462.2,175.9z"/>
	<text transform="matrix(1 0 0 1 439.9785 219.6055)" font-family="'MyriadPro-Regular'" font-size="10.8577">Cabañas</text>
</g>
<g id="d08">
	<path id="_x30_8_1_" fill="none" stroke="#000000" stroke-width="1.5" d="M352.1,273.4h-5l-6-0.5l-5.5,1l-2.5,2l-2.5,2.5l0.5,4.5
		l1.5,2v2.5l-1,3l1.5,1.5v2.5l-0.5,2l-3,4.5l-4,2l-2.5-0.5l-7,0.5h-4.5l-1,1.5l1,3l1,1l1,2v2l1.5,1l1,1.5l1,3l-0.5,3.5l1.5,1.5
		l-0.5,1.5l-1.5,1l-1.5,1.5v3.5l-1,2l-3,3l1,2.5v3.5l1,2.5l1.5,2l1,1v1h-3.5l-1.5,2l1,2.5l1.5,1.5v4l-0.5,3.5l-0.4,0.7l1.9,0.8
		l7.5,4l5,3l4.5,2l6.5,5.5l9,3.5l8,3.5l11,5l10,6l6.5,2.5l9.5,4h4l2,1l1,3l2,1l5.5,1.5l3.5,2.5l0.1,0.1l1.9-5.6l4-5.5l4-4l3-1.5
		l2-1.5l-2-3l-1.5-2.5v-3l2.5-1.5l3-0.5v-2.5l2-7.5l-1.5-5l-1-3l-3-2.5l-1.5-2.5l-1-1l-2-3l-2.5-3.5l-1-6l0.5-6.5l2.5-4.5l2.5-5
		l-1.5-2l-2-3l-2-5.5v-1l-2.5-4.5l-2.5-2v-2.5l-2-0.5l-6.5-2.5h-3.5l-2.5-2.5l-1.5-7v-6l-1-2.5l-1-1v-3.2l-1,0.2h-5.5l-4,3v2l-1,3.5
		h-3l-5-1.5l-3.5-1l-1-2.5l-2.5-2.5l-2.5,1l-4.5-1L352.1,273.4z"/>
	<text transform="matrix(1 0 0 1 362.7324 335.4199)" font-family="'MyriadPro-Regular'" font-size="10.8577">La Paz</text>
</g>
<g id="d07">
	<path id="_x30_7" fill="none" stroke="#000000" stroke-width="1.5" d="M318.6,161v1.5l-2.5,4.5l-3.5,3v3v3v4l-1.5,5.5l-1.5,4
		l-0.5,5l2,5l4,6l3.5,3.5l2.5,2l1.5,2.5l2,1.5l-2,2l-4.5,4l-1.5,0.5h-2l-1.5,2l1.5,3.5l1,2.5l2,1.5l1.5-1.5h3.5l3.5,2.5v3.5l2,4
		l2.5,2.5l2.5,3l2,0.5l1-1.5l3,0.5l5,13.5l8,15.5l6,12l4.5,1l2.5-1l2.5,2.5l1,2.5l3.5,1l5,1.5h3l1-3.5v-2l4-3h5.5l3.5-0.5l2-3l1-1.5
		h3.5l1.5-1l-1.5-4l-1-2l1-3.5l3-4.5v-4.5l1-4v-2.1l-1.5-0.4l-4.5-5.5l-3-0.5l-6-1.5l-3.5-1l-2.5-2.5l2.5-2l2-2.5l-3-2h-3l-1.5-2
		l0.5-1l-1.5-2l-1.5-0.5l-3-1.5h-4l-1.5-2l-3.5-2.5l-1.5-2.5l0.5-3l1-2.5l-2-3.5l1-3l4-3l4-3.5l2.5-2.5l1.8-1.1l-2.3-1.9h-3h-3h-2.5
		l-4.5-1l-3.5-2.5l-3-4.5l-1.5-5.5l-1-6l-1.5-4.5l-2.5-4.5l-4.5-3.5l-7-1.5l-6.5-2l-5.5-1.5h-5.5H318.6z"/>
	<text transform="matrix(1 0 0 1 355.5752 236.7969)" font-family="'MyriadPro-Regular'" font-size="10.8577">Cuzcatlán</text>
</g>
<g id="d06">
	<path id="_x30_6_1_" fill="none" stroke="#000000" stroke-width="1.5" d="M278.3,165.3l-2.1,1.2l-0.5,2.5l-2.5,2v3.5l2,3.5l2.5,3.5
		l0.5,3.5l1,3.5v1l1.5,1.5l-1,2l-1,2l1,1.5l5.5,1l5.5,2l2.5,2.5l-2.5,2.5l-3,3.5v3.5l-2,9.5v6.5l-3,3.5l-3,4.5l-1.5,6l1,3l-0.5,9
		l-3,5.5l-3,2l1,2l2,2.5l1,2l-1.5,2.5l0.5,2.5l2,1l1.5,1.5l3.5,3l2.5,1h2l1,1l1,3v2v2l-3.5,1.5v2v2l1.5,2.5l2.5,1h1l0.5,2.5l-2.5,2
		l-0.5,2v2.5v2.5l0.5,3l1.5,1.5v2.5v3.5l-2.5,3.5v2.5v3l1.5,2.5l1,1.5l1.5,1.5l0.5,1l1.5,2l0.5,1.5l1,3.5l0.5,3l2-2.5l1.5-2.5
		l2.5-1.5l1.5,1.5l4.5,1l2.5-0.5l1.5-0.8v-0.2l-1-2.5l3-3l1-2v-3.5l1.5-1.5l1.5-1l0.5-1.5l-1.5-1.5l0.5-3.5l-1-3l-1-1.5l-1.5-1v-2
		l-1-2l-1-1l-1-3l1-1.5h4.5l7-0.5l2.5,0.5l4-2l3-4.5l0.5-2v-2.5l-1.5-1.5l1-3v-2.5l-1.5-2l-0.5-4.5l2.5-2.5l2.5-2l5.5-1l6,0.5h5
		l-8-15.5l-5-13.5l-3-0.5l-1,1.5l-2-0.5l-2.5-3l-2.5-2.5l-2-4v-3.5l-3.5-2.5h-3.5l-1.5,1.5l-2-1.5l-1-2.5l-1.5-3.5l1.5-2h2l1.5-0.5
		l4.5-4l2-2l-2-1.5l-1.5-2.5l-2.5-2l-3.5-3.5l-4-6l-2-5l0.5-5l1.5-4l1.5-5.5v-4v-3v-3l3.5-3l2.5-4.5V161h-2.5l-4,2.5l-3,2.5h-3.5
		l-2.5-2h-2l-4,1.5l-3,1.5l-3.5-1.5l-1.5-1.5l-2-0.5l-5.5,1l-3,1L278.3,165.3z"/>
	<text transform="matrix(1 0 0 1 315.2422 265.751)" font-family="'MyriadPro-Regular'" font-size="10.8577">San Salvador</text>
</g>
<g id="d05">
	<path id="_x30_5_1_" fill="none" stroke="#000000" stroke-width="1.5" d="M242.8,169.9l-1.1,3.1l-3.5,3l-0.5,2.5v3v2l-1.5,4l1.5,1
		l1,4.5v2.5l-5,3l-4,2.5l-4.5,1l-2,2l-3,4.5l-1,4l0.5,1.5l1,2l1,3v1.5l-2,4l1,1.5l1,2l-1,0.5l-0.5,2l1,1l0.5,1l-1.5,3l0.5,1.5v1.5
		l-3.5,1l-2,2v3l1,1v2.5l-2,2l2,1l1.5,0.5l2.5,0.5l1.5,1l0.5,2.5l-1.5,1.5l-1.5,2l-1,1h-4.5l-4.5,3l-0.5,3v2.5l-2.5,0.5l-1,0.5
		l-3.5,5.5l-3,1.5l-2,2l-1.5,2l1.5,2.5l1,1l-1.5,2.5l-0.5,3.5l-2,2.5l-3.5,3.5l-3,3v3l-1,4l-0.5,4l-3,2.5l-4.5,4.5l-3.5,4l-3.5,4
		l-1,2l-1.4,4.5l7.4,2h6l4.5,1.5l6,2l6.5,0.5l13-0.5l9.5,0.5h6.5h8.5l6,0.5l8,3l5,1l3,0.5l3.5-1.5h2h3.5l4.5,2l9,5l20,10l10.6,4.2
		l0.4-0.7l0.5-3.5v-4l-1.5-1.5l-1-2.5l1.5-2h3.5v-1l-1-1l-1.5-2l-1-2.5V338l-1.5,0.8l-2.5,0.5l-4.5-1l-1.5-1.5l-2.5,1.5l-1.5,2.5
		l-2,2.5l-0.5-3l-1-3.5l-0.5-1.5l-1.5-2l-0.5-1l-1.5-1.5l-1-1.5l-1.5-2.5v-3v-2.5l2.5-3.5v-3.5v-2.5l-1.5-1.5l-0.5-3v-2.5v-2.5
		l0.5-2l2.5-2l-0.5-2.5h-1l-2.5-1l-1.5-2.5v-2v-2l3.5-1.5v-2v-2l-1-3l-1-1h-2l-2.5-1l-3.5-3l-1.5-1.5l-2-1l-0.5-2.5l1.5-2.5l-1-2
		l-2-2.5l-1-2l3-2l3-5.5l0.5-9l-1-3l1.5-6l3-4.5l3-3.5v-6.5l2-9.5v-3.5l3-3.5l2.5-2.5l-2.5-2.5l-5.5-2l-5.5-1l-1-1.5l1-2l1-2
		l-1.5-1.5v-1l-1-3.5l-0.5-3.5l-2.5-3.5l-2-3.5V171l2.5-2l0.5-2.5l2.1-1.2l-1.1-0.8l-1.5-1h-1.5l-4,0.5l-1.5-0.5l-1.5-3l-4-1.5
		l-5,1.5l-2.5,0.5l-4.5,1.5l-3.5,1.5l-1,3.5v2.5h-0.5h-3L242.8,169.9z"/>
	<text transform="matrix(1 0 0 1 245.6943 272.7324)" font-family="'MyriadPro-Regular'" font-size="10.8577">La Libertad</text>
</g>
<g id="d04">
	<path id="_x30_4" fill="none" stroke="#000000" stroke-width="1.5" d="M252.3,47.1l0.9,2l7.5,5.5l4,3.5l2,2v3l1.5,5l3.5,2.5l5,3
		l4.5,3l1.5,2V81v2.5l-2,5l-2.5,4l-1,5.5l-4,2.5l-7,2l-4,3.5l1,2.5l1,1.5v2l-1.5,2v2l1,2v2.5l-2.5,2.5l-1,2.5l-3,0.5l-6.5,2.5
		l-4.5,1l-1,2l-3,4l-4.5,3l-3.5,1v2l1,3l0.5,2v3.5l-1,1l-3,2.5l-1.5,2.5l-2.5,5.5l0.5,5l1.5,2l3.5,0.5h4l6,1h3h0.5v-2.5l1-3.5
		l3.5-1.5l4.5-1.5l2.5-0.5l5-1.5l4,1.5l1.5,3l1.5,0.5l4-0.5h1.5l1.5,1l1.5,1l3-1l5.5-1l2,0.5l1.5,1.5l3.5,1.5l3-1.5l4-1.5h2l2.5,2
		h3.5l3-2.5l4-2.5h4h5.5l5.5,1.5l6.5,2l7,1.5l4.5,3.5l2.5,4.5l1.5,4.5l1,6l1.5,5.5l3,4.5l3.5,2.5l4.5,1h2.5h3h3l2.3,1.9l0.7-0.4
		l2.5-2l3-0.5l3.5-0.5c0,0,0.1,0.4,0.9,1.1c0.4,0.3,1,0.8,1.8,1.3c0.8,0.5,1.9,1.1,3.3,1.7c1.1,0.5,1.6,0.8,2,1l3-2l2-1l1.5-1
		l1.5-2.5l4.5-1.5l2.5,1.5l3.5-0.5l1.5-3.5l3-1l1,1l4-1l3-1.5h3l2.5-2l3.5-4.5h1.5l2-0.5l3.5-0.5l3,0.5l1.5,1l3-1.5l2-1h2.5l1.5-0.5
		l6-3l0.7-0.5l-1.2-0.5l-1.5-2.5l1-2.5l-4-3l-5-1H448l-3.5-2.5l-2-3l4-8l-1.5-5v-2l-1-1.5l-3,1.5l-5.5,2H431l-2-2l-1.5-2l-2.5,1.5
		h-2.5l-3.5-1l-4,1.5l-3-1.5l-1-3l-3-2V135l-2-2.5l-1-3.5l-1-4l-2.5-1l-7-2l-3-0.5V119l-1.5-1.5l-3.5-2l-4,1l-4.5,1l-4.5-1.5l-3-2.5
		l-2-1.5l0.5-2.5l-1.5-1.5l-2-4l-3-3.5l-2-1.5l-3-2l-3.5-2l-0.5-1l0.5-3.5v-3l-0.5-1.5l-1.5-2.5V79l-1.5-1l-0.5-1l-1.5-1.5l-3-0.5
		l-6-0.5l-3.5-0.5l-0.5-2l1.5-2.5v-3l-1.5-6.5l-2-4.5l-3.5-0.5l-4,1l-3.5,3.5l-5,6.5l-3.5,2l-7.5-2.5l-5.5-0.5l-4.5-1.5l-0.5-3l-1-2
		l-4.5-2l-3,1h-4l-4.5-2l-2.5-1l-4.5-3.5l-5-1.5l-4.5-0.5l-5-0.5l-3.5-1.5H252.3z"/>
	<text transform="matrix(1 0 0 1 336.1748 136.3633)" font-family="'MyriadPro-Regular'" font-size="10.8577">Chalatenango</text>
</g>
<g id="d03">
	<path id="_x30_3" fill="none" stroke="#000000" stroke-width="1.5" d="M215.9,248.3l-5.6-2.4l-9.5-4.5l-10-5l-3.5-3l-3.5-1l-2.5,1
		l-3.5,2.5v3l-2,1l-4.5-7l-9-5.5l-5.5-6l-1.5-4l-3-3.5l-6-3.5l-4.5,0.5l-4.5,1h-6l-7.5,0.5h-6.5l-1.5,4.5l4,3.5l2,2v2l-2.5,3.5v2.5
		l-2.5,5v5l-1.5,5v3l1,3.5v2v3.5l-3,0.5l-3.5,3.5l-2,4l-1.5,5v2l-1,6l-3,1l-3.5,1.5h-4l-2.5-3l-3-1.5l-3-1l-2.5-2l-3-3.5l-1-1.5
		l-3,1l-2,3l-4.5,4l-3,3h-4l-6.9,0.4l3.4,2.1l6,3.5l4.5,2l6,3l4,1.5l2.5,1.5l2.5,2l6,3.5l5.5,4l4,4l1,4.5l2,6.5l1,5.5l1.5,2.5
		l5.5,2.5l6.5,0.5l7-1.5h4.5l4,0.5l4.5-0.5l7-1.5l5,0.5l11.5,2l7,3l0.1,0l1.4-4.5l1-2l3.5-4l3.5-4l4.5-4.5l3-2.5l0.5-4l1-4v-3l3-3
		l3.5-3.5l2-2.5l0.5-3.5l1.5-2.5l-1-1l-1.5-2.5l1.5-2l2-2l3-1.5l3.5-5.5l1-0.5l2.5-0.5v-2.5l0.5-3l4.5-3h4.5l1-1l1.5-2l1.5-1.5
		l-0.5-2.5l-1.5-1l-2.5-0.5l-1.5-0.5l-2-1L215.9,248.3z"/>
	<text transform="matrix(1 0 0 1 155.2148 269.3682)" font-family="'MyriadPro-Regular'" font-size="10.8577">Sonsonate</text>
</g>
<g id="d02">
	<path id="_x30_2" fill="none" stroke="#000000" stroke-width="1.5" d="M240.2,40l-2,0.5l-3,1l-0.5,2.5l-3,3.5l-3,1h-4l-2.5-2h-3.5
		l-5.5,0.5l-4,1.5l-3.5,1.5l-2.5,2l-2,4.5l-2.5,1l-4,0.5l1.5-2l-1-3l-1-2l-3-1l-5,1l-4,2l-2.5,4.5l0.5,3.5l2.5,1.5l1.5,2l2,1.5v2.5
		l-3.5,1l-4,3.5l-0.5,4v3h3.5l3.5-1l3.5,1.5l2,3.5l1.5,6l1.5,5.5l3,4.5l3,4v4.5l-2.5,3l-2.5-1l-2.5-1l-5,3l-5,4l-11,1l-11.5,3
		l-5.5,3.5l-7.5,4.5l-5.5,7l-6,8.5l-2,7l-2,9.5v3l0.5,3v0.8l1.5,1.2l2.5,1.5l0.5,2l0.5,2.5l1,1.5l3.5,1l2.5,1.5v3l-0.5,4.5l-1.5,4.5
		l1,2.5l-2.5,4.5l-3.5,4v3.5v2.5v4.5h0.5l4.5-1l4.5-0.5l6,3.5l3,3.5l1.5,4l5.5,6l9,5.5l4.5,7l2-1v-3l3.5-2.5l2.5-1l3.5,1l3.5,3l10,5
		l9.5,4.5l5.6,2.4l0.4-0.4v-2.5l-1-1v-3l2-2l3.5-1v-1.5l-0.5-1.5l1.5-3l-0.5-1l-1-1l0.5-2l1-0.5l-1-2l-1-1.5l2-4v-1.5l-1-3l-1-2
		l-0.5-1.5l1-4l3-4.5l2-2l4.5-1l4-2.5l5-3v-2.5l-1-4.5l-1.5-1l1.5-4v-2v-3l0.5-2.5l3.5-3l1.1-3.1l-5.6-0.9h-4l-3.5-0.5l-1.5-2
		l-0.5-5l2.5-5.5l1.5-2.5l3-2.5l1-1v-3.5l-0.5-2l-1-3v-2l3.5-1l4.5-3l3-4l1-2l4.5-1l6.5-2.5l3-0.5l1-2.5l2.5-2.5v-2.5l-1-2v-2l1.5-2
		v-2l-1-1.5l-1-2.5l4-3.5l7-2l4-2.5l1-5.5l2.5-4l2-5V81v-2.5l-1.5-2l-4.5-3l-5-3l-3.5-2.5l-1.5-5v-3l-2-2l-4-3.5l-7.5-5.5l-0.9-2
		h-0.6l-4-1.5l-1-3l-2,0.5l-0.5,1.5h-2l-0.5-1.5L240.2,40z"/>
	<text transform="matrix(1 0 0 1 180.5498 161.2891)" font-family="'MyriadPro-Regular'" font-size="10.8577">Santa Ana</text>
</g>
<g id="d01">
	<path id="_x30_1" fill="none" stroke="#000000" stroke-width="1.5" d="M136.8,211.9v-4.5v-2.5v-3.5l3.5-4l2.5-4.5l-1-2.5l1.5-4.5
		l0.5-4.5v-3l-2.5-1.5l-3.5-1l-1-1.5l-0.5-2.5l-0.5-2l-2.5-1.5l-1.5-1.2v0.7l-5,1l-10.5-2.5l-4.5-2l-2-3l-3.5-2.5l-3,1.5l-2.5,1h-4
		l-1.5,2.5l-3.5,1.5h-5l-4,1l-3,3.5l-2,4.5l-3.5,1.5l-3.5,2v1l-1.5,3l-8.5,5l-4.5,3.5l-4.5,1.5l-3.5,2l-0.5,3.5l-3.5,0.5l-2.5,1.5
		l-1.5,5l-0.5,2v3.5l-4,2.5l-9.5,4l-2.5,3l-0.5,2.5l-3,2.5l-3,2.5l-2.5,4.5l1.5,6l-3,1.5l-1,4.5v4l3,2l3,1.5v2.5l2.5,2l-0.5,2
		l-2.5,1.5l-4,0.5h-2.5l-1.5,1.5l2,0.5l2.5,1l20.5,8.5l5,1l4,2l12,5.5l0.6,0.4l6.9-0.4h4l3-3l4.5-4l2-3l3-1l1,1.5l3,3.5l2.5,2l3,1
		l3,1.5l2.5,3h4l3.5-1.5l3-1l1-6v-2l1.5-5l2-4l3.5-3.5l3-0.5v-3.5v-2l-1-3.5v-3l1.5-5v-5l2.5-5v-2.5l2.5-3.5v-2l-2-2l-4-3.5l1.5-4.5
		h6.5l7.5-0.5H136.8z"/>
	<text id="AH" transform="matrix(1 0 0 1 74.6855 226.8428)" font-family="'MyriadPro-Regular'" font-size="10.8577">Ahuachapán</text>
</g>
</svg>
